0
SECTION
2
HEADER
9
$INSUNITS
70
4
9
$ACADVER
1
AC1014
9
$HANDSEED
5
FFFF
0
ENDSEC
0
SECTION
2
TABLES
0
TABLE
2
VPORT
5
8
100
AcDbSymbolTable
0
ENDTAB
0
TABLE
2
LTYPE
5
5
100
AcDbSymbolTable
0
LTYPE
5
14
100
AcDbSymbolTableRecord
100
AcDbLinetypeTableRecord
2
BYBLOCK
70
0
0
LTYPE
5
15
100
AcDbSymbolTableRecord
100
AcDbLinetypeTableRecord
2
BYLAYER
70
0
0
LTYPE
5
16
100
AcDbSymbolTableRecord
100
AcDbLinetypeTableRecord
2
DASHED
70
0
3
Dashed __ __ __ __ __ __ __ __ __ __ __ __ __ _
72
65
73
2
40
0.75
49
0.5
74
0
49
-0.25
74
0
0
ENDTAB
0
TABLE
2
LAYER
5
2
100
AcDbSymbolTable
70
2
0
LAYER
5
50
100
AcDbSymbolTableRecord
100
AcDbLayerTableRecord
2
0
70
0
62
7
6
CONTINUOUS
0
ENDTAB
0
TABLE
2
STYLE
5
3
100
AcDbSymbolTable
70
1
0
STYLE
5
11
100
AcDbSymbolTableRecord
100
AcDbTextStyleTableRecord
2
STANDARD
70
0
0
ENDTAB
0
TABLE
2
VIEW
5
6
100
AcDbSymbolTable
70
0
0
ENDTAB
0
TABLE
2
UCS
5
7
100
AcDbSymbolTable
70
0
0
ENDTAB
0
TABLE
2
APPID
5
9
100
AcDbSymbolTable
70
2
0
APPID
5
12
100
AcDbSymbolTableRecord
100
AcDbRegAppTableRecord
2
ACAD
70
0
0
ENDTAB
0
TABLE
2
DIMSTYLE
5
A
100
AcDbSymbolTable
70
1
0
ENDTAB
0
TABLE
2
BLOCK_RECORD
5
1
100
AcDbSymbolTable
70
1
0
BLOCK_RECORD
5
1F
100
AcDbSymbolTableRecord
100
AcDbBlockTableRecord
2
*MODEL_SPACE
0
BLOCK_RECORD
5
1B
100
AcDbSymbolTableRecord
100
AcDbBlockTableRecord
2
*PAPER_SPACE
0
ENDTAB
0
ENDSEC
0
SECTION
2
BLOCKS
0
BLOCK
5
20
100
AcDbEntity
100
AcDbBlockBegin
2
*MODEL_SPACE
0
ENDBLK
5
21
100
AcDbEntity
100
AcDbBlockEnd
0
BLOCK
5
1C
100
AcDbEntity
100
AcDbBlockBegin
2
*PAPER_SPACE
0
ENDBLK
5
1D
100
AcDbEntity
100
AcDbBlockEnd
0
ENDSEC
0
SECTION
2
ENTITIES
0
LWPOLYLINE
5
100
100
AcDbEntity
8
0
100
AcDbPolyline
90
24
70
1
43
0.0
10
-55.501370914356116
20
21.393912963657932
42
0.22900719723747312
10
-51.583179581272169
20
19.500000000002188
10
-36.416820418727283
20
19.500000000002199
42
0.22900719723747276
10
-32.498629085643351
20
21.393912963657939
10
-26.985467866317293
20
28.348521850884126
42
-0.77444045941165407
10
-14.594548184916194
20
22.853380957094195
10
-15.879862328809914
20
15.112645319742828
42
0.041159272893622326
10
-16.149999999999743
20
11.836590911434337
10
-16.149999999999743
20
-11.957956405049259
42
0.025446832258965102
10
-15.994791168045438
20
-15.005650637701482
10
-14.536215394122426
20
-29.288871345712295
42
-0.72137870808498039
10
-26.652082948290818
20
-34.738780570348005
10
-32.5144118538255
20
-28.365156735461937
42
0.20978893620487152
10
-36.194471102604822
20
-26.74999999999779
10
-51.805528897394659
20
-26.749999999997801
42
0.20978893620487152
10
-55.485588146173981
20
-28.365156735461948
10
-61.347917051708649
20
-34.738780570347998
42
-0.72137870808498061
10
-73.463784605877052
20
-29.288871345712295
10
-72.005208831954022
20
-15.005650637701491
42
0.025446832258965102
10
-71.849999999999724
20
-11.957956405049268
10
-71.849999999999739
20
11.836590911434431
42
0.041159272893622326
10
-72.120137671189582
20
15.112645319742919
10
-73.405451815083268
20
22.853380957094195
42
-0.77444045941165429
10
-61.014532133682174
20
28.348521850884115
0
CIRCLE
5
101
100
AcDbEntity
8
0
100
AcDbCircle
10
-33.999999999999744
20
-19.999999999997797
30
0
40
1.6000000000000036
210
0
220
-0
230
1
0
CIRCLE
5
102
100
AcDbEntity
8
0
100
AcDbCircle
10
-33.999999999999744
20
2.2026824808563106e-12
30
0
40
1.5999999999999859
210
0
220
-0
230
1
0
CIRCLE
5
103
100
AcDbEntity
8
0
100
AcDbCircle
10
-36.499999999999744
20
-7.9999999999978044
30
0
40
3.7499999999999889
210
0
220
-0
230
1
0
CIRCLE
5
104
100
AcDbEntity
8
0
100
AcDbCircle
10
-36.499999999999744
20
8.0000000000022098
30
0
40
3.7500000000000071
210
0
220
-0
230
1
0
CIRCLE
5
105
100
AcDbEntity
8
0
100
AcDbCircle
10
-21.499999999999751
20
24.000000000002185
30
0
40
2.1500000000000021
210
-0
220
0
230
1
0
CIRCLE
5
106
100
AcDbEntity
8
0
100
AcDbCircle
10
-21.499999999999755
20
-29.999999999997812
30
0
40
2.1500010430816143
210
-0
220
0
230
1
0
CIRCLE
5
107
100
AcDbEntity
8
0
100
AcDbCircle
10
-23.999999999999744
20
-11.749999999997804
30
0
40
4.149999999999995
210
-0
220
0
230
1
0
CIRCLE
5
108
100
AcDbEntity
8
0
100
AcDbCircle
10
-23.999999999999744
20
2.1960211427085596e-12
30
0
40
4.149999999999995
210
-0
220
0
230
1
0
CIRCLE
5
109
100
AcDbEntity
8
0
100
AcDbCircle
10
-23.999999999999744
20
11.750000000002196
30
0
40
4.149999999999995
210
-0
220
0
230
1
0
CIRCLE
5
110
100
AcDbEntity
8
0
100
AcDbCircle
10
-43.999999999999737
20
2.2082576008015905e-12
30
0
40
1.4000000000000035
210
0
220
-0
230
1
0
CIRCLE
5
111
100
AcDbEntity
8
0
100
AcDbCircle
10
-63.99999999999973
20
11.750000000002196
30
0
40
4.149999999999995
210
0
220
0
230
1
0
CIRCLE
5
112
100
AcDbEntity
8
0
100
AcDbCircle
10
-63.99999999999973
20
2.1960211427085596e-12
30
0
40
4.149999999999995
210
0
220
0
230
1
0
CIRCLE
5
113
100
AcDbEntity
8
0
100
AcDbCircle
10
-63.99999999999973
20
-11.749999999997804
30
0
40
4.149999999999995
210
0
220
0
230
1
0
CIRCLE
5
114
100
AcDbEntity
8
0
100
AcDbCircle
10
-66.499999999999716
20
-29.999999999997812
30
0
40
2.1500010430816143
210
0
220
0
230
1
0
CIRCLE
5
115
100
AcDbEntity
8
0
100
AcDbCircle
10
-66.499999999999716
20
24.000000000002181
30
0
40
2.1500000000000021
210
0
220
0
230
1
0
CIRCLE
5
116
100
AcDbEntity
8
0
100
AcDbCircle
10
-51.49999999999973
20
8.0000000000022098
30
0
40
3.7500000000000071
210
0
220
-0
230
1
0
CIRCLE
5
117
100
AcDbEntity
8
0
100
AcDbCircle
10
-51.49999999999973
20
-7.9999999999978044
30
0
40
3.7499999999999889
210
0
220
-0
230
1
0
CIRCLE
5
118
100
AcDbEntity
8
0
100
AcDbCircle
10
-53.99999999999973
20
2.2026824808563106e-12
30
0
40
1.5999999999999859
210
0
220
-0
230
1
0
CIRCLE
5
119
100
AcDbEntity
8
0
100
AcDbCircle
10
-53.99999999999973
20
-19.999999999997797
30
0
40
1.6000000000000036
210
0
220
-0
230
1
0
ENDSEC
0
SECTION
2
OBJECTS
0
DICTIONARY
5
C
100
AcDbDictionary
3
ACAD_GROUP
350
D
3
ACAD_MLINESTYLE
350
17
0
DICTIONARY
5
D
100
AcDbDictionary
0
DICTIONARY
5
1A
330
C
100
AcDbDictionary
0
DICTIONARY
5
17
100
AcDbDictionary
0
ENDSEC
0
EOF
