0
SECTION
2
HEADER
9
$INSUNITS
70
4
9
$ACADVER
1
AC1014
9
$HANDSEED
5
FFFF
0
ENDSEC
0
SECTION
2
TABLES
0
TABLE
2
VPORT
5
8
100
AcDbSymbolTable
0
ENDTAB
0
TABLE
2
LTYPE
5
5
100
AcDbSymbolTable
0
LTYPE
5
14
100
AcDbSymbolTableRecord
100
AcDbLinetypeTableRecord
2
BYBLOCK
70
0
0
LTYPE
5
15
100
AcDbSymbolTableRecord
100
AcDbLinetypeTableRecord
2
BYLAYER
70
0
0
LTYPE
5
16
100
AcDbSymbolTableRecord
100
AcDbLinetypeTableRecord
2
DASHED
70
0
3
Dashed __ __ __ __ __ __ __ __ __ __ __ __ __ _
72
65
73
2
40
0.75
49
0.5
74
0
49
-0.25
74
0
0
ENDTAB
0
TABLE
2
LAYER
5
2
100
AcDbSymbolTable
70
2
0
LAYER
5
50
100
AcDbSymbolTableRecord
100
AcDbLayerTableRecord
2
0
70
0
62
7
6
CONTINUOUS
0
ENDTAB
0
TABLE
2
STYLE
5
3
100
AcDbSymbolTable
70
1
0
STYLE
5
11
100
AcDbSymbolTableRecord
100
AcDbTextStyleTableRecord
2
STANDARD
70
0
0
ENDTAB
0
TABLE
2
VIEW
5
6
100
AcDbSymbolTable
70
0
0
ENDTAB
0
TABLE
2
UCS
5
7
100
AcDbSymbolTable
70
0
0
ENDTAB
0
TABLE
2
APPID
5
9
100
AcDbSymbolTable
70
2
0
APPID
5
12
100
AcDbSymbolTableRecord
100
AcDbRegAppTableRecord
2
ACAD
70
0
0
ENDTAB
0
TABLE
2
DIMSTYLE
5
A
100
AcDbSymbolTable
70
1
0
ENDTAB
0
TABLE
2
BLOCK_RECORD
5
1
100
AcDbSymbolTable
70
1
0
BLOCK_RECORD
5
1F
100
AcDbSymbolTableRecord
100
AcDbBlockTableRecord
2
*MODEL_SPACE
0
BLOCK_RECORD
5
1B
100
AcDbSymbolTableRecord
100
AcDbBlockTableRecord
2
*PAPER_SPACE
0
ENDTAB
0
ENDSEC
0
SECTION
2
BLOCKS
0
BLOCK
5
20
100
AcDbEntity
100
AcDbBlockBegin
2
*MODEL_SPACE
0
ENDBLK
5
21
100
AcDbEntity
100
AcDbBlockEnd
0
BLOCK
5
1C
100
AcDbEntity
100
AcDbBlockBegin
2
*PAPER_SPACE
0
ENDBLK
5
1D
100
AcDbEntity
100
AcDbBlockEnd
0
ENDSEC
0
SECTION
2
ENTITIES
0
CIRCLE
5
100
100
AcDbEntity
8
0
100
AcDbCircle
10
43.999999999999737
20
2.2082576008015905e-12
30
0
40
1.4000000000000035
210
0
220
0
230
1
0
CIRCLE
5
101
100
AcDbEntity
8
0
100
AcDbCircle
10
23.999999999999744
20
2.1960211427085596e-12
30
0
40
2.1250000000000036
210
0
220
-0
230
1
0
CIRCLE
5
102
100
AcDbEntity
8
0
100
AcDbCircle
10
23.999999999999744
20
-11.749999999997804
30
0
40
2.1250000000000036
210
0
220
0
230
1
0
CIRCLE
5
103
100
AcDbEntity
8
0
100
AcDbCircle
10
23.999999999999744
20
11.750000000002196
30
0
40
2.1250000000000036
210
0
220
0
230
1
0
CIRCLE
5
104
100
AcDbEntity
8
0
100
AcDbCircle
10
21.499999999999755
20
24.000000000002181
30
0
40
3.0000000000000018
210
0
220
0
230
1
0
CIRCLE
5
105
100
AcDbEntity
8
0
100
AcDbCircle
10
21.499999999999755
20
-29.999999999997812
30
0
40
3.000001043081614
210
0
220
0
230
1
0
CIRCLE
5
106
100
AcDbEntity
8
0
100
AcDbCircle
10
33.999999999999744
20
2.2026824808563106e-12
30
0
40
3.7500000000000071
210
0
220
-0
230
1
0
CIRCLE
5
107
100
AcDbEntity
8
0
100
AcDbCircle
10
36.499999999999744
20
-7.9999999999978044
30
0
40
1.6499999999999859
210
0
220
-0
230
1
0
CIRCLE
5
108
100
AcDbEntity
8
0
100
AcDbCircle
10
36.499999999999744
20
8.0000000000022098
30
0
40
1.6500000000000037
210
0
220
-0
230
1
0
CIRCLE
5
109
100
AcDbEntity
8
0
100
AcDbCircle
10
33.999999999999744
20
-19.999999999997797
30
0
40
3.7500000000000071
210
0
220
-0
230
1
0
CIRCLE
5
110
100
AcDbEntity
8
0
100
AcDbCircle
10
11.999998867511223
20
2.1960211427085596e-12
30
0
40
2.1250000000000036
210
0
220
-0
230
1
0
CIRCLE
5
111
100
AcDbEntity
8
0
100
AcDbCircle
10
76.000001132488251
20
2.1960211427085596e-12
30
0
40
2.1250000000000036
210
0
220
-0
230
1
0
LWPOLYLINE
5
112
100
AcDbEntity
8
0
100
AcDbPolyline
90
32
70
1
43
0.0
10
32.498629085643344
20
21.393912963657936
42
0.22900719723747226
10
36.416820418727276
20
19.500000000002199
10
51.583179581272169
20
19.500000000002188
42
0.22900719723747293
10
55.501370914356116
20
21.393912963657922
10
61.014532133682167
20
28.348521850884122
42
-0.77444045941165396
10
73.405451815083282
20
22.853380957094195
10
72.117136170721423
20
15.094568943823642
42
0.2973327087556582
10
73.214754935620377
20
12.592958979152296
10
79.868614026202039
20
8.2401311463551057
42
-0.25307628872154009
10
80.99999999999973
20
6.1480279827223194
10
80.99999999999973
20
-6.1480279827179318
42
-0.25307628872153987
10
79.868614026202039
20
-8.2401311463507128
10
73.122988577287217
20
-12.652990782230782
42
0.28032843325029727
10
72.004536672819057
20
-14.99906846525125
10
73.463784605877038
20
-29.288871345712295
42
-0.72137870808498039
10
61.347917051708656
20
-34.738780570348005
10
55.485588146173995
20
-28.365156735461944
42
0.20978893620487132
10
51.805528897394666
20
-26.749999999997801
10
36.194471102604822
20
-26.74999999999779
42
0.20978893620487152
10
32.5144118538255
20
-28.365156735461937
10
26.652082948290822
20
-34.738780570348005
42
-0.72137870808498039
10
14.53621539412242
20
-29.288871345712295
10
15.995463327180415
20
-14.999068465251247
42
0.28032843325029705
10
14.877011422712251
20
-12.652990782230781
10
8.1313859737974319
20
-8.2401311463507128
42
-0.25307628872153892
10
6.9999999999997442
20
-6.1480279827179292
10
6.9999999999997451
20
6.1480279827223203
42
-0.25307628872153892
10
8.1313859737974337
20
8.2401311463551039
10
14.785245064379094
20
12.592958979152293
42
0.29733270875565876
10
15.882863829278055
20
15.094568943823639
10
14.594548184916199
20
22.853380957094203
42
-0.77444045941165374
10
26.9854678663173
20
28.348521850884115
0
CIRCLE
5
113
100
AcDbEntity
8
0
100
AcDbCircle
10
53.99999999999973
20
-19.999999999997797
30
0
40
3.7500000000000071
210
0
220
-0
230
1
0
CIRCLE
5
114
100
AcDbEntity
8
0
100
AcDbCircle
10
51.49999999999973
20
8.0000000000022098
30
0
40
1.6500000000000037
210
0
220
-0
230
1
0
CIRCLE
5
115
100
AcDbEntity
8
0
100
AcDbCircle
10
51.49999999999973
20
-7.9999999999978044
30
0
40
1.6499999999999859
210
0
220
-0
230
1
0
CIRCLE
5
116
100
AcDbEntity
8
0
100
AcDbCircle
10
53.99999999999973
20
2.2026824808563106e-12
30
0
40
3.7500000000000071
210
0
220
-0
230
1
0
CIRCLE
5
117
100
AcDbEntity
8
0
100
AcDbCircle
10
66.499999999999716
20
-29.999999999997812
30
0
40
3.000001043081614
210
0
220
0
230
1
0
CIRCLE
5
118
100
AcDbEntity
8
0
100
AcDbCircle
10
66.499999999999716
20
24.000000000002181
30
0
40
3.0000000000000018
210
0
220
0
230
1
0
CIRCLE
5
119
100
AcDbEntity
8
0
100
AcDbCircle
10
63.99999999999973
20
11.750000000002196
30
0
40
2.1250000000000036
210
0
220
0
230
1
0
CIRCLE
5
120
100
AcDbEntity
8
0
100
AcDbCircle
10
63.99999999999973
20
-11.749999999997804
30
0
40
2.1250000000000036
210
0
220
0
230
1
0
CIRCLE
5
121
100
AcDbEntity
8
0
100
AcDbCircle
10
63.99999999999973
20
2.1960211427085596e-12
30
0
40
2.1250000000000036
210
0
220
-0
230
1
0
ENDSEC
0
SECTION
2
OBJECTS
0
DICTIONARY
5
C
100
AcDbDictionary
3
ACAD_GROUP
350
D
3
ACAD_MLINESTYLE
350
17
0
DICTIONARY
5
D
100
AcDbDictionary
0
DICTIONARY
5
1A
330
C
100
AcDbDictionary
0
DICTIONARY
5
17
100
AcDbDictionary
0
ENDSEC
0
EOF
