0
SECTION
2
HEADER
9
$INSUNITS
70
4
9
$ACADVER
1
AC1014
9
$HANDSEED
5
FFFF
0
ENDSEC
0
SECTION
2
TABLES
0
TABLE
2
VPORT
5
8
100
AcDbSymbolTable
0
ENDTAB
0
TABLE
2
LTYPE
5
5
100
AcDbSymbolTable
0
LTYPE
5
14
100
AcDbSymbolTableRecord
100
AcDbLinetypeTableRecord
2
BYBLOCK
70
0
0
LTYPE
5
15
100
AcDbSymbolTableRecord
100
AcDbLinetypeTableRecord
2
BYLAYER
70
0
0
LTYPE
5
16
100
AcDbSymbolTableRecord
100
AcDbLinetypeTableRecord
2
DASHED
70
0
3
Dashed __ __ __ __ __ __ __ __ __ __ __ __ __ _
72
65
73
2
40
0.75
49
0.5
74
0
49
-0.25
74
0
0
ENDTAB
0
TABLE
2
LAYER
5
2
100
AcDbSymbolTable
70
2
0
LAYER
5
50
100
AcDbSymbolTableRecord
100
AcDbLayerTableRecord
2
0
70
0
62
7
6
CONTINUOUS
0
ENDTAB
0
TABLE
2
STYLE
5
3
100
AcDbSymbolTable
70
1
0
STYLE
5
11
100
AcDbSymbolTableRecord
100
AcDbTextStyleTableRecord
2
STANDARD
70
0
0
ENDTAB
0
TABLE
2
VIEW
5
6
100
AcDbSymbolTable
70
0
0
ENDTAB
0
TABLE
2
UCS
5
7
100
AcDbSymbolTable
70
0
0
ENDTAB
0
TABLE
2
APPID
5
9
100
AcDbSymbolTable
70
2
0
APPID
5
12
100
AcDbSymbolTableRecord
100
AcDbRegAppTableRecord
2
ACAD
70
0
0
ENDTAB
0
TABLE
2
DIMSTYLE
5
A
100
AcDbSymbolTable
70
1
0
ENDTAB
0
TABLE
2
BLOCK_RECORD
5
1
100
AcDbSymbolTable
70
1
0
BLOCK_RECORD
5
1F
100
AcDbSymbolTableRecord
100
AcDbBlockTableRecord
2
*MODEL_SPACE
0
BLOCK_RECORD
5
1B
100
AcDbSymbolTableRecord
100
AcDbBlockTableRecord
2
*PAPER_SPACE
0
ENDTAB
0
ENDSEC
0
SECTION
2
BLOCKS
0
BLOCK
5
20
100
AcDbEntity
100
AcDbBlockBegin
2
*MODEL_SPACE
0
ENDBLK
5
21
100
AcDbEntity
100
AcDbBlockEnd
0
BLOCK
5
1C
100
AcDbEntity
100
AcDbBlockBegin
2
*PAPER_SPACE
0
ENDBLK
5
1D
100
AcDbEntity
100
AcDbBlockEnd
0
ENDSEC
0
SECTION
2
ENTITIES
0
LWPOLYLINE
5
100
100
AcDbEntity
8
0
100
AcDbPolyline
90
44
70
1
43
0.0
10
-31.615629695348282
20
204.71317111278864
42
0.13007030353634944
10
-32.367354788386479
20
203.08790928689317
10
-32.848077530122232
20
200.36159514141031
42
0.043660942908508756
10
-33.000000000000128
20
198.62511336474114
10
-33.000000000000135
20
192.37488663525937
42
0.043660942908505869
10
-32.848077530122232
20
190.63840485859006
10
-32.42509128060869
20
188.23953063177555
42
0.36397023426620267
10
-30.947879651090382
20
187.00000289827591
10
30.947879651090222
20
187.00000000000014
42
0.36397023426618774
10
32.425091280608534
20
188.23953063177558
10
32.848077530122083
20
190.63840485859004
42
0.043660942908510199
10
33
20
192.37488663525934
10
33
20
198.62511336474097
42
0.043660942908508915
10
32.84807753012209
20
200.36159514141016
10
32.367354788386365
20
203.08790928689302
42
0.1300703035363619
10
31.615629695348165
20
204.7131711127885
10
26.149854224993433
20
211.30995650324337
42
-0.36045095503010316
10
26.149854224993465
20
217.69004349675686
10
31.615629695348098
20
224.2868288872117
42
0.13007030353635321
10
32.367354788386308
20
225.91209071310715
10
32.848077530122083
20
228.63840485859004
42
0.043660942908508436
10
33
20
230.37488663525934
10
33
20
236.62511336474097
42
0.043660942908508915
10
32.84807753012209
20
238.36159514141016
10
32.425090769564349
20
240.76047226650047
42
0.36397023426620267
10
30.947879140046041
20
242.00000000000011
10
24.672714551677192
20
242.00000000000011
42
-0.30334668360734246
10
20.977196421632041
20
244.46926627053972
10
19.118436956308607
20
248.9567085809129
42
0.30334668360733386
10
16.808738125030409
20
250.50000000000017
10
-16.808738125030409
20
250.50000000000017
42
0.30334668360733963
10
-19.118436956308614
20
248.95670858091296
10
-20.977196421632041
20
244.4692662705398
42
-0.30334668360734701
10
-24.672714551677192
20
242.00000000000017
10
-30.947879140046055
20
242.0000000000002
42
0.36397023426620401
10
-32.425090769564363
20
240.76047226650061
10
-32.848077530122126
20
238.36159514141031
42
0.043660942908500908
10
-33.000000000000028
20
236.62511336474114
10
-33.000000000000064
20
230.37488663525937
42
0.043660942908512919
10
-32.848077530122126
20
228.63840485859009
10
-32.367354788386386
20
225.91209071310729
42
0.13007030353634894
10
-31.615629695348222
20
224.28682888721187
10
-26.149854224993501
20
217.69004349675683
42
-0.36045095503008373
10
-26.149854224993469
20
211.30995650324363
0
CIRCLE
5
101
100
AcDbEntity
8
0
100
AcDbCircle
10
-25.500000000000007
20
233.50000000000023
30
0
40
3.2499999999999982
210
0
220
-0
230
1
0
CIRCLE
5
102
100
AcDbEntity
8
0
100
AcDbCircle
10
-10.000000000000107
20
238.10000000000016
30
0
40
1.600000000000001
210
0
220
-0
230
1
0
CIRCLE
5
103
100
AcDbEntity
8
0
100
AcDbCircle
10
-10.000000000000142
20
218.10000000000016
30
0
40
1.600000000000001
210
0
220
-0
230
1
0
CIRCLE
5
104
100
AcDbEntity
8
0
100
AcDbCircle
10
-25.500000000000114
20
195.50000000000023
30
0
40
3.4999999999999987
210
0
220
-0
230
1
0
CIRCLE
5
105
100
AcDbEntity
8
0
100
AcDbCircle
10
-10.000000000000036
20
228.10000000000014
30
0
40
5.5000000000000178
210
0
220
-0
230
1
0
CIRCLE
5
106
100
AcDbEntity
8
0
100
AcDbCircle
10
-10.000000000000142
20
198.10000000000014
30
0
40
5.7500000000000009
210
0
220
-0
230
1
0
CIRCLE
5
107
100
AcDbEntity
8
0
100
AcDbCircle
10
10
20
198.10000000000008
30
0
40
5.7500000000000009
210
0
220
-0
230
1
0
CIRCLE
5
108
100
AcDbEntity
8
0
100
AcDbCircle
10
10
20
228.10000000000008
30
0
40
5.5000000000000178
210
0
220
-0
230
1
0
CIRCLE
5
109
100
AcDbEntity
8
0
100
AcDbCircle
10
25.499999999999972
20
195.50000000000014
30
0
40
3.4999999999999987
210
0
220
-0
230
1
0
CIRCLE
5
110
100
AcDbEntity
8
0
100
AcDbCircle
10
10.000000000000036
20
218.10000000000014
30
0
40
1.600000000000001
210
0
220
-0
230
1
0
CIRCLE
5
111
100
AcDbEntity
8
0
100
AcDbCircle
10
10.000000000000036
20
238.10000000000014
30
0
40
1.600000000000001
210
0
220
-0
230
1
0
CIRCLE
5
112
100
AcDbEntity
8
0
100
AcDbCircle
10
25.499999999999972
20
233.50000000000017
30
0
40
3.2499999999999982
210
0
220
-0
230
1
0
CIRCLE
5
113
100
AcDbEntity
8
0
100
AcDbCircle
10
0
20
246.0000000000002
30
0
40
1.3999999999999999
210
0
220
-0
230
1
0
ENDSEC
0
SECTION
2
OBJECTS
0
DICTIONARY
5
C
100
AcDbDictionary
3
ACAD_GROUP
350
D
3
ACAD_MLINESTYLE
350
17
0
DICTIONARY
5
D
100
AcDbDictionary
0
DICTIONARY
5
1A
330
C
100
AcDbDictionary
0
DICTIONARY
5
17
100
AcDbDictionary
0
ENDSEC
0
EOF
