0
SECTION
2
HEADER
9
$INSUNITS
70
4
9
$ACADVER
1
AC1014
9
$HANDSEED
5
FFFF
0
ENDSEC
0
SECTION
2
TABLES
0
TABLE
2
VPORT
5
8
100
AcDbSymbolTable
0
ENDTAB
0
TABLE
2
LTYPE
5
5
100
AcDbSymbolTable
0
LTYPE
5
14
100
AcDbSymbolTableRecord
100
AcDbLinetypeTableRecord
2
BYBLOCK
70
0
0
LTYPE
5
15
100
AcDbSymbolTableRecord
100
AcDbLinetypeTableRecord
2
BYLAYER
70
0
0
LTYPE
5
16
100
AcDbSymbolTableRecord
100
AcDbLinetypeTableRecord
2
DASHED
70
0
3
Dashed __ __ __ __ __ __ __ __ __ __ __ __ __ _
72
65
73
2
40
0.75
49
0.5
74
0
49
-0.25
74
0
0
ENDTAB
0
TABLE
2
LAYER
5
2
100
AcDbSymbolTable
70
2
0
LAYER
5
50
100
AcDbSymbolTableRecord
100
AcDbLayerTableRecord
2
0
70
0
62
7
6
CONTINUOUS
0
ENDTAB
0
TABLE
2
STYLE
5
3
100
AcDbSymbolTable
70
1
0
STYLE
5
11
100
AcDbSymbolTableRecord
100
AcDbTextStyleTableRecord
2
STANDARD
70
0
0
ENDTAB
0
TABLE
2
VIEW
5
6
100
AcDbSymbolTable
70
0
0
ENDTAB
0
TABLE
2
UCS
5
7
100
AcDbSymbolTable
70
0
0
ENDTAB
0
TABLE
2
APPID
5
9
100
AcDbSymbolTable
70
2
0
APPID
5
12
100
AcDbSymbolTableRecord
100
AcDbRegAppTableRecord
2
ACAD
70
0
0
ENDTAB
0
TABLE
2
DIMSTYLE
5
A
100
AcDbSymbolTable
70
1
0
ENDTAB
0
TABLE
2
BLOCK_RECORD
5
1
100
AcDbSymbolTable
70
1
0
BLOCK_RECORD
5
1F
100
AcDbSymbolTableRecord
100
AcDbBlockTableRecord
2
*MODEL_SPACE
0
BLOCK_RECORD
5
1B
100
AcDbSymbolTableRecord
100
AcDbBlockTableRecord
2
*PAPER_SPACE
0
ENDTAB
0
ENDSEC
0
SECTION
2
BLOCKS
0
BLOCK
5
20
100
AcDbEntity
100
AcDbBlockBegin
2
*MODEL_SPACE
0
ENDBLK
5
21
100
AcDbEntity
100
AcDbBlockEnd
0
BLOCK
5
1C
100
AcDbEntity
100
AcDbBlockBegin
2
*PAPER_SPACE
0
ENDBLK
5
1D
100
AcDbEntity
100
AcDbBlockEnd
0
ENDSEC
0
SECTION
2
ENTITIES
0
LWPOLYLINE
5
100
100
AcDbEntity
8
0
100
AcDbPolyline
90
28
70
1
43
0.0
10
-456.62443082473942
20
21.141636329136915
42
0.067231939602991508
10
-459.27751372896
20
21.500000000000014
10
-491.49999999999892
20
21.49999999999995
42
0.41421356237309503
10
-497.49999999999892
20
15.499999999999952
10
-497.49999999999892
20
-15.500000000000018
42
0.41421356237309498
10
-491.49999999999892
20
-21.500000000000018
10
-488.49999999999898
20
-21.50000000000005
42
-0.41421356237309503
10
-485.49999999999898
20
-24.500000000000021
10
-485.49999999999898
20
-45.49944465005364
42
0.2679491924311222
10
-484.49999999999898
20
-47.231495457622536
10
-478.17499999999893
20
-50.88323591024686
42
0.26794919243112514
10
-472.82499999999891
20
-50.883235910246817
10
-466.49999999999892
20
-47.231495457622472
42
0.26794919243112042
10
-465.49999999999892
20
-45.499444650053604
10
-465.49999999999898
20
-24.500000000000025
42
-0.41421356237309592
10
-462.49999999999898
20
-21.500000000000014
10
-459.27751372895989
20
-21.500000000000018
42
0.067231939602987734
10
-456.62443082473948
20
-21.141636329136965
10
-435.27549611225641
20
-15.267063613939316
42
0.080298749405491018
10
-433.38888888888818
20
-14.404616225340465
10
-427.16666666666578
20
-10.247219128924822
42
0.098500315149560369
10
-426.75278087107438
20
-9.8333333333334441
10
-422.59538377465879
20
-3.6111111111110938
42
0.303337045290406
10
-422.59538377465873
20
3.6111111111107319
10
-426.75278087107421
20
9.8333333333331794
42
0.098500315149540593
10
-427.16666666666555
20
10.247219128924531
10
-433.38888888888795
20
14.40461622534
42
0.080298749405498734
10
-435.27549611225629
20
15.267063613938983
0
CIRCLE
5
101
100
AcDbEntity
8
0
100
AcDbCircle
10
-436.99999999999898
20
-1.4210854715202004e-13
30
7.1054273576010019e-14
40
2.7499999999999991
210
-1.268826313857323e-15
220
3.357479443609003e-61
230
1
0
CIRCLE
5
102
100
AcDbEntity
8
0
100
AcDbCircle
10
-460.49999999999892
20
-15.500000000000007
30
0
40
2
210
0
220
0
230
1
0
CIRCLE
5
103
100
AcDbEntity
8
0
100
AcDbCircle
10
-491.49999999999892
20
-15.500000000000016
30
0
40
2
210
0
220
0
230
1
0
CIRCLE
5
104
100
AcDbEntity
8
0
100
AcDbCircle
10
-491.49999999999892
20
15.499999999999952
30
0
40
2
210
0
220
0
230
1
0
CIRCLE
5
105
100
AcDbEntity
8
0
100
AcDbCircle
10
-460.49999999999892
20
15.500000000000007
30
0
40
2
210
0
220
0
230
1
0
CIRCLE
5
106
100
AcDbEntity
8
0
100
AcDbCircle
10
-475.99999999999886
20
-1.421085471520188e-13
30
0
40
12.5
210
0
220
0
230
1
0
CIRCLE
5
107
100
AcDbEntity
8
0
100
AcDbCircle
10
-436.99999999999898
20
8.999999999999865
30
0
40
2.75
210
0
220
0
230
1
0
CIRCLE
5
108
100
AcDbEntity
8
0
100
AcDbCircle
10
-427.99999999999898
20
-1.354472090042691e-13
30
0
40
2.75
210
0
220
0
230
1
0
CIRCLE
5
109
100
AcDbEntity
8
0
100
AcDbCircle
10
-436.99999999999898
20
-9.0000000000001421
30
0
40
2.75
210
0
220
0
230
1
0
ENDSEC
0
SECTION
2
OBJECTS
0
DICTIONARY
5
C
100
AcDbDictionary
3
ACAD_GROUP
350
D
3
ACAD_MLINESTYLE
350
17
0
DICTIONARY
5
D
100
AcDbDictionary
0
DICTIONARY
5
1A
330
C
100
AcDbDictionary
0
DICTIONARY
5
17
100
AcDbDictionary
0
ENDSEC
0
EOF
