G04 #@! TF.GenerationSoftware,KiCad,Pcbnew,8.0.8*
G04 #@! TF.CreationDate,2025-02-12T04:52:48-07:00*
G04 #@! TF.ProjectId,MK1 PCB BUILD PLATE,4d4b3120-5043-4422-9042-55494c442050,rev?*
G04 #@! TF.SameCoordinates,Original*
G04 #@! TF.FileFunction,Legend,Bot*
G04 #@! TF.FilePolarity,Positive*
%FSLAX46Y46*%
G04 Gerber Fmt 4.6, Leading zero omitted, Abs format (unit mm)*
G04 Created by KiCad (PCBNEW 8.0.8) date 2025-02-12 04:52:48*
%MOMM*%
%LPD*%
G01*
G04 APERTURE LIST*
%ADD10C,0.030150*%
%ADD11C,0.250000*%
%ADD12C,0.600000*%
%ADD13C,0.200000*%
%ADD14C,0.300000*%
%ADD15C,0.400000*%
%ADD16C,3.200000*%
%ADD17C,6.400000*%
%ADD18C,5.000000*%
G04 APERTURE END LIST*
D10*
X191525330Y-55433975D02*
G75*
G02*
X191495180Y-55433975I-15075J0D01*
G01*
X191495180Y-55433975D02*
G75*
G02*
X191525330Y-55433975I15075J0D01*
G01*
D11*
X86160889Y-36937950D02*
X216160889Y-36937950D01*
D12*
X191510255Y-55433975D02*
X195840382Y-47933975D01*
X204500636Y-47933975D02*
X200170509Y-40433975D01*
X204500636Y-47933975D02*
X200170509Y-55433975D01*
X195840382Y-47933975D02*
X200170509Y-55433975D01*
D11*
X86160889Y-137816630D02*
X86160889Y-36937950D01*
X90282210Y-141937950D02*
X86160889Y-137816630D01*
D10*
X204515711Y-47933975D02*
G75*
G02*
X204485561Y-47933975I-15075J0D01*
G01*
X204485561Y-47933975D02*
G75*
G02*
X204515711Y-47933975I15075J0D01*
G01*
D12*
X200170509Y-55433975D02*
X195840382Y-47933975D01*
X213160890Y-47933975D02*
X204500636Y-47933975D01*
X195840382Y-47933975D02*
X200170509Y-40433975D01*
X208830763Y-55433975D02*
X200170509Y-55433975D01*
D11*
X216160889Y-36937950D02*
X216160889Y-137816630D01*
X212039569Y-141937950D02*
X90282210Y-141937950D01*
D12*
X191510255Y-55433975D02*
X182850001Y-55433975D01*
X195840382Y-62933975D02*
X187180128Y-62933975D01*
X187180128Y-62933975D02*
X182850001Y-55433975D01*
X182850001Y-55433975D02*
X187180128Y-47933975D01*
X187180128Y-47933975D02*
X195840382Y-47933975D01*
X208830763Y-40433975D02*
X213160890Y-47933975D01*
X200170509Y-40433975D02*
X208830763Y-40433975D01*
X195840382Y-62933975D02*
X191510255Y-55433975D01*
X213160890Y-47933975D02*
X208830763Y-55433975D01*
X200170509Y-55433975D02*
X195840382Y-62933975D01*
D11*
X216160889Y-137816630D02*
X212039569Y-141937950D01*
D13*
X95660889Y-140301194D02*
X95660889Y-139301194D01*
X95660889Y-139301194D02*
X95089461Y-140301194D01*
X95089461Y-140301194D02*
X95089461Y-139301194D01*
X94422794Y-139301194D02*
X94232318Y-139301194D01*
X94232318Y-139301194D02*
X94137080Y-139348813D01*
X94137080Y-139348813D02*
X94041842Y-139444051D01*
X94041842Y-139444051D02*
X93994223Y-139634527D01*
X93994223Y-139634527D02*
X93994223Y-139967860D01*
X93994223Y-139967860D02*
X94041842Y-140158336D01*
X94041842Y-140158336D02*
X94137080Y-140253575D01*
X94137080Y-140253575D02*
X94232318Y-140301194D01*
X94232318Y-140301194D02*
X94422794Y-140301194D01*
X94422794Y-140301194D02*
X94518032Y-140253575D01*
X94518032Y-140253575D02*
X94613270Y-140158336D01*
X94613270Y-140158336D02*
X94660889Y-139967860D01*
X94660889Y-139967860D02*
X94660889Y-139634527D01*
X94660889Y-139634527D02*
X94613270Y-139444051D01*
X94613270Y-139444051D02*
X94518032Y-139348813D01*
X94518032Y-139348813D02*
X94422794Y-139301194D01*
X92851365Y-140253575D02*
X92708508Y-140301194D01*
X92708508Y-140301194D02*
X92470413Y-140301194D01*
X92470413Y-140301194D02*
X92375175Y-140253575D01*
X92375175Y-140253575D02*
X92327556Y-140205955D01*
X92327556Y-140205955D02*
X92279937Y-140110717D01*
X92279937Y-140110717D02*
X92279937Y-140015479D01*
X92279937Y-140015479D02*
X92327556Y-139920241D01*
X92327556Y-139920241D02*
X92375175Y-139872622D01*
X92375175Y-139872622D02*
X92470413Y-139825003D01*
X92470413Y-139825003D02*
X92660889Y-139777384D01*
X92660889Y-139777384D02*
X92756127Y-139729765D01*
X92756127Y-139729765D02*
X92803746Y-139682146D01*
X92803746Y-139682146D02*
X92851365Y-139586908D01*
X92851365Y-139586908D02*
X92851365Y-139491670D01*
X92851365Y-139491670D02*
X92803746Y-139396432D01*
X92803746Y-139396432D02*
X92756127Y-139348813D01*
X92756127Y-139348813D02*
X92660889Y-139301194D01*
X92660889Y-139301194D02*
X92422794Y-139301194D01*
X92422794Y-139301194D02*
X92279937Y-139348813D01*
X91994222Y-139301194D02*
X91422794Y-139301194D01*
X91708508Y-140301194D02*
X91708508Y-139301194D01*
X91089460Y-139777384D02*
X90756127Y-139777384D01*
X90613270Y-140301194D02*
X91089460Y-140301194D01*
X91089460Y-140301194D02*
X91089460Y-139301194D01*
X91089460Y-139301194D02*
X90613270Y-139301194D01*
X90184698Y-140301194D02*
X90184698Y-139301194D01*
X90184698Y-139301194D02*
X89803746Y-139301194D01*
X89803746Y-139301194D02*
X89708508Y-139348813D01*
X89708508Y-139348813D02*
X89660889Y-139396432D01*
X89660889Y-139396432D02*
X89613270Y-139491670D01*
X89613270Y-139491670D02*
X89613270Y-139634527D01*
X89613270Y-139634527D02*
X89660889Y-139729765D01*
X89660889Y-139729765D02*
X89708508Y-139777384D01*
X89708508Y-139777384D02*
X89803746Y-139825003D01*
X89803746Y-139825003D02*
X90184698Y-139825003D01*
D14*
X172232319Y-49864257D02*
X170803748Y-49864257D01*
X172518033Y-50721400D02*
X171518033Y-47721400D01*
X171518033Y-47721400D02*
X170518033Y-50721400D01*
X169518033Y-48721400D02*
X169518033Y-50721400D01*
X169518033Y-49007114D02*
X169375176Y-48864257D01*
X169375176Y-48864257D02*
X169089461Y-48721400D01*
X169089461Y-48721400D02*
X168660890Y-48721400D01*
X168660890Y-48721400D02*
X168375176Y-48864257D01*
X168375176Y-48864257D02*
X168232319Y-49149971D01*
X168232319Y-49149971D02*
X168232319Y-50721400D01*
X167232318Y-48721400D02*
X166089461Y-48721400D01*
X166803747Y-47721400D02*
X166803747Y-50292828D01*
X166803747Y-50292828D02*
X166660890Y-50578543D01*
X166660890Y-50578543D02*
X166375175Y-50721400D01*
X166375175Y-50721400D02*
X166089461Y-50721400D01*
X165089461Y-50721400D02*
X165089461Y-48721400D01*
X165089461Y-47721400D02*
X165232318Y-47864257D01*
X165232318Y-47864257D02*
X165089461Y-48007114D01*
X165089461Y-48007114D02*
X164946604Y-47864257D01*
X164946604Y-47864257D02*
X165089461Y-47721400D01*
X165089461Y-47721400D02*
X165089461Y-48007114D01*
X164089461Y-48721400D02*
X162946604Y-48721400D01*
X163660890Y-47721400D02*
X163660890Y-50292828D01*
X163660890Y-50292828D02*
X163518033Y-50578543D01*
X163518033Y-50578543D02*
X163232318Y-50721400D01*
X163232318Y-50721400D02*
X162946604Y-50721400D01*
X161946604Y-50721400D02*
X161946604Y-47721400D01*
X160660890Y-50721400D02*
X160660890Y-49149971D01*
X160660890Y-49149971D02*
X160803747Y-48864257D01*
X160803747Y-48864257D02*
X161089461Y-48721400D01*
X161089461Y-48721400D02*
X161518032Y-48721400D01*
X161518032Y-48721400D02*
X161803747Y-48864257D01*
X161803747Y-48864257D02*
X161946604Y-49007114D01*
X158089461Y-50578543D02*
X158375175Y-50721400D01*
X158375175Y-50721400D02*
X158946604Y-50721400D01*
X158946604Y-50721400D02*
X159232318Y-50578543D01*
X159232318Y-50578543D02*
X159375175Y-50292828D01*
X159375175Y-50292828D02*
X159375175Y-49149971D01*
X159375175Y-49149971D02*
X159232318Y-48864257D01*
X159232318Y-48864257D02*
X158946604Y-48721400D01*
X158946604Y-48721400D02*
X158375175Y-48721400D01*
X158375175Y-48721400D02*
X158089461Y-48864257D01*
X158089461Y-48864257D02*
X157946604Y-49149971D01*
X157946604Y-49149971D02*
X157946604Y-49435685D01*
X157946604Y-49435685D02*
X159375175Y-49721400D01*
X156803746Y-50578543D02*
X156518032Y-50721400D01*
X156518032Y-50721400D02*
X155946603Y-50721400D01*
X155946603Y-50721400D02*
X155660889Y-50578543D01*
X155660889Y-50578543D02*
X155518032Y-50292828D01*
X155518032Y-50292828D02*
X155518032Y-50149971D01*
X155518032Y-50149971D02*
X155660889Y-49864257D01*
X155660889Y-49864257D02*
X155946603Y-49721400D01*
X155946603Y-49721400D02*
X156375175Y-49721400D01*
X156375175Y-49721400D02*
X156660889Y-49578543D01*
X156660889Y-49578543D02*
X156803746Y-49292828D01*
X156803746Y-49292828D02*
X156803746Y-49149971D01*
X156803746Y-49149971D02*
X156660889Y-48864257D01*
X156660889Y-48864257D02*
X156375175Y-48721400D01*
X156375175Y-48721400D02*
X155946603Y-48721400D01*
X155946603Y-48721400D02*
X155660889Y-48864257D01*
X154232318Y-50721400D02*
X154232318Y-48721400D01*
X154232318Y-47721400D02*
X154375175Y-47864257D01*
X154375175Y-47864257D02*
X154232318Y-48007114D01*
X154232318Y-48007114D02*
X154089461Y-47864257D01*
X154089461Y-47864257D02*
X154232318Y-47721400D01*
X154232318Y-47721400D02*
X154232318Y-48007114D01*
X152946604Y-50578543D02*
X152660890Y-50721400D01*
X152660890Y-50721400D02*
X152089461Y-50721400D01*
X152089461Y-50721400D02*
X151803747Y-50578543D01*
X151803747Y-50578543D02*
X151660890Y-50292828D01*
X151660890Y-50292828D02*
X151660890Y-50149971D01*
X151660890Y-50149971D02*
X151803747Y-49864257D01*
X151803747Y-49864257D02*
X152089461Y-49721400D01*
X152089461Y-49721400D02*
X152518033Y-49721400D01*
X152518033Y-49721400D02*
X152803747Y-49578543D01*
X152803747Y-49578543D02*
X152946604Y-49292828D01*
X152946604Y-49292828D02*
X152946604Y-49149971D01*
X152946604Y-49149971D02*
X152803747Y-48864257D01*
X152803747Y-48864257D02*
X152518033Y-48721400D01*
X152518033Y-48721400D02*
X152089461Y-48721400D01*
X152089461Y-48721400D02*
X151803747Y-48864257D01*
X148089462Y-50721400D02*
X148089462Y-47721400D01*
X148089462Y-47721400D02*
X146946605Y-47721400D01*
X146946605Y-47721400D02*
X146660890Y-47864257D01*
X146660890Y-47864257D02*
X146518033Y-48007114D01*
X146518033Y-48007114D02*
X146375176Y-48292828D01*
X146375176Y-48292828D02*
X146375176Y-48721400D01*
X146375176Y-48721400D02*
X146518033Y-49007114D01*
X146518033Y-49007114D02*
X146660890Y-49149971D01*
X146660890Y-49149971D02*
X146946605Y-49292828D01*
X146946605Y-49292828D02*
X148089462Y-49292828D01*
X143375176Y-50435685D02*
X143518033Y-50578543D01*
X143518033Y-50578543D02*
X143946605Y-50721400D01*
X143946605Y-50721400D02*
X144232319Y-50721400D01*
X144232319Y-50721400D02*
X144660890Y-50578543D01*
X144660890Y-50578543D02*
X144946605Y-50292828D01*
X144946605Y-50292828D02*
X145089462Y-50007114D01*
X145089462Y-50007114D02*
X145232319Y-49435685D01*
X145232319Y-49435685D02*
X145232319Y-49007114D01*
X145232319Y-49007114D02*
X145089462Y-48435685D01*
X145089462Y-48435685D02*
X144946605Y-48149971D01*
X144946605Y-48149971D02*
X144660890Y-47864257D01*
X144660890Y-47864257D02*
X144232319Y-47721400D01*
X144232319Y-47721400D02*
X143946605Y-47721400D01*
X143946605Y-47721400D02*
X143518033Y-47864257D01*
X143518033Y-47864257D02*
X143375176Y-48007114D01*
X141089462Y-49149971D02*
X140660890Y-49292828D01*
X140660890Y-49292828D02*
X140518033Y-49435685D01*
X140518033Y-49435685D02*
X140375176Y-49721400D01*
X140375176Y-49721400D02*
X140375176Y-50149971D01*
X140375176Y-50149971D02*
X140518033Y-50435685D01*
X140518033Y-50435685D02*
X140660890Y-50578543D01*
X140660890Y-50578543D02*
X140946605Y-50721400D01*
X140946605Y-50721400D02*
X142089462Y-50721400D01*
X142089462Y-50721400D02*
X142089462Y-47721400D01*
X142089462Y-47721400D02*
X141089462Y-47721400D01*
X141089462Y-47721400D02*
X140803748Y-47864257D01*
X140803748Y-47864257D02*
X140660890Y-48007114D01*
X140660890Y-48007114D02*
X140518033Y-48292828D01*
X140518033Y-48292828D02*
X140518033Y-48578543D01*
X140518033Y-48578543D02*
X140660890Y-48864257D01*
X140660890Y-48864257D02*
X140803748Y-49007114D01*
X140803748Y-49007114D02*
X141089462Y-49149971D01*
X141089462Y-49149971D02*
X142089462Y-49149971D01*
X136803748Y-50721400D02*
X136803748Y-47721400D01*
X136803748Y-49149971D02*
X135089462Y-49149971D01*
X135089462Y-50721400D02*
X135089462Y-47721400D01*
X132518034Y-50578543D02*
X132803748Y-50721400D01*
X132803748Y-50721400D02*
X133375177Y-50721400D01*
X133375177Y-50721400D02*
X133660891Y-50578543D01*
X133660891Y-50578543D02*
X133803748Y-50292828D01*
X133803748Y-50292828D02*
X133803748Y-49149971D01*
X133803748Y-49149971D02*
X133660891Y-48864257D01*
X133660891Y-48864257D02*
X133375177Y-48721400D01*
X133375177Y-48721400D02*
X132803748Y-48721400D01*
X132803748Y-48721400D02*
X132518034Y-48864257D01*
X132518034Y-48864257D02*
X132375177Y-49149971D01*
X132375177Y-49149971D02*
X132375177Y-49435685D01*
X132375177Y-49435685D02*
X133803748Y-49721400D01*
X129803748Y-50721400D02*
X129803748Y-49149971D01*
X129803748Y-49149971D02*
X129946605Y-48864257D01*
X129946605Y-48864257D02*
X130232319Y-48721400D01*
X130232319Y-48721400D02*
X130803748Y-48721400D01*
X130803748Y-48721400D02*
X131089462Y-48864257D01*
X129803748Y-50578543D02*
X130089462Y-50721400D01*
X130089462Y-50721400D02*
X130803748Y-50721400D01*
X130803748Y-50721400D02*
X131089462Y-50578543D01*
X131089462Y-50578543D02*
X131232319Y-50292828D01*
X131232319Y-50292828D02*
X131232319Y-50007114D01*
X131232319Y-50007114D02*
X131089462Y-49721400D01*
X131089462Y-49721400D02*
X130803748Y-49578543D01*
X130803748Y-49578543D02*
X130089462Y-49578543D01*
X130089462Y-49578543D02*
X129803748Y-49435685D01*
X128803747Y-48721400D02*
X127660890Y-48721400D01*
X128375176Y-47721400D02*
X128375176Y-50292828D01*
X128375176Y-50292828D02*
X128232319Y-50578543D01*
X128232319Y-50578543D02*
X127946604Y-50721400D01*
X127946604Y-50721400D02*
X127660890Y-50721400D01*
X125518033Y-50578543D02*
X125803747Y-50721400D01*
X125803747Y-50721400D02*
X126375176Y-50721400D01*
X126375176Y-50721400D02*
X126660890Y-50578543D01*
X126660890Y-50578543D02*
X126803747Y-50292828D01*
X126803747Y-50292828D02*
X126803747Y-49149971D01*
X126803747Y-49149971D02*
X126660890Y-48864257D01*
X126660890Y-48864257D02*
X126375176Y-48721400D01*
X126375176Y-48721400D02*
X125803747Y-48721400D01*
X125803747Y-48721400D02*
X125518033Y-48864257D01*
X125518033Y-48864257D02*
X125375176Y-49149971D01*
X125375176Y-49149971D02*
X125375176Y-49435685D01*
X125375176Y-49435685D02*
X126803747Y-49721400D01*
X122803747Y-50721400D02*
X122803747Y-47721400D01*
X122803747Y-50578543D02*
X123089461Y-50721400D01*
X123089461Y-50721400D02*
X123660889Y-50721400D01*
X123660889Y-50721400D02*
X123946604Y-50578543D01*
X123946604Y-50578543D02*
X124089461Y-50435685D01*
X124089461Y-50435685D02*
X124232318Y-50149971D01*
X124232318Y-50149971D02*
X124232318Y-49292828D01*
X124232318Y-49292828D02*
X124089461Y-49007114D01*
X124089461Y-49007114D02*
X123946604Y-48864257D01*
X123946604Y-48864257D02*
X123660889Y-48721400D01*
X123660889Y-48721400D02*
X123089461Y-48721400D01*
X123089461Y-48721400D02*
X122803747Y-48864257D01*
X118089461Y-49149971D02*
X117660889Y-49292828D01*
X117660889Y-49292828D02*
X117518032Y-49435685D01*
X117518032Y-49435685D02*
X117375175Y-49721400D01*
X117375175Y-49721400D02*
X117375175Y-50149971D01*
X117375175Y-50149971D02*
X117518032Y-50435685D01*
X117518032Y-50435685D02*
X117660889Y-50578543D01*
X117660889Y-50578543D02*
X117946604Y-50721400D01*
X117946604Y-50721400D02*
X119089461Y-50721400D01*
X119089461Y-50721400D02*
X119089461Y-47721400D01*
X119089461Y-47721400D02*
X118089461Y-47721400D01*
X118089461Y-47721400D02*
X117803747Y-47864257D01*
X117803747Y-47864257D02*
X117660889Y-48007114D01*
X117660889Y-48007114D02*
X117518032Y-48292828D01*
X117518032Y-48292828D02*
X117518032Y-48578543D01*
X117518032Y-48578543D02*
X117660889Y-48864257D01*
X117660889Y-48864257D02*
X117803747Y-49007114D01*
X117803747Y-49007114D02*
X118089461Y-49149971D01*
X118089461Y-49149971D02*
X119089461Y-49149971D01*
X114946604Y-50578543D02*
X115232318Y-50721400D01*
X115232318Y-50721400D02*
X115803747Y-50721400D01*
X115803747Y-50721400D02*
X116089461Y-50578543D01*
X116089461Y-50578543D02*
X116232318Y-50292828D01*
X116232318Y-50292828D02*
X116232318Y-49149971D01*
X116232318Y-49149971D02*
X116089461Y-48864257D01*
X116089461Y-48864257D02*
X115803747Y-48721400D01*
X115803747Y-48721400D02*
X115232318Y-48721400D01*
X115232318Y-48721400D02*
X114946604Y-48864257D01*
X114946604Y-48864257D02*
X114803747Y-49149971D01*
X114803747Y-49149971D02*
X114803747Y-49435685D01*
X114803747Y-49435685D02*
X116232318Y-49721400D01*
X112232318Y-50721400D02*
X112232318Y-47721400D01*
X112232318Y-50578543D02*
X112518032Y-50721400D01*
X112518032Y-50721400D02*
X113089460Y-50721400D01*
X113089460Y-50721400D02*
X113375175Y-50578543D01*
X113375175Y-50578543D02*
X113518032Y-50435685D01*
X113518032Y-50435685D02*
X113660889Y-50149971D01*
X113660889Y-50149971D02*
X113660889Y-49292828D01*
X113660889Y-49292828D02*
X113518032Y-49007114D01*
X113518032Y-49007114D02*
X113375175Y-48864257D01*
X113375175Y-48864257D02*
X113089460Y-48721400D01*
X113089460Y-48721400D02*
X112518032Y-48721400D01*
X112518032Y-48721400D02*
X112232318Y-48864257D01*
X108946603Y-47721400D02*
X107946603Y-50721400D01*
X107946603Y-50721400D02*
X106946603Y-47721400D01*
X105375174Y-47721400D02*
X105089460Y-47721400D01*
X105089460Y-47721400D02*
X104803746Y-47864257D01*
X104803746Y-47864257D02*
X104660889Y-48007114D01*
X104660889Y-48007114D02*
X104518031Y-48292828D01*
X104518031Y-48292828D02*
X104375174Y-48864257D01*
X104375174Y-48864257D02*
X104375174Y-49578543D01*
X104375174Y-49578543D02*
X104518031Y-50149971D01*
X104518031Y-50149971D02*
X104660889Y-50435685D01*
X104660889Y-50435685D02*
X104803746Y-50578543D01*
X104803746Y-50578543D02*
X105089460Y-50721400D01*
X105089460Y-50721400D02*
X105375174Y-50721400D01*
X105375174Y-50721400D02*
X105660889Y-50578543D01*
X105660889Y-50578543D02*
X105803746Y-50435685D01*
X105803746Y-50435685D02*
X105946603Y-50149971D01*
X105946603Y-50149971D02*
X106089460Y-49578543D01*
X106089460Y-49578543D02*
X106089460Y-48864257D01*
X106089460Y-48864257D02*
X105946603Y-48292828D01*
X105946603Y-48292828D02*
X105803746Y-48007114D01*
X105803746Y-48007114D02*
X105660889Y-47864257D01*
X105660889Y-47864257D02*
X105375174Y-47721400D01*
X103089460Y-50435685D02*
X102946603Y-50578543D01*
X102946603Y-50578543D02*
X103089460Y-50721400D01*
X103089460Y-50721400D02*
X103232317Y-50578543D01*
X103232317Y-50578543D02*
X103089460Y-50435685D01*
X103089460Y-50435685D02*
X103089460Y-50721400D01*
X100089460Y-50721400D02*
X101803746Y-50721400D01*
X100946603Y-50721400D02*
X100946603Y-47721400D01*
X100946603Y-47721400D02*
X101232317Y-48149971D01*
X101232317Y-48149971D02*
X101518032Y-48435685D01*
X101518032Y-48435685D02*
X101803746Y-48578543D01*
X149375175Y-55551232D02*
X151089461Y-55551232D01*
X150232318Y-55551232D02*
X150232318Y-52551232D01*
X150232318Y-52551232D02*
X150518032Y-52979803D01*
X150518032Y-52979803D02*
X150803747Y-53265517D01*
X150803747Y-53265517D02*
X151089461Y-53408375D01*
X147518032Y-52551232D02*
X147232318Y-52551232D01*
X147232318Y-52551232D02*
X146946604Y-52694089D01*
X146946604Y-52694089D02*
X146803747Y-52836946D01*
X146803747Y-52836946D02*
X146660889Y-53122660D01*
X146660889Y-53122660D02*
X146518032Y-53694089D01*
X146518032Y-53694089D02*
X146518032Y-54408375D01*
X146518032Y-54408375D02*
X146660889Y-54979803D01*
X146660889Y-54979803D02*
X146803747Y-55265517D01*
X146803747Y-55265517D02*
X146946604Y-55408375D01*
X146946604Y-55408375D02*
X147232318Y-55551232D01*
X147232318Y-55551232D02*
X147518032Y-55551232D01*
X147518032Y-55551232D02*
X147803747Y-55408375D01*
X147803747Y-55408375D02*
X147946604Y-55265517D01*
X147946604Y-55265517D02*
X148089461Y-54979803D01*
X148089461Y-54979803D02*
X148232318Y-54408375D01*
X148232318Y-54408375D02*
X148232318Y-53694089D01*
X148232318Y-53694089D02*
X148089461Y-53122660D01*
X148089461Y-53122660D02*
X147946604Y-52836946D01*
X147946604Y-52836946D02*
X147803747Y-52694089D01*
X147803747Y-52694089D02*
X147518032Y-52551232D01*
X145518032Y-55551232D02*
X143946604Y-53551232D01*
X145518032Y-53551232D02*
X143946604Y-55551232D01*
X141232318Y-55551232D02*
X142946604Y-55551232D01*
X142089461Y-55551232D02*
X142089461Y-52551232D01*
X142089461Y-52551232D02*
X142375175Y-52979803D01*
X142375175Y-52979803D02*
X142660890Y-53265517D01*
X142660890Y-53265517D02*
X142946604Y-53408375D01*
X140232318Y-52551232D02*
X138375175Y-52551232D01*
X138375175Y-52551232D02*
X139375175Y-53694089D01*
X139375175Y-53694089D02*
X138946604Y-53694089D01*
X138946604Y-53694089D02*
X138660890Y-53836946D01*
X138660890Y-53836946D02*
X138518032Y-53979803D01*
X138518032Y-53979803D02*
X138375175Y-54265517D01*
X138375175Y-54265517D02*
X138375175Y-54979803D01*
X138375175Y-54979803D02*
X138518032Y-55265517D01*
X138518032Y-55265517D02*
X138660890Y-55408375D01*
X138660890Y-55408375D02*
X138946604Y-55551232D01*
X138946604Y-55551232D02*
X139803747Y-55551232D01*
X139803747Y-55551232D02*
X140089461Y-55408375D01*
X140089461Y-55408375D02*
X140232318Y-55265517D01*
X135803747Y-55408375D02*
X136089461Y-55551232D01*
X136089461Y-55551232D02*
X136660889Y-55551232D01*
X136660889Y-55551232D02*
X136946604Y-55408375D01*
X136946604Y-55408375D02*
X137089461Y-55265517D01*
X137089461Y-55265517D02*
X137232318Y-54979803D01*
X137232318Y-54979803D02*
X137232318Y-54122660D01*
X137232318Y-54122660D02*
X137089461Y-53836946D01*
X137089461Y-53836946D02*
X136946604Y-53694089D01*
X136946604Y-53694089D02*
X136660889Y-53551232D01*
X136660889Y-53551232D02*
X136089461Y-53551232D01*
X136089461Y-53551232D02*
X135803747Y-53694089D01*
X134518032Y-55551232D02*
X134518032Y-53551232D01*
X134518032Y-53836946D02*
X134375175Y-53694089D01*
X134375175Y-53694089D02*
X134089460Y-53551232D01*
X134089460Y-53551232D02*
X133660889Y-53551232D01*
X133660889Y-53551232D02*
X133375175Y-53694089D01*
X133375175Y-53694089D02*
X133232318Y-53979803D01*
X133232318Y-53979803D02*
X133232318Y-55551232D01*
X133232318Y-53979803D02*
X133089460Y-53694089D01*
X133089460Y-53694089D02*
X132803746Y-53551232D01*
X132803746Y-53551232D02*
X132375175Y-53551232D01*
X132375175Y-53551232D02*
X132089460Y-53694089D01*
X132089460Y-53694089D02*
X131946603Y-53979803D01*
X131946603Y-53979803D02*
X131946603Y-55551232D01*
X128375175Y-52836946D02*
X128232318Y-52694089D01*
X128232318Y-52694089D02*
X127946604Y-52551232D01*
X127946604Y-52551232D02*
X127232318Y-52551232D01*
X127232318Y-52551232D02*
X126946604Y-52694089D01*
X126946604Y-52694089D02*
X126803746Y-52836946D01*
X126803746Y-52836946D02*
X126660889Y-53122660D01*
X126660889Y-53122660D02*
X126660889Y-53408375D01*
X126660889Y-53408375D02*
X126803746Y-53836946D01*
X126803746Y-53836946D02*
X128518032Y-55551232D01*
X128518032Y-55551232D02*
X126660889Y-55551232D01*
X124089461Y-53551232D02*
X124089461Y-55551232D01*
X124803746Y-52408375D02*
X125518032Y-54551232D01*
X125518032Y-54551232D02*
X123660889Y-54551232D01*
X122946603Y-52551232D02*
X121946603Y-55551232D01*
X121946603Y-55551232D02*
X120946603Y-52551232D01*
D13*
X82185162Y-100195879D02*
X82232781Y-100291117D01*
X82232781Y-100291117D02*
X82232781Y-100433974D01*
X82232781Y-100433974D02*
X82185162Y-100576831D01*
X82185162Y-100576831D02*
X82089924Y-100672069D01*
X82089924Y-100672069D02*
X81994686Y-100719688D01*
X81994686Y-100719688D02*
X81804210Y-100767307D01*
X81804210Y-100767307D02*
X81661353Y-100767307D01*
X81661353Y-100767307D02*
X81470877Y-100719688D01*
X81470877Y-100719688D02*
X81375639Y-100672069D01*
X81375639Y-100672069D02*
X81280401Y-100576831D01*
X81280401Y-100576831D02*
X81232781Y-100433974D01*
X81232781Y-100433974D02*
X81232781Y-100338736D01*
X81232781Y-100338736D02*
X81280401Y-100195879D01*
X81280401Y-100195879D02*
X81328020Y-100148260D01*
X81328020Y-100148260D02*
X81661353Y-100148260D01*
X81661353Y-100148260D02*
X81661353Y-100338736D01*
X81232781Y-99719688D02*
X82232781Y-99719688D01*
X82232781Y-99719688D02*
X81232781Y-99148260D01*
X81232781Y-99148260D02*
X82232781Y-99148260D01*
X81232781Y-98672069D02*
X82232781Y-98672069D01*
X82232781Y-98672069D02*
X82232781Y-98433974D01*
X82232781Y-98433974D02*
X82185162Y-98291117D01*
X82185162Y-98291117D02*
X82089924Y-98195879D01*
X82089924Y-98195879D02*
X81994686Y-98148260D01*
X81994686Y-98148260D02*
X81804210Y-98100641D01*
X81804210Y-98100641D02*
X81661353Y-98100641D01*
X81661353Y-98100641D02*
X81470877Y-98148260D01*
X81470877Y-98148260D02*
X81375639Y-98195879D01*
X81375639Y-98195879D02*
X81280401Y-98291117D01*
X81280401Y-98291117D02*
X81232781Y-98433974D01*
X81232781Y-98433974D02*
X81232781Y-98672069D01*
X81613734Y-76195879D02*
X81613734Y-75433975D01*
X81232781Y-75814927D02*
X81994686Y-75814927D01*
X82137543Y-75005403D02*
X82185162Y-74957784D01*
X82185162Y-74957784D02*
X82232781Y-74862546D01*
X82232781Y-74862546D02*
X82232781Y-74624451D01*
X82232781Y-74624451D02*
X82185162Y-74529213D01*
X82185162Y-74529213D02*
X82137543Y-74481594D01*
X82137543Y-74481594D02*
X82042305Y-74433975D01*
X82042305Y-74433975D02*
X81947067Y-74433975D01*
X81947067Y-74433975D02*
X81804210Y-74481594D01*
X81804210Y-74481594D02*
X81232781Y-75053022D01*
X81232781Y-75053022D02*
X81232781Y-74433975D01*
X81899448Y-73576832D02*
X81232781Y-73576832D01*
X82280401Y-73814927D02*
X81566115Y-74053022D01*
X81566115Y-74053022D02*
X81566115Y-73433975D01*
X82232781Y-73195879D02*
X81232781Y-72862546D01*
X81232781Y-72862546D02*
X82232781Y-72529213D01*
D15*
X163732318Y-71483875D02*
X162779937Y-75483875D01*
X162779937Y-75483875D02*
X162018032Y-72626732D01*
X162018032Y-72626732D02*
X161256127Y-75483875D01*
X161256127Y-75483875D02*
X160303747Y-71483875D01*
X158970413Y-74341018D02*
X157065651Y-74341018D01*
X159351365Y-75483875D02*
X158018032Y-71483875D01*
X158018032Y-71483875D02*
X156684698Y-75483875D01*
X153065651Y-75483875D02*
X154398985Y-73579113D01*
X155351366Y-75483875D02*
X155351366Y-71483875D01*
X155351366Y-71483875D02*
X153827556Y-71483875D01*
X153827556Y-71483875D02*
X153446604Y-71674351D01*
X153446604Y-71674351D02*
X153256127Y-71864827D01*
X153256127Y-71864827D02*
X153065651Y-72245779D01*
X153065651Y-72245779D02*
X153065651Y-72817208D01*
X153065651Y-72817208D02*
X153256127Y-73198160D01*
X153256127Y-73198160D02*
X153446604Y-73388637D01*
X153446604Y-73388637D02*
X153827556Y-73579113D01*
X153827556Y-73579113D02*
X155351366Y-73579113D01*
X151351366Y-75483875D02*
X151351366Y-71483875D01*
X151351366Y-71483875D02*
X149065651Y-75483875D01*
X149065651Y-75483875D02*
X149065651Y-71483875D01*
X147160890Y-75483875D02*
X147160890Y-71483875D01*
X145256128Y-75483875D02*
X145256128Y-71483875D01*
X145256128Y-71483875D02*
X142970413Y-75483875D01*
X142970413Y-75483875D02*
X142970413Y-71483875D01*
X138970413Y-71674351D02*
X139351366Y-71483875D01*
X139351366Y-71483875D02*
X139922794Y-71483875D01*
X139922794Y-71483875D02*
X140494223Y-71674351D01*
X140494223Y-71674351D02*
X140875175Y-72055303D01*
X140875175Y-72055303D02*
X141065652Y-72436256D01*
X141065652Y-72436256D02*
X141256128Y-73198160D01*
X141256128Y-73198160D02*
X141256128Y-73769589D01*
X141256128Y-73769589D02*
X141065652Y-74531494D01*
X141065652Y-74531494D02*
X140875175Y-74912446D01*
X140875175Y-74912446D02*
X140494223Y-75293399D01*
X140494223Y-75293399D02*
X139922794Y-75483875D01*
X139922794Y-75483875D02*
X139541842Y-75483875D01*
X139541842Y-75483875D02*
X138970413Y-75293399D01*
X138970413Y-75293399D02*
X138779937Y-75102922D01*
X138779937Y-75102922D02*
X138779937Y-73769589D01*
X138779937Y-73769589D02*
X139541842Y-73769589D01*
X170684699Y-81923651D02*
X170684699Y-77923651D01*
X170684699Y-79828413D02*
X168398984Y-79828413D01*
X168398984Y-81923651D02*
X168398984Y-77923651D01*
X165732318Y-77923651D02*
X164970413Y-77923651D01*
X164970413Y-77923651D02*
X164589461Y-78114127D01*
X164589461Y-78114127D02*
X164208508Y-78495079D01*
X164208508Y-78495079D02*
X164018032Y-79256984D01*
X164018032Y-79256984D02*
X164018032Y-80590317D01*
X164018032Y-80590317D02*
X164208508Y-81352222D01*
X164208508Y-81352222D02*
X164589461Y-81733175D01*
X164589461Y-81733175D02*
X164970413Y-81923651D01*
X164970413Y-81923651D02*
X165732318Y-81923651D01*
X165732318Y-81923651D02*
X166113270Y-81733175D01*
X166113270Y-81733175D02*
X166494223Y-81352222D01*
X166494223Y-81352222D02*
X166684699Y-80590317D01*
X166684699Y-80590317D02*
X166684699Y-79256984D01*
X166684699Y-79256984D02*
X166494223Y-78495079D01*
X166494223Y-78495079D02*
X166113270Y-78114127D01*
X166113270Y-78114127D02*
X165732318Y-77923651D01*
X162875175Y-77923651D02*
X160589461Y-77923651D01*
X161732318Y-81923651D02*
X161732318Y-77923651D01*
X156398985Y-81733175D02*
X155827556Y-81923651D01*
X155827556Y-81923651D02*
X154875175Y-81923651D01*
X154875175Y-81923651D02*
X154494223Y-81733175D01*
X154494223Y-81733175D02*
X154303747Y-81542698D01*
X154303747Y-81542698D02*
X154113270Y-81161746D01*
X154113270Y-81161746D02*
X154113270Y-80780794D01*
X154113270Y-80780794D02*
X154303747Y-80399841D01*
X154303747Y-80399841D02*
X154494223Y-80209365D01*
X154494223Y-80209365D02*
X154875175Y-80018889D01*
X154875175Y-80018889D02*
X155637080Y-79828413D01*
X155637080Y-79828413D02*
X156018032Y-79637936D01*
X156018032Y-79637936D02*
X156208509Y-79447460D01*
X156208509Y-79447460D02*
X156398985Y-79066508D01*
X156398985Y-79066508D02*
X156398985Y-78685555D01*
X156398985Y-78685555D02*
X156208509Y-78304603D01*
X156208509Y-78304603D02*
X156018032Y-78114127D01*
X156018032Y-78114127D02*
X155637080Y-77923651D01*
X155637080Y-77923651D02*
X154684699Y-77923651D01*
X154684699Y-77923651D02*
X154113270Y-78114127D01*
X152398985Y-77923651D02*
X152398985Y-81161746D01*
X152398985Y-81161746D02*
X152208508Y-81542698D01*
X152208508Y-81542698D02*
X152018032Y-81733175D01*
X152018032Y-81733175D02*
X151637080Y-81923651D01*
X151637080Y-81923651D02*
X150875175Y-81923651D01*
X150875175Y-81923651D02*
X150494223Y-81733175D01*
X150494223Y-81733175D02*
X150303746Y-81542698D01*
X150303746Y-81542698D02*
X150113270Y-81161746D01*
X150113270Y-81161746D02*
X150113270Y-77923651D01*
X145922794Y-81923651D02*
X147256128Y-80018889D01*
X148208509Y-81923651D02*
X148208509Y-77923651D01*
X148208509Y-77923651D02*
X146684699Y-77923651D01*
X146684699Y-77923651D02*
X146303747Y-78114127D01*
X146303747Y-78114127D02*
X146113270Y-78304603D01*
X146113270Y-78304603D02*
X145922794Y-78685555D01*
X145922794Y-78685555D02*
X145922794Y-79256984D01*
X145922794Y-79256984D02*
X146113270Y-79637936D01*
X146113270Y-79637936D02*
X146303747Y-79828413D01*
X146303747Y-79828413D02*
X146684699Y-80018889D01*
X146684699Y-80018889D02*
X148208509Y-80018889D01*
X142875175Y-79828413D02*
X144208509Y-79828413D01*
X144208509Y-81923651D02*
X144208509Y-77923651D01*
X144208509Y-77923651D02*
X142303747Y-77923651D01*
X140970414Y-80780794D02*
X139065652Y-80780794D01*
X141351366Y-81923651D02*
X140018033Y-77923651D01*
X140018033Y-77923651D02*
X138684699Y-81923651D01*
X135065652Y-81542698D02*
X135256128Y-81733175D01*
X135256128Y-81733175D02*
X135827557Y-81923651D01*
X135827557Y-81923651D02*
X136208509Y-81923651D01*
X136208509Y-81923651D02*
X136779938Y-81733175D01*
X136779938Y-81733175D02*
X137160890Y-81352222D01*
X137160890Y-81352222D02*
X137351367Y-80971270D01*
X137351367Y-80971270D02*
X137541843Y-80209365D01*
X137541843Y-80209365D02*
X137541843Y-79637936D01*
X137541843Y-79637936D02*
X137351367Y-78876032D01*
X137351367Y-78876032D02*
X137160890Y-78495079D01*
X137160890Y-78495079D02*
X136779938Y-78114127D01*
X136779938Y-78114127D02*
X136208509Y-77923651D01*
X136208509Y-77923651D02*
X135827557Y-77923651D01*
X135827557Y-77923651D02*
X135256128Y-78114127D01*
X135256128Y-78114127D02*
X135065652Y-78304603D01*
X133351367Y-79828413D02*
X132018033Y-79828413D01*
X131446605Y-81923651D02*
X133351367Y-81923651D01*
X133351367Y-81923651D02*
X133351367Y-77923651D01*
X133351367Y-77923651D02*
X131446605Y-77923651D01*
D13*
X126327946Y-77808925D02*
X125185089Y-77808925D01*
X125756518Y-79808925D02*
X125756518Y-77808925D01*
X124518422Y-79808925D02*
X124518422Y-77808925D01*
X123661279Y-79808925D02*
X123661279Y-78761306D01*
X123661279Y-78761306D02*
X123756517Y-78570829D01*
X123756517Y-78570829D02*
X123946993Y-78475591D01*
X123946993Y-78475591D02*
X124232708Y-78475591D01*
X124232708Y-78475591D02*
X124423184Y-78570829D01*
X124423184Y-78570829D02*
X124518422Y-78666067D01*
X121946993Y-79713687D02*
X122137469Y-79808925D01*
X122137469Y-79808925D02*
X122518422Y-79808925D01*
X122518422Y-79808925D02*
X122708898Y-79713687D01*
X122708898Y-79713687D02*
X122804136Y-79523210D01*
X122804136Y-79523210D02*
X122804136Y-78761306D01*
X122804136Y-78761306D02*
X122708898Y-78570829D01*
X122708898Y-78570829D02*
X122518422Y-78475591D01*
X122518422Y-78475591D02*
X122137469Y-78475591D01*
X122137469Y-78475591D02*
X121946993Y-78570829D01*
X121946993Y-78570829D02*
X121851755Y-78761306D01*
X121851755Y-78761306D02*
X121851755Y-78951782D01*
X121851755Y-78951782D02*
X122804136Y-79142258D01*
X120994612Y-79808925D02*
X120994612Y-78475591D01*
X120994612Y-78856544D02*
X120899374Y-78666067D01*
X120899374Y-78666067D02*
X120804136Y-78570829D01*
X120804136Y-78570829D02*
X120613660Y-78475591D01*
X120613660Y-78475591D02*
X120423183Y-78475591D01*
X119756517Y-79808925D02*
X119756517Y-78475591D01*
X119756517Y-78666067D02*
X119661279Y-78570829D01*
X119661279Y-78570829D02*
X119470803Y-78475591D01*
X119470803Y-78475591D02*
X119185088Y-78475591D01*
X119185088Y-78475591D02*
X118994612Y-78570829D01*
X118994612Y-78570829D02*
X118899374Y-78761306D01*
X118899374Y-78761306D02*
X118899374Y-79808925D01*
X118899374Y-78761306D02*
X118804136Y-78570829D01*
X118804136Y-78570829D02*
X118613660Y-78475591D01*
X118613660Y-78475591D02*
X118327946Y-78475591D01*
X118327946Y-78475591D02*
X118137469Y-78570829D01*
X118137469Y-78570829D02*
X118042231Y-78761306D01*
X118042231Y-78761306D02*
X118042231Y-79808925D01*
X117089850Y-79808925D02*
X117089850Y-78475591D01*
X117089850Y-77808925D02*
X117185088Y-77904163D01*
X117185088Y-77904163D02*
X117089850Y-77999401D01*
X117089850Y-77999401D02*
X116994612Y-77904163D01*
X116994612Y-77904163D02*
X117089850Y-77808925D01*
X117089850Y-77808925D02*
X117089850Y-77999401D01*
X116232707Y-79713687D02*
X116042231Y-79808925D01*
X116042231Y-79808925D02*
X115661279Y-79808925D01*
X115661279Y-79808925D02*
X115470802Y-79713687D01*
X115470802Y-79713687D02*
X115375564Y-79523210D01*
X115375564Y-79523210D02*
X115375564Y-79427972D01*
X115375564Y-79427972D02*
X115470802Y-79237496D01*
X115470802Y-79237496D02*
X115661279Y-79142258D01*
X115661279Y-79142258D02*
X115946993Y-79142258D01*
X115946993Y-79142258D02*
X116137469Y-79047020D01*
X116137469Y-79047020D02*
X116232707Y-78856544D01*
X116232707Y-78856544D02*
X116232707Y-78761306D01*
X116232707Y-78761306D02*
X116137469Y-78570829D01*
X116137469Y-78570829D02*
X115946993Y-78475591D01*
X115946993Y-78475591D02*
X115661279Y-78475591D01*
X115661279Y-78475591D02*
X115470802Y-78570829D01*
X114804135Y-78475591D02*
X114042231Y-78475591D01*
X114518421Y-77808925D02*
X114518421Y-79523210D01*
X114518421Y-79523210D02*
X114423183Y-79713687D01*
X114423183Y-79713687D02*
X114232707Y-79808925D01*
X114232707Y-79808925D02*
X114042231Y-79808925D01*
X113089850Y-79808925D02*
X113280326Y-79713687D01*
X113280326Y-79713687D02*
X113375564Y-79618448D01*
X113375564Y-79618448D02*
X113470802Y-79427972D01*
X113470802Y-79427972D02*
X113470802Y-78856544D01*
X113470802Y-78856544D02*
X113375564Y-78666067D01*
X113375564Y-78666067D02*
X113280326Y-78570829D01*
X113280326Y-78570829D02*
X113089850Y-78475591D01*
X113089850Y-78475591D02*
X112804135Y-78475591D01*
X112804135Y-78475591D02*
X112613659Y-78570829D01*
X112613659Y-78570829D02*
X112518421Y-78666067D01*
X112518421Y-78666067D02*
X112423183Y-78856544D01*
X112423183Y-78856544D02*
X112423183Y-79427972D01*
X112423183Y-79427972D02*
X112518421Y-79618448D01*
X112518421Y-79618448D02*
X112613659Y-79713687D01*
X112613659Y-79713687D02*
X112804135Y-79808925D01*
X112804135Y-79808925D02*
X113089850Y-79808925D01*
X111566040Y-79808925D02*
X111566040Y-78475591D01*
X111566040Y-78856544D02*
X111470802Y-78666067D01*
X111470802Y-78666067D02*
X111375564Y-78570829D01*
X111375564Y-78570829D02*
X111185088Y-78475591D01*
X111185088Y-78475591D02*
X110994611Y-78475591D01*
X121756516Y-81028813D02*
X121089850Y-83028813D01*
X121089850Y-83028813D02*
X120423183Y-81028813D01*
X212160889Y-140301194D02*
X212160889Y-139301194D01*
X212160889Y-139301194D02*
X211589461Y-140301194D01*
X211589461Y-140301194D02*
X211589461Y-139301194D01*
X210922794Y-139301194D02*
X210732318Y-139301194D01*
X210732318Y-139301194D02*
X210637080Y-139348813D01*
X210637080Y-139348813D02*
X210541842Y-139444051D01*
X210541842Y-139444051D02*
X210494223Y-139634527D01*
X210494223Y-139634527D02*
X210494223Y-139967860D01*
X210494223Y-139967860D02*
X210541842Y-140158336D01*
X210541842Y-140158336D02*
X210637080Y-140253575D01*
X210637080Y-140253575D02*
X210732318Y-140301194D01*
X210732318Y-140301194D02*
X210922794Y-140301194D01*
X210922794Y-140301194D02*
X211018032Y-140253575D01*
X211018032Y-140253575D02*
X211113270Y-140158336D01*
X211113270Y-140158336D02*
X211160889Y-139967860D01*
X211160889Y-139967860D02*
X211160889Y-139634527D01*
X211160889Y-139634527D02*
X211113270Y-139444051D01*
X211113270Y-139444051D02*
X211018032Y-139348813D01*
X211018032Y-139348813D02*
X210922794Y-139301194D01*
X209351365Y-140253575D02*
X209208508Y-140301194D01*
X209208508Y-140301194D02*
X208970413Y-140301194D01*
X208970413Y-140301194D02*
X208875175Y-140253575D01*
X208875175Y-140253575D02*
X208827556Y-140205955D01*
X208827556Y-140205955D02*
X208779937Y-140110717D01*
X208779937Y-140110717D02*
X208779937Y-140015479D01*
X208779937Y-140015479D02*
X208827556Y-139920241D01*
X208827556Y-139920241D02*
X208875175Y-139872622D01*
X208875175Y-139872622D02*
X208970413Y-139825003D01*
X208970413Y-139825003D02*
X209160889Y-139777384D01*
X209160889Y-139777384D02*
X209256127Y-139729765D01*
X209256127Y-139729765D02*
X209303746Y-139682146D01*
X209303746Y-139682146D02*
X209351365Y-139586908D01*
X209351365Y-139586908D02*
X209351365Y-139491670D01*
X209351365Y-139491670D02*
X209303746Y-139396432D01*
X209303746Y-139396432D02*
X209256127Y-139348813D01*
X209256127Y-139348813D02*
X209160889Y-139301194D01*
X209160889Y-139301194D02*
X208922794Y-139301194D01*
X208922794Y-139301194D02*
X208779937Y-139348813D01*
X208494222Y-139301194D02*
X207922794Y-139301194D01*
X208208508Y-140301194D02*
X208208508Y-139301194D01*
X207589460Y-139777384D02*
X207256127Y-139777384D01*
X207113270Y-140301194D02*
X207589460Y-140301194D01*
X207589460Y-140301194D02*
X207589460Y-139301194D01*
X207589460Y-139301194D02*
X207113270Y-139301194D01*
X206684698Y-140301194D02*
X206684698Y-139301194D01*
X206684698Y-139301194D02*
X206303746Y-139301194D01*
X206303746Y-139301194D02*
X206208508Y-139348813D01*
X206208508Y-139348813D02*
X206160889Y-139396432D01*
X206160889Y-139396432D02*
X206113270Y-139491670D01*
X206113270Y-139491670D02*
X206113270Y-139634527D01*
X206113270Y-139634527D02*
X206160889Y-139729765D01*
X206160889Y-139729765D02*
X206208508Y-139777384D01*
X206208508Y-139777384D02*
X206303746Y-139825003D01*
X206303746Y-139825003D02*
X206684698Y-139825003D01*
%LPC*%
D16*
X151100001Y-86933975D03*
X76600000Y-86933975D03*
X78100000Y-41933975D03*
X224100002Y-41933975D03*
X224100002Y-131933975D03*
X80850001Y-111933975D03*
D17*
X76600001Y-99433975D03*
D16*
X78100000Y-131933975D03*
D17*
X76600001Y-74433975D03*
D16*
X80850001Y-61933975D03*
D18*
X121100001Y-86933975D03*
%LPD*%
M02*
