G04 #@! TF.GenerationSoftware,KiCad,Pcbnew,8.0.8*
G04 #@! TF.CreationDate,2025-02-12T04:52:48-07:00*
G04 #@! TF.ProjectId,MK1 PCB BUILD PLATE,4d4b3120-5043-4422-9042-55494c442050,rev?*
G04 #@! TF.SameCoordinates,Original*
G04 #@! TF.FileFunction,Copper,L2,Bot*
G04 #@! TF.FilePolarity,Positive*
%FSLAX46Y46*%
G04 Gerber Fmt 4.6, Leading zero omitted, Abs format (unit mm)*
G04 Created by KiCad (PCBNEW 8.0.8) date 2025-02-12 04:52:48*
%MOMM*%
%LPD*%
G01*
G04 APERTURE LIST*
G04 #@! TA.AperFunction,ComponentPad*
%ADD10C,6.400000*%
G04 #@! TD*
G04 #@! TA.AperFunction,ComponentPad*
%ADD11C,5.000000*%
G04 #@! TD*
G04 APERTURE END LIST*
D10*
X76600001Y-99433975D03*
X76600001Y-74433975D03*
D11*
X121100001Y-86933975D03*
G04 #@! TA.AperFunction,Conductor*
G36*
X217454158Y-35954160D02*
G01*
X217496475Y-36000020D01*
X217518122Y-36040517D01*
X217518123Y-36040519D01*
X217527425Y-36062976D01*
X217577241Y-36227199D01*
X217581983Y-36251040D01*
X217599404Y-36427913D01*
X217600001Y-36440067D01*
X217600001Y-50335446D01*
X217588383Y-50387851D01*
X217438128Y-50710072D01*
X217303716Y-51079358D01*
X217303716Y-51079360D01*
X217202000Y-51458959D01*
X217201999Y-51458966D01*
X217133755Y-51845976D01*
X217099502Y-52237475D01*
X217099501Y-52237476D01*
X217099501Y-52433972D01*
X217099500Y-52509851D01*
X217099501Y-52509864D01*
X217099501Y-121507712D01*
X217099523Y-121508066D01*
X217099523Y-121630471D01*
X217133773Y-122021965D01*
X217133773Y-122021969D01*
X217202011Y-122408976D01*
X217202015Y-122408993D01*
X217303722Y-122788583D01*
X217438131Y-123157874D01*
X217460608Y-123206075D01*
X217588384Y-123480094D01*
X217600001Y-123532495D01*
X217600001Y-138161809D01*
X217580316Y-138228848D01*
X217528406Y-138274191D01*
X217176762Y-138438167D01*
X216836425Y-138634665D01*
X216514498Y-138860088D01*
X216213453Y-139112702D01*
X216097673Y-139228489D01*
X212878472Y-142447690D01*
X212834752Y-142491409D01*
X212828831Y-142496955D01*
X212690518Y-142618253D01*
X212677650Y-142628127D01*
X212528074Y-142728072D01*
X212514028Y-142736181D01*
X212352684Y-142815750D01*
X212337700Y-142821957D01*
X212167363Y-142879783D01*
X212151697Y-142883982D01*
X211975249Y-142919085D01*
X211959168Y-142921202D01*
X211776068Y-142933209D01*
X211767954Y-142933475D01*
X90501923Y-142933475D01*
X90501907Y-142933474D01*
X90432485Y-142933474D01*
X90424377Y-142933209D01*
X90240805Y-142921180D01*
X90224723Y-142919062D01*
X90048301Y-142883969D01*
X90032640Y-142879773D01*
X89862292Y-142821947D01*
X89847306Y-142815739D01*
X89685983Y-142736180D01*
X89671936Y-142728070D01*
X89522362Y-142628123D01*
X89509494Y-142618248D01*
X89370998Y-142496784D01*
X89365092Y-142491253D01*
X89321542Y-142447700D01*
X89321540Y-142447699D01*
X89316576Y-142442734D01*
X89316548Y-142442709D01*
X86179144Y-139305304D01*
X86179128Y-139305285D01*
X86161827Y-139287984D01*
X86161751Y-139287845D01*
X85986581Y-139112680D01*
X85986570Y-139112670D01*
X85986562Y-139112662D01*
X85685507Y-138860054D01*
X85363611Y-138634666D01*
X85363594Y-138634654D01*
X85363580Y-138634645D01*
X85350627Y-138627167D01*
X85023237Y-138438154D01*
X84713760Y-138293847D01*
X84671597Y-138274187D01*
X84619158Y-138228015D01*
X84600001Y-138161804D01*
X84600001Y-123723023D01*
X84616615Y-123661022D01*
X84632276Y-123633896D01*
X84632276Y-123633894D01*
X84632284Y-123633882D01*
X84800507Y-123265524D01*
X84932954Y-122882843D01*
X85028426Y-122489305D01*
X85086057Y-122088474D01*
X85105325Y-121683980D01*
X85086057Y-121279486D01*
X85028426Y-120878655D01*
X84932954Y-120485117D01*
X84931603Y-120481214D01*
X84800512Y-120102451D01*
X84800507Y-120102436D01*
X84632284Y-119734078D01*
X84616614Y-119706936D01*
X84600001Y-119644936D01*
X84600001Y-86933972D01*
X147850001Y-86933972D01*
X147850001Y-86933977D01*
X147869052Y-87285359D01*
X147925985Y-87632634D01*
X147925987Y-87632642D01*
X148020124Y-87971694D01*
X148020126Y-87971701D01*
X148150376Y-88298605D01*
X148150381Y-88298615D01*
X148315215Y-88609525D01*
X148512699Y-88900791D01*
X148740516Y-89168998D01*
X148995996Y-89411002D01*
X149276143Y-89623964D01*
X149276151Y-89623969D01*
X149276163Y-89623977D01*
X149577669Y-89805386D01*
X149577674Y-89805389D01*
X149577678Y-89805390D01*
X149577682Y-89805393D01*
X149897041Y-89953144D01*
X149897052Y-89953149D01*
X150230534Y-90065512D01*
X150574210Y-90141161D01*
X150924050Y-90179209D01*
X150924055Y-90179209D01*
X151275947Y-90179209D01*
X151275952Y-90179209D01*
X151625792Y-90141161D01*
X151969468Y-90065512D01*
X152302950Y-89953149D01*
X152622328Y-89805389D01*
X152809049Y-89693042D01*
X152923838Y-89623977D01*
X152923842Y-89623974D01*
X152923859Y-89623964D01*
X153204006Y-89411002D01*
X153459486Y-89168998D01*
X153687303Y-88900791D01*
X153884787Y-88609525D01*
X154049621Y-88298615D01*
X154179874Y-87971705D01*
X154274018Y-87632629D01*
X154330949Y-87285362D01*
X154350001Y-86933975D01*
X154330949Y-86582588D01*
X154274018Y-86235321D01*
X154179874Y-85896245D01*
X154049621Y-85569335D01*
X153884787Y-85258425D01*
X153687303Y-84967159D01*
X153459486Y-84698952D01*
X153204006Y-84456948D01*
X153203999Y-84456942D01*
X153203996Y-84456940D01*
X153110964Y-84386219D01*
X152923859Y-84243986D01*
X152923853Y-84243982D01*
X152923838Y-84243972D01*
X152622332Y-84062563D01*
X152622319Y-84062556D01*
X152302960Y-83914805D01*
X152302955Y-83914803D01*
X152302950Y-83914801D01*
X152140395Y-83860030D01*
X151969467Y-83802437D01*
X151625790Y-83726788D01*
X151275953Y-83688741D01*
X151275952Y-83688741D01*
X150924050Y-83688741D01*
X150924048Y-83688741D01*
X150574211Y-83726788D01*
X150230534Y-83802437D01*
X149972746Y-83889296D01*
X149897052Y-83914801D01*
X149897049Y-83914802D01*
X149897041Y-83914805D01*
X149577682Y-84062556D01*
X149577669Y-84062563D01*
X149276163Y-84243972D01*
X149276147Y-84243983D01*
X148996005Y-84456940D01*
X148995996Y-84456948D01*
X148740513Y-84698954D01*
X148740508Y-84698960D01*
X148512698Y-84967159D01*
X148315215Y-85258424D01*
X148150385Y-85569326D01*
X148150376Y-85569344D01*
X148020126Y-85896248D01*
X148020124Y-85896255D01*
X147925987Y-86235307D01*
X147925985Y-86235315D01*
X147869052Y-86582590D01*
X147850001Y-86933972D01*
X84600001Y-86933972D01*
X84600001Y-54223023D01*
X84616615Y-54161022D01*
X84632276Y-54133896D01*
X84632276Y-54133894D01*
X84632284Y-54133882D01*
X84800507Y-53765524D01*
X84932954Y-53382843D01*
X85028426Y-52989305D01*
X85086057Y-52588474D01*
X85105325Y-52183980D01*
X85086057Y-51779486D01*
X85028426Y-51378655D01*
X84932954Y-50985117D01*
X84931603Y-50981214D01*
X84800512Y-50602451D01*
X84800507Y-50602436D01*
X84632284Y-50234078D01*
X84616614Y-50206936D01*
X84600001Y-50144936D01*
X84600001Y-36440067D01*
X84600598Y-36427913D01*
X84618019Y-36251031D01*
X84622758Y-36227207D01*
X84672578Y-36062969D01*
X84681874Y-36040528D01*
X84703527Y-36000018D01*
X84752488Y-35950177D01*
X84812883Y-35934475D01*
X217387119Y-35934475D01*
X217454158Y-35954160D01*
G37*
G04 #@! TD.AperFunction*
M02*
