G04 #@! TF.GenerationSoftware,KiCad,Pcbnew,8.0.8*
G04 #@! TF.CreationDate,2025-02-12T04:52:48-07:00*
G04 #@! TF.ProjectId,MK1 PCB BUILD PLATE,4d4b3120-5043-4422-9042-55494c442050,rev?*
G04 #@! TF.SameCoordinates,Original*
G04 #@! TF.FileFunction,Copper,L1,Top*
G04 #@! TF.FilePolarity,Positive*
%FSLAX46Y46*%
G04 Gerber Fmt 4.6, Leading zero omitted, Abs format (unit mm)*
G04 Created by KiCad (PCBNEW 8.0.8) date 2025-02-12 04:52:48*
%MOMM*%
%LPD*%
G01*
G04 APERTURE LIST*
G04 #@! TA.AperFunction,ComponentPad*
%ADD10C,6.400000*%
G04 #@! TD*
G04 #@! TA.AperFunction,ComponentPad*
%ADD11C,5.000000*%
G04 #@! TD*
G04 #@! TA.AperFunction,Conductor*
%ADD12C,0.900000*%
G04 #@! TD*
G04 #@! TA.AperFunction,Conductor*
%ADD13C,2.000000*%
G04 #@! TD*
G04 #@! TA.AperFunction,Conductor*
%ADD14C,1.000000*%
G04 #@! TD*
G04 APERTURE END LIST*
D10*
X76600001Y-99433975D03*
X76600001Y-74433975D03*
D11*
X121100001Y-86933975D03*
D12*
X184790001Y-88493975D02*
X184790001Y-105523975D01*
X158525001Y-38058975D02*
X158525001Y-65558975D01*
X181950001Y-85373975D02*
X181950001Y-68343975D01*
X189050001Y-68343975D02*
X189050001Y-85373975D01*
X113790001Y-88493975D02*
X113790001Y-105523975D01*
X178775001Y-65558975D02*
X178775001Y-38058975D01*
X190470001Y-85373975D02*
X190470001Y-68343975D01*
X89630001Y-140393975D02*
X89630001Y-108323975D01*
X84100001Y-68933975D02*
X84100001Y-69933975D01*
X155870001Y-140793975D02*
X155870001Y-108323975D01*
X172010001Y-68343975D02*
X172010001Y-85373975D01*
X99590001Y-85373975D02*
X99590001Y-68343975D01*
X215225001Y-38058975D02*
X215225001Y-65558975D01*
X145030001Y-88493975D02*
X145030001Y-105523975D01*
X142190001Y-88493975D02*
X142190001Y-105523975D01*
X118050001Y-105523975D02*
X118050001Y-90043975D01*
X137930001Y-108323975D02*
X137930001Y-140793975D01*
X206930001Y-108323975D02*
X206930001Y-140793975D01*
X177690001Y-68343975D02*
X177690001Y-85373975D01*
X106690001Y-68343975D02*
X106690001Y-85373975D01*
X122310001Y-83073975D02*
X122310001Y-68343975D01*
X103850001Y-68343975D02*
X103850001Y-85373975D01*
X119470001Y-90043975D02*
X119470001Y-105523975D01*
X120725001Y-38058975D02*
X120725001Y-65558975D01*
X206090001Y-68343975D02*
X206090001Y-85373975D01*
X212450001Y-108323975D02*
X212450001Y-140493975D01*
X147590001Y-140793975D02*
X147590001Y-108323975D01*
X172430001Y-140793975D02*
X172430001Y-108323975D01*
X157175001Y-65558975D02*
X157175001Y-38058975D01*
X103850001Y-105523975D02*
X103850001Y-88493975D01*
X162770001Y-108323975D02*
X162770001Y-140793975D01*
X200410001Y-68343975D02*
X200410001Y-85373975D01*
X213190001Y-85373975D02*
X213190001Y-68343975D01*
X190470001Y-88493975D02*
X190470001Y-105523975D01*
X108110001Y-88493975D02*
X108110001Y-105523975D01*
X135090001Y-68343975D02*
X135090001Y-85373975D01*
X174850001Y-68343975D02*
X174850001Y-85373975D01*
X156390001Y-88493975D02*
X156390001Y-105523975D01*
X95150001Y-140793975D02*
X95150001Y-108323975D01*
X97775001Y-65558975D02*
X97775001Y-38058975D01*
X200030001Y-140793975D02*
X200030001Y-108323975D01*
X98170001Y-105523975D02*
X98170001Y-88493975D01*
X116630001Y-85373975D02*
X116630001Y-68343975D01*
X130175001Y-65558975D02*
X130175001Y-38058975D01*
X179110001Y-88493975D02*
X179110001Y-105523975D01*
X145030001Y-85373975D02*
X145030001Y-68343975D01*
X86810001Y-68343975D02*
X86810001Y-85373975D01*
X96425001Y-38058975D02*
X96425001Y-65558975D01*
X89675001Y-65558975D02*
X89675001Y-38058975D01*
X162070001Y-85373975D02*
X162070001Y-68343975D01*
X106190001Y-140793975D02*
X106190001Y-108323975D01*
X207125001Y-38058975D02*
X207125001Y-65558975D01*
X186230001Y-140793975D02*
X186230001Y-108323975D01*
X86300001Y-66233975D02*
X83500001Y-66233975D01*
X153110001Y-140793975D02*
X153110001Y-108323975D01*
X169325001Y-38058975D02*
X169325001Y-65558975D01*
X109530001Y-105523975D02*
X109530001Y-88493975D01*
X186210001Y-68343975D02*
X186210001Y-85373975D01*
X116630001Y-88493975D02*
X116630001Y-105523975D01*
X184175001Y-65558975D02*
X184175001Y-38058975D01*
X142190001Y-85373975D02*
X142190001Y-68343975D01*
X91070001Y-85373975D02*
X91070001Y-68343975D01*
X122750001Y-140793975D02*
X122750001Y-108323975D01*
X137930001Y-68343975D02*
X137930001Y-85373975D01*
X169670001Y-140793975D02*
X169670001Y-108323975D01*
X203075001Y-65558975D02*
X203075001Y-38058975D01*
X186875001Y-65558975D02*
X186875001Y-38058975D01*
X216000001Y-66233975D02*
X216100001Y-66233975D01*
X179110001Y-85373975D02*
X179110001Y-68343975D01*
X121370001Y-108323975D02*
X121370001Y-140793975D01*
X174725001Y-38058975D02*
X174725001Y-65558975D01*
X187610001Y-108323975D02*
X187610001Y-140793975D01*
X88325001Y-38058975D02*
X88325001Y-65558975D01*
X165530001Y-108323975D02*
X165530001Y-140793975D01*
X139350001Y-85373975D02*
X139350001Y-68343975D01*
X143610001Y-105523975D02*
X143610001Y-88493975D01*
X204170001Y-108323975D02*
X204170001Y-140793975D01*
X162070001Y-88493975D02*
X162070001Y-105523975D01*
X208930001Y-105523975D02*
X208930001Y-88493975D01*
X188225001Y-38058975D02*
X188225001Y-65558975D01*
X180530001Y-68343975D02*
X180530001Y-85373975D01*
X102430001Y-85373975D02*
X102430001Y-68343975D01*
X139350001Y-88493975D02*
X139350001Y-105523975D01*
X88230001Y-85373975D02*
X88230001Y-68343975D01*
X153550001Y-90993975D02*
X153550001Y-105523975D01*
X136550001Y-140793975D02*
X136550001Y-108323975D01*
X194510001Y-140793975D02*
X194510001Y-108323975D01*
X116675001Y-65558975D02*
X116675001Y-38058975D01*
X201830001Y-88493975D02*
X201830001Y-105523975D01*
X100475001Y-65558975D02*
X100475001Y-38058975D01*
X180530001Y-105523975D02*
X180530001Y-88493975D01*
X101010001Y-68343975D02*
X101010001Y-85373975D01*
X160650001Y-105523975D02*
X160650001Y-88493975D01*
X209825001Y-38058975D02*
X209825001Y-65558975D01*
X205550001Y-140793975D02*
X205550001Y-108323975D01*
X184850001Y-108323975D02*
X184850001Y-140793975D01*
X176570001Y-108323975D02*
X176570001Y-140793975D01*
X143450001Y-108323975D02*
X143450001Y-140793975D01*
X204425001Y-38058975D02*
X204425001Y-65558975D01*
X91010001Y-108323975D02*
X91010001Y-140393975D01*
X88250001Y-108323975D02*
X88250001Y-137643975D01*
X102430001Y-88493975D02*
X102430001Y-105523975D01*
X193310001Y-88493975D02*
X193310001Y-105523975D01*
X182825001Y-38058975D02*
X182825001Y-65558975D01*
X130830001Y-85373975D02*
X130830001Y-68343975D01*
X207510001Y-85373975D02*
X207510001Y-68343975D01*
X99590001Y-88493975D02*
X99590001Y-105523975D01*
X127990001Y-85373975D02*
X127990001Y-68343975D01*
X172010001Y-105523975D02*
X172010001Y-88493975D01*
X202790001Y-140793975D02*
X202790001Y-108323975D01*
X124130001Y-108323975D02*
X124130001Y-140793975D01*
X113790001Y-85373975D02*
X113790001Y-68343975D01*
X147725001Y-38058975D02*
X147725001Y-65558975D01*
X99125001Y-38058975D02*
X99125001Y-65558975D01*
X180710001Y-140793975D02*
X180710001Y-108323975D01*
X172025001Y-38058975D02*
X172025001Y-65558975D01*
X190370001Y-108323975D02*
X190370001Y-140793975D01*
X147870001Y-84923975D02*
X147870001Y-68343975D01*
X166910001Y-140793975D02*
X166910001Y-108323975D01*
X214650001Y-67633975D02*
X214650001Y-106233975D01*
X196325001Y-38058975D02*
X196325001Y-65558975D01*
X204670001Y-88493975D02*
X204670001Y-105523975D01*
X185525001Y-38058975D02*
X185525001Y-65558975D01*
X173810001Y-108323975D02*
X173810001Y-140793975D01*
X95075001Y-65558975D02*
X95075001Y-38058975D01*
X112625001Y-38058975D02*
X112625001Y-65558975D01*
X95330001Y-68343975D02*
X95330001Y-85373975D01*
X96750001Y-85373975D02*
X96750001Y-68343975D01*
X128270001Y-140793975D02*
X128270001Y-108323975D01*
X157250001Y-108323975D02*
X157250001Y-140793975D01*
X169170001Y-105523975D02*
X169170001Y-88493975D01*
X193130001Y-108323975D02*
X193130001Y-140793975D01*
X173430001Y-85373975D02*
X173430001Y-68343975D01*
X200375001Y-65558975D02*
X200375001Y-38058975D01*
X134225001Y-38058975D02*
X134225001Y-65558975D01*
X131525001Y-38058975D02*
X131525001Y-65558975D01*
X145025001Y-38058975D02*
X145025001Y-65558975D01*
X154490001Y-108323975D02*
X154490001Y-140793975D01*
X92490001Y-68343975D02*
X92490001Y-85373975D01*
X213190001Y-88493975D02*
X213190001Y-105523975D01*
X122310001Y-90793975D02*
X122310001Y-105523975D01*
X112370001Y-68343975D02*
X112370001Y-85373975D01*
X164150001Y-140793975D02*
X164150001Y-108323975D01*
X187630001Y-85373975D02*
X187630001Y-68343975D01*
X180125001Y-38058975D02*
X180125001Y-65558975D01*
X184790001Y-85373975D02*
X184790001Y-68343975D01*
X86870001Y-137643975D02*
X86870001Y-108323975D01*
X146450001Y-105523975D02*
X146450001Y-88943975D01*
X86975001Y-65558975D02*
X86975001Y-38058975D01*
X201725001Y-38058975D02*
X201725001Y-65558975D01*
X193625001Y-38058975D02*
X193625001Y-65558975D01*
X126570001Y-68343975D02*
X126570001Y-85373975D01*
X146210001Y-108323975D02*
X146210001Y-140793975D01*
X139310001Y-140793975D02*
X139310001Y-108323975D01*
X192275001Y-65558975D02*
X192275001Y-38058975D01*
X176270001Y-85373975D02*
X176270001Y-68343975D01*
X216100001Y-107633975D02*
X215900001Y-107633975D01*
X89650001Y-68343975D02*
X89650001Y-85373975D01*
X157810001Y-105523975D02*
X157810001Y-88493975D01*
X194730001Y-105523975D02*
X194730001Y-88493975D01*
X101010001Y-105523975D02*
X101010001Y-88493975D01*
D13*
X84100001Y-91933975D02*
X76600001Y-99433975D01*
D12*
X167750001Y-85373975D02*
X167750001Y-68343975D01*
X166330001Y-68343975D02*
X166330001Y-85373975D01*
X171050001Y-108323975D02*
X171050001Y-140793975D01*
X137930001Y-105523975D02*
X137930001Y-88493975D01*
X197675001Y-65558975D02*
X197675001Y-38058975D01*
X132875001Y-65558975D02*
X132875001Y-38058975D01*
X142070001Y-140793975D02*
X142070001Y-108323975D01*
X112370001Y-105523975D02*
X112370001Y-88493975D01*
X91070001Y-88493975D02*
X91070001Y-105523975D01*
X191890001Y-105523975D02*
X191890001Y-88493975D01*
X107225001Y-38058975D02*
X107225001Y-65558975D01*
X174850001Y-105523975D02*
X174850001Y-88493975D01*
X168290001Y-108323975D02*
X168290001Y-140793975D01*
X133670001Y-88493975D02*
X133670001Y-105523975D01*
X213900001Y-106233975D02*
X214650001Y-106233975D01*
X154475001Y-65558975D02*
X154475001Y-38058975D01*
X97910001Y-140793975D02*
X97910001Y-108323975D01*
X96750001Y-88493975D02*
X96750001Y-105523975D01*
X189575001Y-65558975D02*
X189575001Y-38058975D01*
X190925001Y-38058975D02*
X190925001Y-65558975D01*
X154970001Y-105523975D02*
X154970001Y-88493975D01*
X176270001Y-88493975D02*
X176270001Y-105523975D01*
X115210001Y-68343975D02*
X115210001Y-85373975D01*
X173375001Y-65558975D02*
X173375001Y-38058975D01*
X177690001Y-105523975D02*
X177690001Y-88493975D01*
X194730001Y-68343975D02*
X194730001Y-85373975D01*
X102050001Y-108323975D02*
X102050001Y-140793975D01*
X213900001Y-67633975D02*
X214650001Y-67633975D01*
X157810001Y-68343975D02*
X157810001Y-85373975D01*
X119990001Y-140793975D02*
X119990001Y-108323975D01*
X203250001Y-105523975D02*
X203250001Y-88493975D01*
X108575001Y-65558975D02*
X108575001Y-38058975D01*
X105270001Y-88493975D02*
X105270001Y-105523975D01*
X150710001Y-82623975D02*
X150710001Y-68343975D01*
X119375001Y-65558975D02*
X119375001Y-38058975D01*
X215210001Y-108323975D02*
X215210001Y-137743975D01*
X200410001Y-105523975D02*
X200410001Y-88493975D01*
X118025001Y-38058975D02*
X118025001Y-65558975D01*
X129410001Y-68343975D02*
X129410001Y-85373975D01*
X135575001Y-65558975D02*
X135575001Y-38058975D01*
X183370001Y-105523975D02*
X183370001Y-88493975D01*
X208930001Y-68343975D02*
X208930001Y-85373975D01*
X132250001Y-68343975D02*
X132250001Y-85373975D01*
X151730001Y-108323975D02*
X151730001Y-140793975D01*
X136925001Y-38058975D02*
X136925001Y-65558975D01*
X111275001Y-65558975D02*
X111275001Y-38058975D01*
X209690001Y-108323975D02*
X209690001Y-140793975D01*
X101825001Y-38058975D02*
X101825001Y-65558975D01*
X208475001Y-65558975D02*
X208475001Y-38058975D01*
X125150001Y-84973975D02*
X125150001Y-68343975D01*
D13*
X83500001Y-66233975D02*
X76600001Y-73133975D01*
D12*
X129650001Y-108323975D02*
X129650001Y-140793975D01*
X201410001Y-108323975D02*
X201410001Y-140793975D01*
X127990001Y-88493975D02*
X127990001Y-105523975D01*
X216100001Y-107633975D02*
X216100001Y-66233975D01*
X166625001Y-38058975D02*
X166625001Y-65558975D01*
X115210001Y-105523975D02*
X115210001Y-88493975D01*
X173430001Y-88493975D02*
X173430001Y-105523975D01*
X115325001Y-38058975D02*
X115325001Y-65558975D01*
X150350001Y-140793975D02*
X150350001Y-108323975D01*
X167750001Y-88493975D02*
X167750001Y-105523975D01*
X85400001Y-67633975D02*
X84100001Y-68933975D01*
X212525001Y-38058975D02*
X212525001Y-65558975D01*
X123730001Y-68343975D02*
X123730001Y-84973975D01*
X198650001Y-108323975D02*
X198650001Y-140793975D01*
X197570001Y-105523975D02*
X197570001Y-88493975D01*
X161390001Y-140793975D02*
X161390001Y-108323975D01*
X99290001Y-108323975D02*
X99290001Y-140793975D01*
X95330001Y-105523975D02*
X95330001Y-88493975D01*
X127475001Y-65558975D02*
X127475001Y-38058975D01*
X206090001Y-105523975D02*
X206090001Y-88493975D01*
X118050001Y-68343975D02*
X118050001Y-83823975D01*
X197570001Y-68343975D02*
X197570001Y-85373975D01*
X152130001Y-105523975D02*
X152130001Y-90993975D01*
X213830001Y-137743975D02*
X213830001Y-108323975D01*
X92490001Y-105523975D02*
X92490001Y-88493975D01*
X175190001Y-140793975D02*
X175190001Y-108323975D01*
X118610001Y-108323975D02*
X118610001Y-140793975D01*
X86100001Y-67633975D02*
X85400001Y-67633975D01*
X126890001Y-108323975D02*
X126890001Y-140793975D01*
X205775001Y-65558975D02*
X205775001Y-38058975D01*
X163490001Y-105523975D02*
X163490001Y-88493975D01*
X166330001Y-105523975D02*
X166330001Y-88493975D01*
X194975001Y-65558975D02*
X194975001Y-38058975D01*
X215900001Y-66233975D02*
X216000001Y-66233975D01*
X136510001Y-85373975D02*
X136510001Y-68343975D01*
X211175001Y-65558975D02*
X211175001Y-38058975D01*
X93910001Y-88493975D02*
X93910001Y-105523975D01*
X140770001Y-105523975D02*
X140770001Y-88493975D01*
X117230001Y-140793975D02*
X117230001Y-108323975D01*
X211770001Y-105523975D02*
X211770001Y-88493975D01*
X113090001Y-108323975D02*
X113090001Y-140793975D01*
X140770001Y-68343975D02*
X140770001Y-85373975D01*
X88230001Y-88493975D02*
X88230001Y-105523975D01*
X158630001Y-140793975D02*
X158630001Y-108323975D01*
X103175001Y-65558975D02*
X103175001Y-38058975D01*
X149075001Y-65558975D02*
X149075001Y-38058975D01*
X181950001Y-88493975D02*
X181950001Y-105523975D01*
X149290001Y-68343975D02*
X149290001Y-82623975D01*
X110950001Y-88493975D02*
X110950001Y-105523975D01*
X146450001Y-68343975D02*
X146450001Y-84923975D01*
X167975001Y-65558975D02*
X167975001Y-38058975D01*
X196150001Y-88493975D02*
X196150001Y-105523975D01*
X106690001Y-105523975D02*
X106690001Y-88493975D01*
X160650001Y-68343975D02*
X160650001Y-85373975D01*
X114470001Y-140793975D02*
X114470001Y-108323975D01*
X96530001Y-108323975D02*
X96530001Y-140793975D01*
D14*
X86100001Y-107633975D02*
X86100001Y-106233975D01*
D12*
X132250001Y-105523975D02*
X132250001Y-88493975D01*
X207510001Y-88493975D02*
X207510001Y-105523975D01*
X122075001Y-65558975D02*
X122075001Y-38058975D01*
X133790001Y-140793975D02*
X133790001Y-108323975D01*
X159875001Y-65558975D02*
X159875001Y-38058975D01*
X131030001Y-140793975D02*
X131030001Y-108323975D01*
X93770001Y-108323975D02*
X93770001Y-140793975D01*
X98170001Y-68343975D02*
X98170001Y-85373975D01*
X126125001Y-38058975D02*
X126125001Y-65558975D01*
X132410001Y-108323975D02*
X132410001Y-140793975D01*
X124775001Y-65558975D02*
X124775001Y-38058975D01*
X159230001Y-85373975D02*
X159230001Y-68343975D01*
X165275001Y-65558975D02*
X165275001Y-38058975D01*
X86180001Y-107633975D02*
X86100001Y-107633975D01*
X150710001Y-91243975D02*
X150710001Y-105523975D01*
X113975001Y-65558975D02*
X113975001Y-38058975D01*
X163490001Y-68343975D02*
X163490001Y-85373975D01*
X213875001Y-65558975D02*
X213875001Y-38058975D01*
X163925001Y-38058975D02*
X163925001Y-65558975D01*
X198990001Y-85373975D02*
X198990001Y-68343975D01*
X186210001Y-105523975D02*
X186210001Y-88493975D01*
X160010001Y-108323975D02*
X160010001Y-140793975D01*
X183470001Y-140793975D02*
X183470001Y-108323975D01*
X119470001Y-83823975D02*
X119470001Y-68343975D01*
X201830001Y-85373975D02*
X201830001Y-68343975D01*
X177950001Y-140793975D02*
X177950001Y-108323975D01*
X161225001Y-38058975D02*
X161225001Y-65558975D01*
X170675001Y-65558975D02*
X170675001Y-38058975D01*
X191890001Y-68343975D02*
X191890001Y-85373975D01*
X135090001Y-105523975D02*
X135090001Y-88493975D01*
X148970001Y-108323975D02*
X148970001Y-140793975D01*
X108950001Y-140793975D02*
X108950001Y-108323975D01*
X140690001Y-108323975D02*
X140690001Y-140793975D01*
X179330001Y-108323975D02*
X179330001Y-140793975D01*
X211770001Y-68343975D02*
X211770001Y-85373975D01*
X142325001Y-38058975D02*
X142325001Y-65558975D01*
X204670001Y-85373975D02*
X204670001Y-68343975D01*
X129410001Y-105523975D02*
X129410001Y-88493975D01*
X110950001Y-85373975D02*
X110950001Y-68343975D01*
X197270001Y-140793975D02*
X197270001Y-108323975D01*
X210350001Y-85373975D02*
X210350001Y-68343975D01*
X189050001Y-105523975D02*
X189050001Y-88493975D01*
X154970001Y-68343975D02*
X154970001Y-85373975D01*
X107570001Y-108323975D02*
X107570001Y-140793975D01*
X203250001Y-68343975D02*
X203250001Y-85373975D01*
X130830001Y-88493975D02*
X130830001Y-105523975D01*
X187630001Y-88493975D02*
X187630001Y-105523975D01*
X115850001Y-108323975D02*
X115850001Y-140793975D01*
X92375001Y-65558975D02*
X92375001Y-38058975D01*
X136510001Y-88493975D02*
X136510001Y-105523975D01*
X110330001Y-108323975D02*
X110330001Y-140793975D01*
X155825001Y-38058975D02*
X155825001Y-65558975D01*
X162575001Y-65558975D02*
X162575001Y-38058975D01*
X150425001Y-38058975D02*
X150425001Y-65558975D01*
X108110001Y-85373975D02*
X108110001Y-68343975D01*
X191750001Y-140793975D02*
X191750001Y-108323975D01*
X198990001Y-88493975D02*
X198990001Y-105523975D01*
X89650001Y-105523975D02*
X89650001Y-88493975D01*
X120890001Y-68343975D02*
X120890001Y-83073975D01*
X105875001Y-65558975D02*
X105875001Y-38058975D01*
X125150001Y-88893975D02*
X125150001Y-105523975D01*
X159230001Y-88493975D02*
X159230001Y-105523975D01*
X133670001Y-85373975D02*
X133670001Y-68343975D01*
D13*
X84100001Y-91933975D02*
X84100001Y-69933975D01*
D12*
X164910001Y-85373975D02*
X164910001Y-68343975D01*
X140975001Y-65558975D02*
X140975001Y-38058975D01*
X182090001Y-108323975D02*
X182090001Y-140793975D01*
X91025001Y-38058975D02*
X91025001Y-65558975D01*
X149290001Y-105523975D02*
X149290001Y-91243975D01*
X105270001Y-85373975D02*
X105270001Y-68343975D01*
X170590001Y-85373975D02*
X170590001Y-68343975D01*
X100670001Y-140793975D02*
X100670001Y-108323975D01*
X86810001Y-105523975D02*
X86810001Y-88493975D01*
X152130001Y-68343975D02*
X152130001Y-82873975D01*
X135170001Y-108323975D02*
X135170001Y-140793975D01*
X170590001Y-88493975D02*
X170590001Y-105523975D01*
X111710001Y-140793975D02*
X111710001Y-108323975D01*
X164910001Y-88493975D02*
X164910001Y-105523975D01*
X188990001Y-140793975D02*
X188990001Y-108323975D01*
X151775001Y-65558975D02*
X151775001Y-38058975D01*
X104525001Y-38058975D02*
X104525001Y-65558975D01*
X126570001Y-105523975D02*
X126570001Y-88493975D01*
X153125001Y-38058975D02*
X153125001Y-65558975D01*
X125510001Y-140793975D02*
X125510001Y-108323975D01*
X156390001Y-85373975D02*
X156390001Y-68343975D01*
X153550001Y-82873975D02*
X153550001Y-68343975D01*
X123425001Y-38058975D02*
X123425001Y-65558975D01*
X211070001Y-140493975D02*
X211070001Y-108323975D01*
X177425001Y-38058975D02*
X177425001Y-65558975D01*
X147870001Y-88943975D02*
X147870001Y-105523975D01*
X109530001Y-68343975D02*
X109530001Y-85373975D01*
X104810001Y-108323975D02*
X104810001Y-140793975D01*
X139625001Y-38058975D02*
X139625001Y-65558975D01*
X76600001Y-73133975D02*
X76600001Y-74433975D01*
X183370001Y-68343975D02*
X183370001Y-85373975D01*
X123730001Y-105523975D02*
X123730001Y-88893975D01*
X138275001Y-65558975D02*
X138275001Y-38058975D01*
X144830001Y-140793975D02*
X144830001Y-108323975D01*
X146375001Y-65558975D02*
X146375001Y-38058975D01*
X196150001Y-85373975D02*
X196150001Y-68343975D01*
X143675001Y-65558975D02*
X143675001Y-38058975D01*
X93725001Y-38058975D02*
X93725001Y-65558975D01*
X92390001Y-140793975D02*
X92390001Y-108323975D01*
X128825001Y-38058975D02*
X128825001Y-65558975D01*
X169170001Y-68343975D02*
X169170001Y-85373975D01*
X208310001Y-140793975D02*
X208310001Y-108323975D01*
X143610001Y-68343975D02*
X143610001Y-85373975D01*
X195890001Y-108323975D02*
X195890001Y-140793975D01*
X120890001Y-105523975D02*
X120890001Y-90793975D01*
X176075001Y-65558975D02*
X176075001Y-38058975D01*
X93910001Y-85373975D02*
X93910001Y-68343975D01*
X199025001Y-38058975D02*
X199025001Y-65558975D01*
X109925001Y-38058975D02*
X109925001Y-65558975D01*
X103430001Y-140793975D02*
X103430001Y-108323975D01*
X181475001Y-65558975D02*
X181475001Y-38058975D01*
X210350001Y-88493975D02*
X210350001Y-105523975D01*
X193310001Y-85373975D02*
X193310001Y-68343975D01*
X151100001Y-66233975D02*
G75*
G03*
X151774975Y-65558975I-1J674975D01*
G01*
X99980001Y-107633975D02*
G75*
G03*
X99289975Y-108323975I-1J-690025D01*
G01*
X141650001Y-37383975D02*
G75*
G02*
X142325025Y-38058975I-1J-675025D01*
G01*
X145030001Y-105523975D02*
G75*
G03*
X145740001Y-106233999I709999J-25D01*
G01*
X116630001Y-68343975D02*
G75*
G02*
X117340001Y-67634001I709999J-25D01*
G01*
X115325001Y-65558975D02*
G75*
G03*
X116000001Y-66233999I674999J-25D01*
G01*
X156500001Y-66233975D02*
G75*
G03*
X157174975Y-65558975I-1J674975D01*
G01*
X100670001Y-108323975D02*
G75*
G03*
X99980001Y-107633999I-690001J-25D01*
G01*
X105270001Y-68343975D02*
G75*
G02*
X105980001Y-67634001I709999J-25D01*
G01*
X170360001Y-141483975D02*
G75*
G02*
X169670025Y-140793975I-1J689975D01*
G01*
X186200001Y-66233975D02*
G75*
G03*
X186874975Y-65558975I-1J674975D01*
G01*
X165275001Y-38058975D02*
G75*
G02*
X165950001Y-37384001I674999J-25D01*
G01*
X125450001Y-37383975D02*
G75*
G02*
X126125025Y-38058975I-1J-675025D01*
G01*
X198280001Y-86083975D02*
G75*
G03*
X198989975Y-85373975I-1J709975D01*
G01*
X150425001Y-65558975D02*
G75*
G03*
X151100001Y-66233999I674999J-25D01*
G01*
X211850001Y-37383975D02*
G75*
G02*
X212525025Y-38058975I-1J-675025D01*
G01*
X128700001Y-67633975D02*
G75*
G02*
X129410025Y-68343975I-1J-710025D01*
G01*
X122060001Y-107633975D02*
G75*
G03*
X121369975Y-108323975I-1J-690025D01*
G01*
X122075001Y-38058975D02*
G75*
G02*
X122750001Y-37384001I674999J-25D01*
G01*
X89650001Y-85373975D02*
G75*
G03*
X90360001Y-86083999I709999J-25D01*
G01*
X130830001Y-68343975D02*
G75*
G02*
X131540001Y-67634001I709999J-25D01*
G01*
X137220001Y-106233975D02*
G75*
G03*
X137929975Y-105523975I-1J709975D01*
G01*
X148970001Y-140793975D02*
G75*
G02*
X148280001Y-141484001I-690001J-25D01*
G01*
X172720001Y-87783975D02*
G75*
G02*
X173430025Y-88493975I-1J-710025D01*
G01*
X138275001Y-38058975D02*
G75*
G02*
X138950001Y-37384001I674999J-25D01*
G01*
X209000001Y-141483975D02*
G75*
G02*
X208310025Y-140793975I-1J689975D01*
G01*
X164150001Y-108323975D02*
G75*
G03*
X163460001Y-107633999I-690001J-25D01*
G01*
X130120001Y-86083975D02*
G75*
G03*
X130829975Y-85373975I-1J709975D01*
G01*
X201120001Y-87783975D02*
G75*
G02*
X201830025Y-88493975I-1J-710025D01*
G01*
X108110001Y-105523975D02*
G75*
G03*
X108820001Y-106233999I709999J-25D01*
G01*
X118700001Y-66233975D02*
G75*
G03*
X119374975Y-65558975I-1J674975D01*
G01*
X193310001Y-105523975D02*
G75*
G03*
X194020001Y-106233999I709999J-25D01*
G01*
X93770001Y-140793975D02*
G75*
G02*
X93080001Y-141484001I-690001J-25D01*
G01*
X204170001Y-140793975D02*
G75*
G02*
X203480001Y-141484001I-690001J-25D01*
G01*
X171050001Y-140793975D02*
G75*
G02*
X170360001Y-141484001I-690001J-25D01*
G01*
X97775001Y-38058975D02*
G75*
G02*
X98450001Y-37384001I674999J-25D01*
G01*
X208310001Y-108323975D02*
G75*
G03*
X207620001Y-107633999I-690001J-25D01*
G01*
X194020001Y-67633975D02*
G75*
G02*
X194730025Y-68343975I-1J-710025D01*
G01*
X117350001Y-37383975D02*
G75*
G02*
X118025025Y-38058975I-1J-675025D01*
G01*
X144140001Y-107633975D02*
G75*
G03*
X143449975Y-108323975I-1J-690025D01*
G01*
X124100001Y-66233975D02*
G75*
G03*
X124774975Y-65558975I-1J674975D01*
G01*
X202100001Y-107633975D02*
G75*
G03*
X201409975Y-108323975I-1J-690025D01*
G01*
X87520001Y-86083975D02*
G75*
G03*
X88229975Y-85373975I-1J709975D01*
G01*
X152130001Y-90993975D02*
G75*
G02*
X152840001Y-90284001I709999J-25D01*
G01*
X183370001Y-85373975D02*
G75*
G03*
X184080001Y-86083999I709999J-25D01*
G01*
X115160001Y-141483975D02*
G75*
G02*
X114470025Y-140793975I-1J689975D01*
G01*
X188340001Y-106233975D02*
G75*
G03*
X189049975Y-105523975I-1J709975D01*
G01*
X127580001Y-107633975D02*
G75*
G03*
X126889975Y-108323975I-1J-690025D01*
G01*
X109530001Y-88493975D02*
G75*
G02*
X110240001Y-87784001I709999J-25D01*
G01*
X88940001Y-107633975D02*
G75*
G03*
X88249975Y-108323975I-1J-690025D01*
G01*
X151775001Y-38058975D02*
G75*
G02*
X152450001Y-37384001I674999J-25D01*
G01*
X140300001Y-66233975D02*
G75*
G03*
X140974975Y-65558975I-1J674975D01*
G01*
X178775001Y-38058975D02*
G75*
G02*
X179450001Y-37384001I674999J-25D01*
G01*
X103850001Y-88493975D02*
G75*
G02*
X104560001Y-87784001I709999J-25D01*
G01*
X167750001Y-105523975D02*
G75*
G03*
X168460001Y-106233999I709999J-25D01*
G01*
X101360001Y-141483975D02*
G75*
G02*
X100670025Y-140793975I-1J689975D01*
G01*
X198350001Y-37383975D02*
G75*
G02*
X199025025Y-38058975I-1J-675025D01*
G01*
X200375001Y-38058975D02*
G75*
G02*
X201050001Y-37384001I674999J-25D01*
G01*
X168290001Y-140793975D02*
G75*
G02*
X167600001Y-141484001I-690001J-25D01*
G01*
X187630001Y-105523975D02*
G75*
G03*
X188340001Y-106233999I709999J-25D01*
G01*
X107225001Y-65558975D02*
G75*
G03*
X107900001Y-66233999I674999J-25D01*
G01*
X155680001Y-87783975D02*
G75*
G02*
X156390025Y-88493975I-1J-710025D01*
G01*
X132875001Y-38058975D02*
G75*
G02*
X133550001Y-37384001I674999J-25D01*
G01*
X115920001Y-87783975D02*
G75*
G02*
X116630025Y-88493975I-1J-710025D01*
G01*
X101010001Y-85373975D02*
G75*
G03*
X101720001Y-86083999I709999J-25D01*
G01*
X195890001Y-140793975D02*
G75*
G02*
X195200001Y-141484001I-690001J-25D01*
G01*
X175400001Y-66233975D02*
G75*
G03*
X176074975Y-65558975I-1J674975D01*
G01*
X184160001Y-141483975D02*
G75*
G02*
X183470025Y-140793975I-1J689975D01*
G01*
X138640001Y-86083975D02*
G75*
G03*
X139349975Y-85373975I-1J709975D01*
G01*
X161225001Y-65558975D02*
G75*
G03*
X161900001Y-66233999I674999J-25D01*
G01*
X122750001Y-108323975D02*
G75*
G03*
X122060001Y-107633999I-690001J-25D01*
G01*
X105980001Y-67633975D02*
G75*
G02*
X106690025Y-68343975I-1J-710025D01*
G01*
X196860001Y-67633975D02*
G75*
G02*
X197570025Y-68343975I-1J-710025D01*
G01*
X213190001Y-68343975D02*
G75*
G02*
X213900001Y-67634001I709999J-25D01*
G01*
X183500001Y-66233975D02*
G75*
G03*
X184174975Y-65558975I-1J674975D01*
G01*
X131720001Y-141483975D02*
G75*
G02*
X131030025Y-140793975I-1J689975D01*
G01*
X167600001Y-141483975D02*
G75*
G02*
X166910025Y-140793975I-1J689975D01*
G01*
X173810001Y-140793975D02*
G75*
G02*
X173120001Y-141484001I-690001J-25D01*
G01*
X105270001Y-105523975D02*
G75*
G03*
X105980001Y-106233999I709999J-25D01*
G01*
X111660001Y-67633975D02*
G75*
G02*
X112370025Y-68343975I-1J-710025D01*
G01*
X95750001Y-37383975D02*
G75*
G02*
X96425025Y-38058975I-1J-675025D01*
G01*
X89000001Y-66233975D02*
G75*
G03*
X89674975Y-65558975I-1J674975D01*
G01*
X126200001Y-141483975D02*
G75*
G02*
X125510025Y-140793975I-1J689975D01*
G01*
X132410001Y-140793975D02*
G75*
G02*
X131720001Y-141484001I-690001J-25D01*
G01*
X189680001Y-141483975D02*
G75*
G02*
X188990025Y-140793975I-1J689975D01*
G01*
X213200001Y-66233975D02*
G75*
G03*
X213874975Y-65558975I-1J674975D01*
G01*
X169880001Y-86083975D02*
G75*
G03*
X170589975Y-85373975I-1J709975D01*
G01*
X91025001Y-65558975D02*
G75*
G03*
X91700001Y-66233999I674999J-25D01*
G01*
X190470001Y-105523975D02*
G75*
G03*
X191180001Y-106233999I709999J-25D01*
G01*
X89675001Y-38058975D02*
G75*
G02*
X90350001Y-37384001I674999J-25D01*
G01*
X91070001Y-68343975D02*
G75*
G02*
X91780001Y-67634001I709999J-25D01*
G01*
X164910001Y-68343975D02*
G75*
G02*
X165620001Y-67634001I709999J-25D01*
G01*
X103850001Y-37383975D02*
G75*
G02*
X104525025Y-38058975I-1J-675025D01*
G01*
X205100001Y-66233975D02*
G75*
G03*
X205774975Y-65558975I-1J674975D01*
G01*
X99590001Y-68343975D02*
G75*
G02*
X100300001Y-67634001I709999J-25D01*
G01*
X173430001Y-68343975D02*
G75*
G02*
X174140001Y-67634001I709999J-25D01*
G01*
X138950001Y-37383975D02*
G75*
G02*
X139625025Y-38058975I-1J-675025D01*
G01*
X95840001Y-141483975D02*
G75*
G02*
X95150025Y-140793975I-1J689975D01*
G01*
X172025001Y-65558975D02*
G75*
G03*
X172700001Y-66233999I674999J-25D01*
G01*
X97460001Y-106233975D02*
G75*
G03*
X98169975Y-105523975I-1J709975D01*
G01*
X109250001Y-37383975D02*
G75*
G02*
X109925025Y-38058975I-1J-675025D01*
G01*
X127990001Y-68343975D02*
G75*
G02*
X128700001Y-67634001I709999J-25D01*
G01*
X167750001Y-68343975D02*
G75*
G02*
X168460001Y-67634001I709999J-25D01*
G01*
X133670001Y-105523975D02*
G75*
G03*
X134380001Y-106233999I709999J-25D01*
G01*
X117340001Y-67633975D02*
G75*
G02*
X118050025Y-68343975I-1J-710025D01*
G01*
X97100001Y-66233975D02*
G75*
G03*
X97774975Y-65558975I-1J674975D01*
G01*
X86100001Y-106233975D02*
G75*
G03*
X86809975Y-105523975I-1J709975D01*
G01*
X185500001Y-106233975D02*
G75*
G03*
X186209975Y-105523975I-1J709975D01*
G01*
X125860001Y-106233975D02*
G75*
G03*
X126569975Y-105523975I-1J709975D01*
G01*
X140690001Y-140793975D02*
G75*
G02*
X140000001Y-141484001I-690001J-25D01*
G01*
X142325001Y-65558975D02*
G75*
G03*
X143000001Y-66233999I674999J-25D01*
G01*
X195200001Y-141483975D02*
G75*
G02*
X194510025Y-140793975I-1J689975D01*
G01*
X100300001Y-106233975D02*
G75*
G03*
X101009975Y-105523975I-1J709975D01*
G01*
X116540001Y-107633975D02*
G75*
G03*
X115849975Y-108323975I-1J-690025D01*
G01*
X131525001Y-65558975D02*
G75*
G03*
X132200001Y-66233999I674999J-25D01*
G01*
X146450001Y-88943975D02*
G75*
G02*
X147160001Y-88234001I709999J-25D01*
G01*
X211070001Y-108323975D02*
G75*
G03*
X210380001Y-107633999I-690001J-25D01*
G01*
X177425001Y-65558975D02*
G75*
G03*
X178100001Y-66233999I674999J-25D01*
G01*
X101720001Y-86083975D02*
G75*
G03*
X102429975Y-85373975I-1J709975D01*
G01*
X123440001Y-141483975D02*
G75*
G02*
X122750025Y-140793975I-1J689975D01*
G01*
X87650001Y-37383975D02*
G75*
G02*
X88325025Y-38058975I-1J-675025D01*
G01*
X159940001Y-67633975D02*
G75*
G02*
X160650025Y-68343975I-1J-710025D01*
G01*
X98880001Y-87783975D02*
G75*
G02*
X99590025Y-88493975I-1J-710025D01*
G01*
X146210001Y-140793975D02*
G75*
G02*
X145520001Y-141484001I-690001J-25D01*
G01*
X160700001Y-107633975D02*
G75*
G03*
X160009975Y-108323975I-1J-690025D01*
G01*
X106690001Y-85373975D02*
G75*
G03*
X107400001Y-86083999I709999J-25D01*
G01*
X179330001Y-140793975D02*
G75*
G02*
X178640001Y-141484001I-690001J-25D01*
G01*
X123730001Y-84973975D02*
G75*
G03*
X124440001Y-85683999I709999J-25D01*
G01*
X191890001Y-85373975D02*
G75*
G03*
X192600001Y-86083999I709999J-25D01*
G01*
X173430001Y-105523975D02*
G75*
G03*
X174140001Y-106233999I709999J-25D01*
G01*
X95150001Y-108323975D02*
G75*
G03*
X94460001Y-107633999I-690001J-25D01*
G01*
X142190001Y-68343975D02*
G75*
G02*
X142900001Y-67634001I709999J-25D01*
G01*
X91780001Y-106233975D02*
G75*
G03*
X92489975Y-105523975I-1J709975D01*
G01*
X150000001Y-83333975D02*
G75*
G03*
X150709975Y-82623975I-1J709975D01*
G01*
X105980001Y-106233975D02*
G75*
G03*
X106689975Y-105523975I-1J709975D01*
G01*
X198280001Y-87783975D02*
G75*
G02*
X198990025Y-88493975I-1J-710025D01*
G01*
X149660001Y-107633975D02*
G75*
G03*
X148969975Y-108323975I-1J-690025D01*
G01*
X161900001Y-66233975D02*
G75*
G03*
X162574975Y-65558975I-1J674975D01*
G01*
X174725001Y-65558975D02*
G75*
G03*
X175400001Y-66233999I674999J-25D01*
G01*
X157100001Y-67633975D02*
G75*
G02*
X157810025Y-68343975I-1J-710025D01*
G01*
X151420001Y-106233975D02*
G75*
G03*
X152129975Y-105523975I-1J709975D01*
G01*
X96040001Y-87783975D02*
G75*
G02*
X96750025Y-88493975I-1J-710025D01*
G01*
X191180001Y-106233975D02*
G75*
G03*
X191889975Y-105523975I-1J709975D01*
G01*
X195650001Y-37383975D02*
G75*
G02*
X196325025Y-38058975I-1J-675025D01*
G01*
X159230001Y-68343975D02*
G75*
G02*
X159940001Y-67634001I709999J-25D01*
G01*
X121400001Y-66233975D02*
G75*
G03*
X122074975Y-65558975I-1J674975D01*
G01*
X170590001Y-105523975D02*
G75*
G03*
X171300001Y-106233999I709999J-25D01*
G01*
X119300001Y-107633975D02*
G75*
G03*
X118609975Y-108323975I-1J-690025D01*
G01*
X213830001Y-108323975D02*
G75*
G03*
X213140001Y-107633999I-690001J-25D01*
G01*
X177950001Y-108323975D02*
G75*
G03*
X177260001Y-107633999I-690001J-25D01*
G01*
X146450001Y-84923975D02*
G75*
G03*
X147160001Y-85633999I709999J-25D01*
G01*
X111020001Y-107633975D02*
G75*
G03*
X110329975Y-108323975I-1J-690025D01*
G01*
X208220001Y-106233975D02*
G75*
G03*
X208929975Y-105523975I-1J709975D01*
G01*
X203960001Y-86083975D02*
G75*
G03*
X204669975Y-85373975I-1J709975D01*
G01*
X181400001Y-141483975D02*
G75*
G02*
X180710025Y-140793975I-1J689975D01*
G01*
X88325001Y-65558975D02*
G75*
G03*
X89000001Y-66233999I674999J-25D01*
G01*
X108260001Y-107633975D02*
G75*
G03*
X107569975Y-108323975I-1J-690025D01*
G01*
X166220001Y-107633975D02*
G75*
G03*
X165529975Y-108323975I-1J-690025D01*
G01*
X133550001Y-37383975D02*
G75*
G02*
X134225025Y-38058975I-1J-675025D01*
G01*
X145700001Y-66233975D02*
G75*
G03*
X146374975Y-65558975I-1J674975D01*
G01*
X145025001Y-65558975D02*
G75*
G03*
X145700001Y-66233999I674999J-25D01*
G01*
X139350001Y-68343975D02*
G75*
G02*
X140060001Y-67634001I709999J-25D01*
G01*
X106550001Y-37383975D02*
G75*
G02*
X107225025Y-38058975I-1J-675025D01*
G01*
X97910001Y-108323975D02*
G75*
G03*
X97220001Y-107633999I-690001J-25D01*
G01*
X135860001Y-107633975D02*
G75*
G03*
X135169975Y-108323975I-1J-690025D01*
G01*
X158520001Y-86083975D02*
G75*
G03*
X159229975Y-85373975I-1J709975D01*
G01*
X186230001Y-108323975D02*
G75*
G03*
X185540001Y-107633999I-690001J-25D01*
G01*
X120050001Y-37383975D02*
G75*
G02*
X120725025Y-38058975I-1J-675025D01*
G01*
X108575001Y-38058975D02*
G75*
G02*
X109250001Y-37384001I674999J-25D01*
G01*
X105875001Y-38058975D02*
G75*
G02*
X106550001Y-37384001I674999J-25D01*
G01*
X209640001Y-86083975D02*
G75*
G03*
X210349975Y-85373975I-1J709975D01*
G01*
X102050001Y-140793975D02*
G75*
G02*
X101360001Y-141484001I-690001J-25D01*
G01*
X127280001Y-86083975D02*
G75*
G03*
X127989975Y-85373975I-1J709975D01*
G01*
X183370001Y-88493975D02*
G75*
G02*
X184080001Y-87784001I709999J-25D01*
G01*
X182825001Y-65558975D02*
G75*
G03*
X183500001Y-66233999I674999J-25D01*
G01*
X120890001Y-90793975D02*
G75*
G02*
X121600001Y-90084001I709999J-25D01*
G01*
X211770001Y-88493975D02*
G75*
G02*
X212480001Y-87784001I709999J-25D01*
G01*
X119470001Y-68343975D02*
G75*
G02*
X120180001Y-67634001I709999J-25D01*
G01*
X157810001Y-85373975D02*
G75*
G03*
X158520001Y-86083999I709999J-25D01*
G01*
X187550001Y-37383975D02*
G75*
G02*
X188225025Y-38058975I-1J-675025D01*
G01*
X195440001Y-86083975D02*
G75*
G03*
X196149975Y-85373975I-1J709975D01*
G01*
X140770001Y-88493975D02*
G75*
G02*
X141480001Y-87784001I709999J-25D01*
G01*
X204670001Y-105523975D02*
G75*
G03*
X205380001Y-106233999I709999J-25D01*
G01*
X158630001Y-108323975D02*
G75*
G03*
X157940001Y-107633999I-690001J-25D01*
G01*
X148400001Y-66233975D02*
G75*
G03*
X149074975Y-65558975I-1J674975D01*
G01*
X189050001Y-85373975D02*
G75*
G03*
X189760001Y-86083999I709999J-25D01*
G01*
X213190001Y-105523975D02*
G75*
G03*
X213900001Y-106233999I709999J-25D01*
G01*
X179110001Y-68343975D02*
G75*
G02*
X179820001Y-67634001I709999J-25D01*
G01*
X160650001Y-85373975D02*
G75*
G03*
X161360001Y-86083999I709999J-25D01*
G01*
X120180001Y-67633975D02*
G75*
G02*
X120890025Y-68343975I-1J-710025D01*
G01*
X203960001Y-87783975D02*
G75*
G02*
X204670025Y-88493975I-1J-710025D01*
G01*
X107570001Y-140793975D02*
G75*
G02*
X106880001Y-141484001I-690001J-25D01*
G01*
X194730001Y-88493975D02*
G75*
G02*
X195440001Y-87784001I709999J-25D01*
G01*
X172720001Y-86083975D02*
G75*
G03*
X173429975Y-85373975I-1J709975D01*
G01*
X198990001Y-105523975D02*
G75*
G03*
X199700001Y-106233999I709999J-25D01*
G01*
X121370001Y-140793975D02*
G75*
G02*
X120680001Y-141484001I-690001J-25D01*
G01*
X142760001Y-141483975D02*
G75*
G02*
X142070025Y-140793975I-1J689975D01*
G01*
X142190001Y-105523975D02*
G75*
G03*
X142900001Y-106233999I709999J-25D01*
G01*
X163490001Y-85373975D02*
G75*
G03*
X164200001Y-86083999I709999J-25D01*
G01*
X120680001Y-141483975D02*
G75*
G02*
X119990025Y-140793975I-1J689975D01*
G01*
X201725001Y-65558975D02*
G75*
G03*
X202400001Y-66233999I674999J-25D01*
G01*
X165950001Y-37383975D02*
G75*
G02*
X166625025Y-38058975I-1J-675025D01*
G01*
X87520001Y-87783975D02*
G75*
G02*
X88230025Y-88493975I-1J-710025D01*
G01*
X113790001Y-68343975D02*
G75*
G02*
X114500001Y-67634001I709999J-25D01*
G01*
X172430001Y-108323975D02*
G75*
G03*
X171740001Y-107633999I-690001J-25D01*
G01*
X174500001Y-107633975D02*
G75*
G03*
X173809975Y-108323975I-1J-690025D01*
G01*
X176980001Y-67633975D02*
G75*
G02*
X177690025Y-68343975I-1J-710025D01*
G01*
X201830001Y-105523975D02*
G75*
G03*
X202540001Y-106233999I709999J-25D01*
G01*
X115210001Y-85373975D02*
G75*
G03*
X115920001Y-86083999I709999J-25D01*
G01*
X197570001Y-85373975D02*
G75*
G03*
X198280001Y-86083999I709999J-25D01*
G01*
X86975001Y-38058975D02*
G75*
G02*
X87650001Y-37384001I674999J-25D01*
G01*
X132960001Y-87783975D02*
G75*
G02*
X133670025Y-88493975I-1J-710025D01*
G01*
X100475001Y-38058975D02*
G75*
G02*
X101150001Y-37384001I674999J-25D01*
G01*
X160650001Y-88493975D02*
G75*
G02*
X161360001Y-87784001I709999J-25D01*
G01*
X135800001Y-86083975D02*
G75*
G03*
X136509975Y-85373975I-1J709975D01*
G01*
X169325001Y-65558975D02*
G75*
G03*
X170000001Y-66233999I674999J-25D01*
G01*
X93725001Y-65558975D02*
G75*
G03*
X94400001Y-66233999I674999J-25D01*
G01*
X104120001Y-141483975D02*
G75*
G02*
X103430025Y-140793975I-1J689975D01*
G01*
X210350001Y-68343975D02*
G75*
G02*
X211060001Y-67634001I709999J-25D01*
G01*
X124775001Y-38058975D02*
G75*
G02*
X125450001Y-37384001I674999J-25D01*
G01*
X176980001Y-106233975D02*
G75*
G03*
X177689975Y-105523975I-1J709975D01*
G01*
X172700001Y-66233975D02*
G75*
G03*
X173374975Y-65558975I-1J674975D01*
G01*
X143610001Y-88493975D02*
G75*
G02*
X144320001Y-87784001I709999J-25D01*
G01*
X111275001Y-38058975D02*
G75*
G02*
X111950001Y-37384001I674999J-25D01*
G01*
X159200001Y-66233975D02*
G75*
G03*
X159874975Y-65558975I-1J674975D01*
G01*
X159230001Y-105523975D02*
G75*
G03*
X159940001Y-106233999I709999J-25D01*
G01*
X113975001Y-38058975D02*
G75*
G02*
X114650001Y-37384001I674999J-25D01*
G01*
X209640001Y-87783975D02*
G75*
G02*
X210350025Y-88493975I-1J-710025D01*
G01*
X206800001Y-87783975D02*
G75*
G02*
X207510025Y-88493975I-1J-710025D01*
G01*
X90360001Y-87783975D02*
G75*
G02*
X91070025Y-88493975I-1J-710025D01*
G01*
X129500001Y-66233975D02*
G75*
G03*
X130174975Y-65558975I-1J674975D01*
G01*
X182780001Y-107633975D02*
G75*
G03*
X182089975Y-108323975I-1J-690025D01*
G01*
X150000001Y-90533975D02*
G75*
G02*
X150710025Y-91243975I-1J-710025D01*
G01*
X137930001Y-85373975D02*
G75*
G03*
X138640001Y-86083999I709999J-25D01*
G01*
X186920001Y-141483975D02*
G75*
G02*
X186230025Y-140793975I-1J689975D01*
G01*
X101010001Y-88493975D02*
G75*
G02*
X101720001Y-87784001I709999J-25D01*
G01*
X147870001Y-68343975D02*
G75*
G02*
X148580001Y-67634001I709999J-25D01*
G01*
X155870001Y-108323975D02*
G75*
G03*
X155180001Y-107633999I-690001J-25D01*
G01*
X162070001Y-68343975D02*
G75*
G02*
X162780001Y-67634001I709999J-25D01*
G01*
X104560001Y-86083975D02*
G75*
G03*
X105269975Y-85373975I-1J709975D01*
G01*
X140770001Y-85373975D02*
G75*
G03*
X141480001Y-86083999I709999J-25D01*
G01*
X143000001Y-66233975D02*
G75*
G03*
X143674975Y-65558975I-1J674975D01*
G01*
X180530001Y-88493975D02*
G75*
G02*
X181240001Y-87784001I709999J-25D01*
G01*
X180800001Y-66233975D02*
G75*
G03*
X181474975Y-65558975I-1J674975D01*
G01*
X104810001Y-140793975D02*
G75*
G02*
X104120001Y-141484001I-690001J-25D01*
G01*
X93910001Y-105523975D02*
G75*
G03*
X94620001Y-106233999I709999J-25D01*
G01*
X176270001Y-105523975D02*
G75*
G03*
X176980001Y-106233999I709999J-25D01*
G01*
X86100001Y-67633975D02*
G75*
G02*
X86810025Y-68343975I-1J-710025D01*
G01*
X153800001Y-66233975D02*
G75*
G03*
X154474975Y-65558975I-1J674975D01*
G01*
X99125001Y-65558975D02*
G75*
G03*
X99800001Y-66233999I674999J-25D01*
G01*
X205380001Y-67633975D02*
G75*
G02*
X206090025Y-68343975I-1J-710025D01*
G01*
X170000001Y-66233975D02*
G75*
G03*
X170674975Y-65558975I-1J674975D01*
G01*
X204425001Y-65558975D02*
G75*
G03*
X205100001Y-66233999I674999J-25D01*
G01*
X130850001Y-37383975D02*
G75*
G02*
X131525025Y-38058975I-1J-675025D01*
G01*
X135575001Y-38058975D02*
G75*
G02*
X136250001Y-37384001I674999J-25D01*
G01*
X93050001Y-37383975D02*
G75*
G02*
X93725025Y-38058975I-1J-675025D01*
G01*
X132250001Y-88493975D02*
G75*
G02*
X132960001Y-87784001I709999J-25D01*
G01*
X141480001Y-86083975D02*
G75*
G03*
X142189975Y-85373975I-1J709975D01*
G01*
X112370001Y-88493975D02*
G75*
G02*
X113080001Y-87784001I709999J-25D01*
G01*
X122310001Y-105523975D02*
G75*
G03*
X123020001Y-106233999I709999J-25D01*
G01*
X89630001Y-108323975D02*
G75*
G03*
X88940001Y-107633999I-690001J-25D01*
G01*
X147160001Y-88233975D02*
G75*
G02*
X147870025Y-88943975I-1J-710025D01*
G01*
X205380001Y-106233975D02*
G75*
G03*
X206089975Y-105523975I-1J709975D01*
G01*
X92490001Y-85373975D02*
G75*
G03*
X93200001Y-86083999I709999J-25D01*
G01*
X184790001Y-105523975D02*
G75*
G03*
X185500001Y-106233999I709999J-25D01*
G01*
X197000001Y-66233975D02*
G75*
G03*
X197674975Y-65558975I-1J674975D01*
G01*
X178100001Y-66233975D02*
G75*
G03*
X178774975Y-65558975I-1J674975D01*
G01*
X186920001Y-87783975D02*
G75*
G02*
X187630025Y-88493975I-1J-710025D01*
G01*
X155680001Y-86083975D02*
G75*
G03*
X156389975Y-85373975I-1J709975D01*
G01*
X210500001Y-66233975D02*
G75*
G03*
X211174975Y-65558975I-1J674975D01*
G01*
X137600001Y-66233975D02*
G75*
G03*
X138274975Y-65558975I-1J674975D01*
G01*
X213875001Y-38058975D02*
G75*
G02*
X214550001Y-37384001I674999J-25D01*
G01*
X99590001Y-105523975D02*
G75*
G03*
X100300001Y-106233999I709999J-25D01*
G01*
X186920001Y-86083975D02*
G75*
G03*
X187629975Y-85373975I-1J709975D01*
G01*
X134380001Y-106233975D02*
G75*
G03*
X135089975Y-105523975I-1J709975D01*
G01*
X165620001Y-106233975D02*
G75*
G03*
X166329975Y-105523975I-1J709975D01*
G01*
X167975001Y-38058975D02*
G75*
G02*
X168650001Y-37384001I674999J-25D01*
G01*
X157810001Y-88493975D02*
G75*
G02*
X158520001Y-87784001I709999J-25D01*
G01*
X186210001Y-88493975D02*
G75*
G02*
X186920001Y-87784001I709999J-25D01*
G01*
X107400001Y-87783975D02*
G75*
G02*
X108110025Y-88493975I-1J-710025D01*
G01*
X170675001Y-38058975D02*
G75*
G02*
X171350001Y-37384001I674999J-25D01*
G01*
X184080001Y-87783975D02*
G75*
G02*
X184790025Y-88493975I-1J-710025D01*
G01*
X142900001Y-106233975D02*
G75*
G03*
X143609975Y-105523975I-1J709975D01*
G01*
X204860001Y-107633975D02*
G75*
G03*
X204169975Y-108323975I-1J-690025D01*
G01*
X157850001Y-37383975D02*
G75*
G02*
X158525025Y-38058975I-1J-675025D01*
G01*
X189575001Y-38058975D02*
G75*
G02*
X190250001Y-37384001I674999J-25D01*
G01*
X149750001Y-37383975D02*
G75*
G02*
X150425025Y-38058975I-1J-675025D01*
G01*
X102740001Y-107633975D02*
G75*
G03*
X102049975Y-108323975I-1J-690025D01*
G01*
X86810001Y-85373975D02*
G75*
G03*
X87520001Y-86083999I709999J-25D01*
G01*
X130175001Y-38058975D02*
G75*
G02*
X130850001Y-37384001I674999J-25D01*
G01*
X162080001Y-141483975D02*
G75*
G02*
X161390025Y-140793975I-1J689975D01*
G01*
X154970001Y-85373975D02*
G75*
G03*
X155680001Y-86083999I709999J-25D01*
G01*
X119470001Y-105523975D02*
G75*
G03*
X120180001Y-106233999I709999J-25D01*
G01*
X197270001Y-108323975D02*
G75*
G03*
X196580001Y-107633999I-690001J-25D01*
G01*
X156390001Y-105523975D02*
G75*
G03*
X157100001Y-106233999I709999J-25D01*
G01*
X179820001Y-106233975D02*
G75*
G03*
X180529975Y-105523975I-1J709975D01*
G01*
X171350001Y-37383975D02*
G75*
G02*
X172025025Y-38058975I-1J-675025D01*
G01*
X129410001Y-85373975D02*
G75*
G03*
X130120001Y-86083999I709999J-25D01*
G01*
X98880001Y-86083975D02*
G75*
G03*
X99589975Y-85373975I-1J709975D01*
G01*
X215210001Y-137743975D02*
G75*
G02*
X214520001Y-138434001I-690001J-25D01*
G01*
X145740001Y-67633975D02*
G75*
G02*
X146450025Y-68343975I-1J-710025D01*
G01*
X160550001Y-37383975D02*
G75*
G02*
X161225025Y-38058975I-1J-675025D01*
G01*
X215900001Y-107633975D02*
G75*
G03*
X215209975Y-108323975I-1J-690025D01*
G01*
X154970001Y-88493975D02*
G75*
G02*
X155680001Y-87784001I709999J-25D01*
G01*
X149290001Y-91243975D02*
G75*
G02*
X150000001Y-90534001I709999J-25D01*
G01*
X96040001Y-86083975D02*
G75*
G03*
X96749975Y-85373975I-1J709975D01*
G01*
X101720001Y-87783975D02*
G75*
G02*
X102430025Y-88493975I-1J-710025D01*
G01*
X112400001Y-141483975D02*
G75*
G02*
X111710025Y-140793975I-1J689975D01*
G01*
X152130001Y-82873975D02*
G75*
G03*
X152840001Y-83583999I709999J-25D01*
G01*
X90360001Y-86083975D02*
G75*
G03*
X91069975Y-85373975I-1J709975D01*
G01*
X138640001Y-87783975D02*
G75*
G02*
X139350025Y-88493975I-1J-710025D01*
G01*
X145030001Y-68343975D02*
G75*
G02*
X145740001Y-67634001I709999J-25D01*
G01*
X203750001Y-37383975D02*
G75*
G02*
X204425025Y-38058975I-1J-675025D01*
G01*
X118760001Y-89333975D02*
G75*
G02*
X119470025Y-90043975I-1J-710025D01*
G01*
X174850001Y-85373975D02*
G75*
G03*
X175560001Y-86083999I709999J-25D01*
G01*
X176750001Y-37383975D02*
G75*
G02*
X177425025Y-38058975I-1J-675025D01*
G01*
X202540001Y-67633975D02*
G75*
G02*
X203250025Y-68343975I-1J-710025D01*
G01*
X180125001Y-65558975D02*
G75*
G03*
X180800001Y-66233999I674999J-25D01*
G01*
X171300001Y-67633975D02*
G75*
G02*
X172010025Y-68343975I-1J-710025D01*
G01*
X108820001Y-67633975D02*
G75*
G02*
X109530025Y-68343975I-1J-710025D01*
G01*
X209825001Y-65558975D02*
G75*
G03*
X210500001Y-66233999I674999J-25D01*
G01*
X211060001Y-106233975D02*
G75*
G03*
X211769975Y-105523975I-1J709975D01*
G01*
X207620001Y-107633975D02*
G75*
G03*
X206929975Y-108323975I-1J-690025D01*
G01*
X189760001Y-87783975D02*
G75*
G02*
X190470025Y-88493975I-1J-710025D01*
G01*
X173375001Y-38058975D02*
G75*
G02*
X174050001Y-37384001I674999J-25D01*
G01*
X185540001Y-107633975D02*
G75*
G03*
X184849975Y-108323975I-1J-690025D01*
G01*
X167040001Y-86083975D02*
G75*
G03*
X167749975Y-85373975I-1J709975D01*
G01*
X178400001Y-87783975D02*
G75*
G02*
X179110025Y-88493975I-1J-710025D01*
G01*
X114650001Y-37383975D02*
G75*
G02*
X115325025Y-38058975I-1J-675025D01*
G01*
X153125001Y-65558975D02*
G75*
G03*
X153800001Y-66233999I674999J-25D01*
G01*
X107900001Y-66233975D02*
G75*
G03*
X108574975Y-65558975I-1J674975D01*
G01*
X144320001Y-87783975D02*
G75*
G02*
X145030025Y-88493975I-1J-710025D01*
G01*
X96750001Y-68343975D02*
G75*
G02*
X97460001Y-67634001I709999J-25D01*
G01*
X113080001Y-87783975D02*
G75*
G02*
X113790025Y-88493975I-1J-710025D01*
G01*
X184175001Y-38058975D02*
G75*
G02*
X184850001Y-37384001I674999J-25D01*
G01*
X191600001Y-66233975D02*
G75*
G03*
X192274975Y-65558975I-1J674975D01*
G01*
X184080001Y-86083975D02*
G75*
G03*
X184789975Y-85373975I-1J709975D01*
G01*
X171740001Y-107633975D02*
G75*
G03*
X171049975Y-108323975I-1J-690025D01*
G01*
X88940001Y-106233975D02*
G75*
G03*
X89649975Y-105523975I-1J709975D01*
G01*
X209150001Y-37383975D02*
G75*
G02*
X209825025Y-38058975I-1J-675025D01*
G01*
X201120001Y-86083975D02*
G75*
G03*
X201829975Y-85373975I-1J709975D01*
G01*
X162070001Y-105523975D02*
G75*
G03*
X162780001Y-106233999I709999J-25D01*
G01*
X134380001Y-67633975D02*
G75*
G02*
X135090025Y-68343975I-1J-710025D01*
G01*
X197570001Y-88493975D02*
G75*
G02*
X198280001Y-87784001I709999J-25D01*
G01*
X112370001Y-85373975D02*
G75*
G03*
X113080001Y-86083999I709999J-25D01*
G01*
X118760001Y-84533975D02*
G75*
G03*
X119469975Y-83823975I-1J709975D01*
G01*
X114470001Y-108323975D02*
G75*
G03*
X113780001Y-107633999I-690001J-25D01*
G01*
X105500001Y-107633975D02*
G75*
G03*
X104809975Y-108323975I-1J-690025D01*
G01*
X116630001Y-105523975D02*
G75*
G03*
X117340001Y-106233999I709999J-25D01*
G01*
X152450001Y-37383975D02*
G75*
G02*
X153125025Y-38058975I-1J-675025D01*
G01*
X206090001Y-85373975D02*
G75*
G03*
X206800001Y-86083999I709999J-25D01*
G01*
X192950001Y-37383975D02*
G75*
G02*
X193625025Y-38058975I-1J-675025D01*
G01*
X157940001Y-107633975D02*
G75*
G03*
X157249975Y-108323975I-1J-690025D01*
G01*
X96530001Y-140793975D02*
G75*
G02*
X95840001Y-141484001I-690001J-25D01*
G01*
X194300001Y-66233975D02*
G75*
G03*
X194974975Y-65558975I-1J674975D01*
G01*
X118610001Y-140793975D02*
G75*
G02*
X117920001Y-141484001I-690001J-25D01*
G01*
X141380001Y-107633975D02*
G75*
G03*
X140689975Y-108323975I-1J-690025D01*
G01*
X197960001Y-141483975D02*
G75*
G02*
X197270025Y-140793975I-1J689975D01*
G01*
X193820001Y-107633975D02*
G75*
G03*
X193129975Y-108323975I-1J-690025D01*
G01*
X103140001Y-67633975D02*
G75*
G02*
X103850025Y-68343975I-1J-710025D01*
G01*
X192600001Y-86083975D02*
G75*
G03*
X193309975Y-85373975I-1J709975D01*
G01*
X136925001Y-65558975D02*
G75*
G03*
X137600001Y-66233999I674999J-25D01*
G01*
X189760001Y-86083975D02*
G75*
G03*
X190469975Y-85373975I-1J709975D01*
G01*
X192275001Y-38058975D02*
G75*
G02*
X192950001Y-37384001I674999J-25D01*
G01*
X164600001Y-66233975D02*
G75*
G03*
X165274975Y-65558975I-1J674975D01*
G01*
X188340001Y-67633975D02*
G75*
G02*
X189050025Y-68343975I-1J-710025D01*
G01*
X125150001Y-68343975D02*
G75*
G02*
X125860001Y-67634001I709999J-25D01*
G01*
X118025001Y-65558975D02*
G75*
G03*
X118700001Y-66233999I674999J-25D01*
G01*
X98170001Y-85373975D02*
G75*
G03*
X98880001Y-86083999I709999J-25D01*
G01*
X93200001Y-86083975D02*
G75*
G03*
X93909975Y-85373975I-1J709975D01*
G01*
X211760001Y-141183975D02*
G75*
G02*
X211070025Y-140493975I-1J689975D01*
G01*
X108820001Y-106233975D02*
G75*
G03*
X109529975Y-105523975I-1J709975D01*
G01*
X208220001Y-67633975D02*
G75*
G02*
X208930025Y-68343975I-1J-710025D01*
G01*
X144350001Y-37383975D02*
G75*
G02*
X145025025Y-38058975I-1J-675025D01*
G01*
X101825001Y-65558975D02*
G75*
G03*
X102500001Y-66233999I674999J-25D01*
G01*
X188300001Y-107633975D02*
G75*
G03*
X187609975Y-108323975I-1J-690025D01*
G01*
X133670001Y-68343975D02*
G75*
G02*
X134380001Y-67634001I709999J-25D01*
G01*
X92490001Y-88493975D02*
G75*
G02*
X93200001Y-87784001I709999J-25D01*
G01*
X180020001Y-107633975D02*
G75*
G03*
X179329975Y-108323975I-1J-690025D01*
G01*
X148580001Y-67633975D02*
G75*
G02*
X149290025Y-68343975I-1J-710025D01*
G01*
X194510001Y-108323975D02*
G75*
G03*
X193820001Y-107633999I-690001J-25D01*
G01*
X162770001Y-140793975D02*
G75*
G02*
X162080001Y-141484001I-690001J-25D01*
G01*
X119375001Y-38058975D02*
G75*
G02*
X120050001Y-37384001I674999J-25D01*
G01*
X169880001Y-87783975D02*
G75*
G02*
X170590025Y-88493975I-1J-710025D01*
G01*
X127475001Y-38058975D02*
G75*
G02*
X128150001Y-37384001I674999J-25D01*
G01*
X115850001Y-140793975D02*
G75*
G02*
X115160001Y-141484001I-690001J-25D01*
G01*
X161360001Y-87783975D02*
G75*
G02*
X162070025Y-88493975I-1J-710025D01*
G01*
X179820001Y-67633975D02*
G75*
G02*
X180530025Y-68343975I-1J-710025D01*
G01*
X200410001Y-88493975D02*
G75*
G02*
X201120001Y-87784001I709999J-25D01*
G01*
X91070001Y-105523975D02*
G75*
G03*
X91780001Y-106233999I709999J-25D01*
G01*
X88940001Y-67633975D02*
G75*
G02*
X89650025Y-68343975I-1J-710025D01*
G01*
X213140001Y-107633975D02*
G75*
G03*
X212449975Y-108323975I-1J-690025D01*
G01*
X116000001Y-66233975D02*
G75*
G03*
X116674975Y-65558975I-1J674975D01*
G01*
X126800001Y-66233975D02*
G75*
G03*
X127474975Y-65558975I-1J674975D01*
G01*
X139310001Y-108323975D02*
G75*
G03*
X138620001Y-107633999I-690001J-25D01*
G01*
X206090001Y-88493975D02*
G75*
G02*
X206800001Y-87784001I709999J-25D01*
G01*
X111660001Y-106233975D02*
G75*
G03*
X112369975Y-105523975I-1J709975D01*
G01*
X110240001Y-87783975D02*
G75*
G02*
X110950025Y-88493975I-1J-710025D01*
G01*
X206800001Y-86083975D02*
G75*
G03*
X207509975Y-85373975I-1J709975D01*
G01*
X117920001Y-141483975D02*
G75*
G02*
X117230025Y-140793975I-1J689975D01*
G01*
X86810001Y-88493975D02*
G75*
G02*
X87520001Y-87784001I709999J-25D01*
G01*
X115920001Y-86083975D02*
G75*
G03*
X116629975Y-85373975I-1J709975D01*
G01*
X182660001Y-106233975D02*
G75*
G03*
X183369975Y-105523975I-1J709975D01*
G01*
X212480001Y-86083975D02*
G75*
G03*
X213189975Y-85373975I-1J709975D01*
G01*
X150350001Y-108323975D02*
G75*
G03*
X149660001Y-107633999I-690001J-25D01*
G01*
X210350001Y-105523975D02*
G75*
G03*
X211060001Y-106233999I709999J-25D01*
G01*
X131540001Y-106233975D02*
G75*
G03*
X132249975Y-105523975I-1J709975D01*
G01*
X191890001Y-88493975D02*
G75*
G02*
X192600001Y-87784001I709999J-25D01*
G01*
X142900001Y-67633975D02*
G75*
G02*
X143610025Y-68343975I-1J-710025D01*
G01*
X136550001Y-108323975D02*
G75*
G03*
X135860001Y-107633999I-690001J-25D01*
G01*
X124820001Y-107633975D02*
G75*
G03*
X124129975Y-108323975I-1J-690025D01*
G01*
X168460001Y-106233975D02*
G75*
G03*
X169169975Y-105523975I-1J709975D01*
G01*
X120890001Y-83073975D02*
G75*
G03*
X121600001Y-83783999I709999J-25D01*
G01*
X165530001Y-140793975D02*
G75*
G02*
X164840001Y-141484001I-690001J-25D01*
G01*
X188900001Y-66233975D02*
G75*
G03*
X189574975Y-65558975I-1J674975D01*
G01*
X140060001Y-106233975D02*
G75*
G03*
X140769975Y-105523975I-1J709975D01*
G01*
X132960001Y-86083975D02*
G75*
G03*
X133669975Y-85373975I-1J709975D01*
G01*
X153550001Y-68343975D02*
G75*
G02*
X154260001Y-67634001I709999J-25D01*
G01*
X184850001Y-37383975D02*
G75*
G02*
X185525025Y-38058975I-1J-675025D01*
G01*
X122310001Y-68343975D02*
G75*
G02*
X123020001Y-67634001I709999J-25D01*
G01*
X106690001Y-88493975D02*
G75*
G02*
X107400001Y-87784001I709999J-25D01*
G01*
X98170001Y-88493975D02*
G75*
G02*
X98880001Y-87784001I709999J-25D01*
G01*
X201050001Y-37383975D02*
G75*
G02*
X201725025Y-38058975I-1J-675025D01*
G01*
X124440001Y-85683975D02*
G75*
G03*
X125149975Y-84973975I-1J709975D01*
G01*
X87560001Y-138333975D02*
G75*
G02*
X86870025Y-137643975I-1J689975D01*
G01*
X202790001Y-108323975D02*
G75*
G03*
X202100001Y-107633999I-690001J-25D01*
G01*
X178640001Y-141483975D02*
G75*
G02*
X177950025Y-140793975I-1J689975D01*
G01*
X153550001Y-105523975D02*
G75*
G03*
X154260001Y-106233999I709999J-25D01*
G01*
X215225001Y-65558975D02*
G75*
G03*
X215900001Y-66233999I674999J-25D01*
G01*
X167040001Y-87783975D02*
G75*
G02*
X167750025Y-88493975I-1J-710025D01*
G01*
X98600001Y-141483975D02*
G75*
G02*
X97910025Y-140793975I-1J689975D01*
G01*
X135090001Y-85373975D02*
G75*
G03*
X135800001Y-86083999I709999J-25D01*
G01*
X94620001Y-67633975D02*
G75*
G02*
X95330025Y-68343975I-1J-710025D01*
G01*
X150710001Y-68343975D02*
G75*
G02*
X151420001Y-67634001I709999J-25D01*
G01*
X180710001Y-108323975D02*
G75*
G03*
X180020001Y-107633999I-690001J-25D01*
G01*
X88230001Y-68343975D02*
G75*
G02*
X88940001Y-67634001I709999J-25D01*
G01*
X117340001Y-106233975D02*
G75*
G03*
X118049975Y-105523975I-1J709975D01*
G01*
X99290001Y-140793975D02*
G75*
G02*
X98600001Y-141484001I-690001J-25D01*
G01*
X205775001Y-38058975D02*
G75*
G02*
X206450001Y-37384001I674999J-25D01*
G01*
X191060001Y-107633975D02*
G75*
G03*
X190369975Y-108323975I-1J-690025D01*
G01*
X160010001Y-140793975D02*
G75*
G02*
X159320001Y-141484001I-690001J-25D01*
G01*
X113090001Y-140793975D02*
G75*
G02*
X112400001Y-141484001I-690001J-25D01*
G01*
X106190001Y-108323975D02*
G75*
G03*
X105500001Y-107633999I-690001J-25D01*
G01*
X99800001Y-66233975D02*
G75*
G03*
X100474975Y-65558975I-1J674975D01*
G01*
X90350001Y-37383975D02*
G75*
G02*
X91025025Y-38058975I-1J-675025D01*
G01*
X136250001Y-37383975D02*
G75*
G02*
X136925025Y-38058975I-1J-675025D01*
G01*
X207510001Y-68343975D02*
G75*
G02*
X208220001Y-67634001I709999J-25D01*
G01*
X120725001Y-65558975D02*
G75*
G03*
X121400001Y-66233999I674999J-25D01*
G01*
X149290001Y-82623975D02*
G75*
G03*
X150000001Y-83333999I709999J-25D01*
G01*
X110950001Y-68343975D02*
G75*
G02*
X111660001Y-67634001I709999J-25D01*
G01*
X207800001Y-66233975D02*
G75*
G03*
X208474975Y-65558975I-1J674975D01*
G01*
X155180001Y-107633975D02*
G75*
G03*
X154489975Y-108323975I-1J-690025D01*
G01*
X103175001Y-38058975D02*
G75*
G02*
X103850001Y-37384001I674999J-25D01*
G01*
X137930001Y-140793975D02*
G75*
G02*
X137240001Y-141484001I-690001J-25D01*
G01*
X176075001Y-38058975D02*
G75*
G02*
X176750001Y-37384001I674999J-25D01*
G01*
X88230001Y-105523975D02*
G75*
G03*
X88940001Y-106233999I709999J-25D01*
G01*
X129650001Y-140793975D02*
G75*
G02*
X128960001Y-141484001I-690001J-25D01*
G01*
X154490001Y-140793975D02*
G75*
G02*
X153800001Y-141484001I-690001J-25D01*
G01*
X156560001Y-141483975D02*
G75*
G02*
X155870025Y-140793975I-1J689975D01*
G01*
X189050001Y-88493975D02*
G75*
G02*
X189760001Y-87784001I709999J-25D01*
G01*
X201830001Y-68343975D02*
G75*
G02*
X202540001Y-67634001I709999J-25D01*
G01*
X210380001Y-107633975D02*
G75*
G03*
X209689975Y-108323975I-1J-690025D01*
G01*
X129410001Y-88493975D02*
G75*
G02*
X130120001Y-87784001I709999J-25D01*
G01*
X174850001Y-88493975D02*
G75*
G02*
X175560001Y-87784001I709999J-25D01*
G01*
X161360001Y-86083975D02*
G75*
G03*
X162069975Y-85373975I-1J709975D01*
G01*
X212480001Y-87783975D02*
G75*
G02*
X213190025Y-88493975I-1J-710025D01*
G01*
X196325001Y-65558975D02*
G75*
G03*
X197000001Y-66233999I674999J-25D01*
G01*
X111710001Y-108323975D02*
G75*
G03*
X111020001Y-107633999I-690001J-25D01*
G01*
X169670001Y-108323975D02*
G75*
G03*
X168980001Y-107633999I-690001J-25D01*
G01*
X154260001Y-106233975D02*
G75*
G03*
X154969975Y-105523975I-1J709975D01*
G01*
X187630001Y-68343975D02*
G75*
G02*
X188340001Y-67634001I709999J-25D01*
G01*
X168460001Y-67633975D02*
G75*
G02*
X169170025Y-68343975I-1J-710025D01*
G01*
X180530001Y-85373975D02*
G75*
G03*
X181240001Y-86083999I709999J-25D01*
G01*
X166625001Y-65558975D02*
G75*
G03*
X167300001Y-66233999I674999J-25D01*
G01*
X100300001Y-67633975D02*
G75*
G02*
X101010025Y-68343975I-1J-710025D01*
G01*
X104525001Y-65558975D02*
G75*
G03*
X105200001Y-66233999I674999J-25D01*
G01*
X193310001Y-68343975D02*
G75*
G02*
X194020001Y-67634001I709999J-25D01*
G01*
X211770001Y-85373975D02*
G75*
G03*
X212480001Y-86083999I709999J-25D01*
G01*
X123020001Y-106233975D02*
G75*
G03*
X123729975Y-105523975I-1J709975D01*
G01*
X188990001Y-108323975D02*
G75*
G03*
X188300001Y-107633999I-690001J-25D01*
G01*
X184850001Y-140793975D02*
G75*
G02*
X184160001Y-141484001I-690001J-25D01*
G01*
X153110001Y-108323975D02*
G75*
G03*
X152420001Y-107633999I-690001J-25D01*
G01*
X194020001Y-106233975D02*
G75*
G03*
X194729975Y-105523975I-1J709975D01*
G01*
X186210001Y-85373975D02*
G75*
G03*
X186920001Y-86083999I709999J-25D01*
G01*
X103850001Y-85373975D02*
G75*
G03*
X104560001Y-86083999I709999J-25D01*
G01*
X199340001Y-107633975D02*
G75*
G03*
X198649975Y-108323975I-1J-690025D01*
G01*
X145740001Y-106233975D02*
G75*
G03*
X146449975Y-105523975I-1J709975D01*
G01*
X162780001Y-67633975D02*
G75*
G02*
X163490025Y-68343975I-1J-710025D01*
G01*
X147590001Y-108323975D02*
G75*
G03*
X146900001Y-107633999I-690001J-25D01*
G01*
X200030001Y-108323975D02*
G75*
G03*
X199340001Y-107633999I-690001J-25D01*
G01*
X201410001Y-140793975D02*
G75*
G02*
X200720001Y-141484001I-690001J-25D01*
G01*
X135800001Y-87783975D02*
G75*
G02*
X136510025Y-88493975I-1J-710025D01*
G01*
X106880001Y-141483975D02*
G75*
G02*
X106190025Y-140793975I-1J689975D01*
G01*
X148280001Y-141483975D02*
G75*
G02*
X147590025Y-140793975I-1J689975D01*
G01*
X135170001Y-140793975D02*
G75*
G02*
X134480001Y-141484001I-690001J-25D01*
G01*
X109640001Y-141483975D02*
G75*
G02*
X108950025Y-140793975I-1J689975D01*
G01*
X202400001Y-66233975D02*
G75*
G03*
X203074975Y-65558975I-1J674975D01*
G01*
X112625001Y-65558975D02*
G75*
G03*
X113300001Y-66233999I674999J-25D01*
G01*
X150710001Y-105523975D02*
G75*
G03*
X151420001Y-106233999I709999J-25D01*
G01*
X174140001Y-67633975D02*
G75*
G02*
X174850025Y-68343975I-1J-710025D01*
G01*
X164840001Y-141483975D02*
G75*
G02*
X164150025Y-140793975I-1J689975D01*
G01*
X91780001Y-67633975D02*
G75*
G02*
X92490025Y-68343975I-1J-710025D01*
G01*
X158520001Y-87783975D02*
G75*
G02*
X159230025Y-88493975I-1J-710025D01*
G01*
X116675001Y-38058975D02*
G75*
G02*
X117350001Y-37384001I674999J-25D01*
G01*
X214520001Y-138433975D02*
G75*
G02*
X213830025Y-137743975I-1J689975D01*
G01*
X206240001Y-141483975D02*
G75*
G02*
X205550025Y-140793975I-1J689975D01*
G01*
X169170001Y-85373975D02*
G75*
G03*
X169880001Y-86083999I709999J-25D01*
G01*
X177260001Y-107633975D02*
G75*
G03*
X176569975Y-108323975I-1J-690025D01*
G01*
X125860001Y-67633975D02*
G75*
G02*
X126570025Y-68343975I-1J-710025D01*
G01*
X153800001Y-141483975D02*
G75*
G02*
X153110025Y-140793975I-1J689975D01*
G01*
X177690001Y-85373975D02*
G75*
G03*
X178400001Y-86083999I709999J-25D01*
G01*
X140975001Y-38058975D02*
G75*
G02*
X141650001Y-37384001I674999J-25D01*
G01*
X130830001Y-105523975D02*
G75*
G03*
X131540001Y-106233999I709999J-25D01*
G01*
X118050001Y-83823975D02*
G75*
G03*
X118760001Y-84533999I709999J-25D01*
G01*
X163925001Y-65558975D02*
G75*
G03*
X164600001Y-66233999I674999J-25D01*
G01*
X208930001Y-88493975D02*
G75*
G02*
X209640001Y-87784001I709999J-25D01*
G01*
X152420001Y-107633975D02*
G75*
G03*
X151729975Y-108323975I-1J-690025D01*
G01*
X174140001Y-106233975D02*
G75*
G03*
X174849975Y-105523975I-1J709975D01*
G01*
X97220001Y-107633975D02*
G75*
G03*
X96529975Y-108323975I-1J-690025D01*
G01*
X110600001Y-66233975D02*
G75*
G03*
X111274975Y-65558975I-1J674975D01*
G01*
X128700001Y-106233975D02*
G75*
G03*
X129409975Y-105523975I-1J709975D01*
G01*
X196860001Y-106233975D02*
G75*
G03*
X197569975Y-105523975I-1J709975D01*
G01*
X166330001Y-88493975D02*
G75*
G02*
X167040001Y-87784001I709999J-25D01*
G01*
X143610001Y-85373975D02*
G75*
G03*
X144320001Y-86083999I709999J-25D01*
G01*
X184790001Y-68343975D02*
G75*
G02*
X185500001Y-67634001I709999J-25D01*
G01*
X134225001Y-65558975D02*
G75*
G03*
X134900001Y-66233999I674999J-25D01*
G01*
X124130001Y-140793975D02*
G75*
G02*
X123440001Y-141484001I-690001J-25D01*
G01*
X199700001Y-67633975D02*
G75*
G02*
X200410025Y-68343975I-1J-710025D01*
G01*
X131030001Y-108323975D02*
G75*
G03*
X130340001Y-107633999I-690001J-25D01*
G01*
X143450001Y-140793975D02*
G75*
G02*
X142760001Y-141484001I-690001J-25D01*
G01*
X192600001Y-87783975D02*
G75*
G02*
X193310025Y-88493975I-1J-710025D01*
G01*
X175880001Y-141483975D02*
G75*
G02*
X175190025Y-140793975I-1J689975D01*
G01*
X126570001Y-88493975D02*
G75*
G02*
X127280001Y-87784001I709999J-25D01*
G01*
X151040001Y-141483975D02*
G75*
G02*
X150350025Y-140793975I-1J689975D01*
G01*
X143675001Y-38058975D02*
G75*
G02*
X144350001Y-37384001I674999J-25D01*
G01*
X166910001Y-108323975D02*
G75*
G03*
X166220001Y-107633999I-690001J-25D01*
G01*
X110950001Y-105523975D02*
G75*
G03*
X111660001Y-106233999I709999J-25D01*
G01*
X128270001Y-108323975D02*
G75*
G03*
X127580001Y-107633999I-690001J-25D01*
G01*
X203250001Y-85373975D02*
G75*
G03*
X203960001Y-86083999I709999J-25D01*
G01*
X147160001Y-85633975D02*
G75*
G03*
X147869975Y-84923975I-1J709975D01*
G01*
X88250001Y-137643975D02*
G75*
G02*
X87560001Y-138334001I-690001J-25D01*
G01*
X183470001Y-108323975D02*
G75*
G03*
X182780001Y-107633999I-690001J-25D01*
G01*
X130120001Y-87783975D02*
G75*
G02*
X130830025Y-88493975I-1J-710025D01*
G01*
X194730001Y-85373975D02*
G75*
G03*
X195440001Y-86083999I709999J-25D01*
G01*
X175190001Y-108323975D02*
G75*
G03*
X174500001Y-107633999I-690001J-25D01*
G01*
X190250001Y-37383975D02*
G75*
G02*
X190925025Y-38058975I-1J-675025D01*
G01*
X196150001Y-68343975D02*
G75*
G02*
X196860001Y-67634001I709999J-25D01*
G01*
X211060001Y-67633975D02*
G75*
G02*
X211770025Y-68343975I-1J-710025D01*
G01*
X123020001Y-67633975D02*
G75*
G02*
X123730025Y-68343975I-1J-710025D01*
G01*
X114500001Y-67633975D02*
G75*
G02*
X115210025Y-68343975I-1J-710025D01*
G01*
X147870001Y-105523975D02*
G75*
G03*
X148580001Y-106233999I709999J-25D01*
G01*
X166330001Y-85373975D02*
G75*
G03*
X167040001Y-86083999I709999J-25D01*
G01*
X185500001Y-67633975D02*
G75*
G02*
X186210025Y-68343975I-1J-710025D01*
G01*
X182150001Y-37383975D02*
G75*
G02*
X182825025Y-38058975I-1J-675025D01*
G01*
X117230001Y-108323975D02*
G75*
G03*
X116540001Y-107633999I-690001J-25D01*
G01*
X190370001Y-140793975D02*
G75*
G02*
X189680001Y-141484001I-690001J-25D01*
G01*
X191180001Y-67633975D02*
G75*
G02*
X191890025Y-68343975I-1J-710025D01*
G01*
X94460001Y-107633975D02*
G75*
G03*
X93769975Y-108323975I-1J-690025D01*
G01*
X86870001Y-108323975D02*
G75*
G03*
X86180001Y-107633999I-690001J-25D01*
G01*
X124440001Y-88183975D02*
G75*
G02*
X125150025Y-88893975I-1J-710025D01*
G01*
X162780001Y-106233975D02*
G75*
G03*
X163489975Y-105523975I-1J709975D01*
G01*
X144830001Y-108323975D02*
G75*
G03*
X144140001Y-107633999I-690001J-25D01*
G01*
X94620001Y-106233975D02*
G75*
G03*
X95329975Y-105523975I-1J709975D01*
G01*
X110240001Y-86083975D02*
G75*
G03*
X110949975Y-85373975I-1J709975D01*
G01*
X154260001Y-67633975D02*
G75*
G02*
X154970025Y-68343975I-1J-710025D01*
G01*
X172010001Y-85373975D02*
G75*
G03*
X172720001Y-86083999I709999J-25D01*
G01*
X174050001Y-37383975D02*
G75*
G02*
X174725025Y-38058975I-1J-675025D01*
G01*
X108110001Y-68343975D02*
G75*
G02*
X108820001Y-67634001I709999J-25D01*
G01*
X121600001Y-90083975D02*
G75*
G02*
X122310025Y-90793975I-1J-710025D01*
G01*
X141480001Y-87783975D02*
G75*
G02*
X142190025Y-88493975I-1J-710025D01*
G01*
X140000001Y-141483975D02*
G75*
G02*
X139310025Y-140793975I-1J689975D01*
G01*
X199700001Y-66233975D02*
G75*
G03*
X200374975Y-65558975I-1J674975D01*
G01*
X132200001Y-66233975D02*
G75*
G03*
X132874975Y-65558975I-1J674975D01*
G01*
X142070001Y-108323975D02*
G75*
G03*
X141380001Y-107633999I-690001J-25D01*
G01*
X92390001Y-108323975D02*
G75*
G03*
X91700001Y-107633999I-690001J-25D01*
G01*
X113780001Y-107633975D02*
G75*
G03*
X113089975Y-108323975I-1J-690025D01*
G01*
X128960001Y-141483975D02*
G75*
G02*
X128270025Y-140793975I-1J689975D01*
G01*
X194975001Y-38058975D02*
G75*
G02*
X195650001Y-37384001I674999J-25D01*
G01*
X178400001Y-86083975D02*
G75*
G03*
X179109975Y-85373975I-1J709975D01*
G01*
X91700001Y-107633975D02*
G75*
G03*
X91009975Y-108323975I-1J-690025D01*
G01*
X96425001Y-65558975D02*
G75*
G03*
X97100001Y-66233999I674999J-25D01*
G01*
X199025001Y-65558975D02*
G75*
G03*
X199700001Y-66233999I674999J-25D01*
G01*
X137240001Y-141483975D02*
G75*
G02*
X136550025Y-140793975I-1J689975D01*
G01*
X132250001Y-85373975D02*
G75*
G03*
X132960001Y-86083999I709999J-25D01*
G01*
X214550001Y-37383975D02*
G75*
G02*
X215225025Y-38058975I-1J-675025D01*
G01*
X151420001Y-67633975D02*
G75*
G02*
X152130025Y-68343975I-1J-710025D01*
G01*
X176270001Y-68343975D02*
G75*
G02*
X176980001Y-67634001I709999J-25D01*
G01*
X122750001Y-37383975D02*
G75*
G02*
X123425025Y-38058975I-1J-675025D01*
G01*
X157100001Y-106233975D02*
G75*
G03*
X157809975Y-105523975I-1J709975D01*
G01*
X108950001Y-108323975D02*
G75*
G03*
X108260001Y-107633999I-690001J-25D01*
G01*
X120180001Y-106233975D02*
G75*
G03*
X120889975Y-105523975I-1J709975D01*
G01*
X93910001Y-68343975D02*
G75*
G02*
X94620001Y-67634001I709999J-25D01*
G01*
X159940001Y-106233975D02*
G75*
G03*
X160649975Y-105523975I-1J709975D01*
G01*
X123425001Y-65558975D02*
G75*
G03*
X124100001Y-66233999I674999J-25D01*
G01*
X113790001Y-105523975D02*
G75*
G03*
X114500001Y-106233999I709999J-25D01*
G01*
X204670001Y-68343975D02*
G75*
G02*
X205380001Y-67634001I709999J-25D01*
G01*
X208475001Y-38058975D02*
G75*
G02*
X209150001Y-37384001I674999J-25D01*
G01*
X130340001Y-107633975D02*
G75*
G03*
X129649975Y-108323975I-1J-690025D01*
G01*
X102430001Y-105523975D02*
G75*
G03*
X103140001Y-106233999I709999J-25D01*
G01*
X105200001Y-66233975D02*
G75*
G03*
X105874975Y-65558975I-1J674975D01*
G01*
X163250001Y-37383975D02*
G75*
G02*
X163925025Y-38058975I-1J-675025D01*
G01*
X149075001Y-38058975D02*
G75*
G02*
X149750001Y-37384001I674999J-25D01*
G01*
X196150001Y-105523975D02*
G75*
G03*
X196860001Y-106233999I709999J-25D01*
G01*
X164200001Y-86083975D02*
G75*
G03*
X164909975Y-85373975I-1J709975D01*
G01*
X137220001Y-67633975D02*
G75*
G02*
X137930025Y-68343975I-1J-710025D01*
G01*
X131540001Y-67633975D02*
G75*
G02*
X132250025Y-68343975I-1J-710025D01*
G01*
X173120001Y-141483975D02*
G75*
G02*
X172430025Y-140793975I-1J689975D01*
G01*
X203480001Y-141483975D02*
G75*
G02*
X202790025Y-140793975I-1J689975D01*
G01*
X155825001Y-65558975D02*
G75*
G03*
X156500001Y-66233999I674999J-25D01*
G01*
X186875001Y-38058975D02*
G75*
G02*
X187550001Y-37384001I674999J-25D01*
G01*
X159875001Y-38058975D02*
G75*
G02*
X160550001Y-37384001I674999J-25D01*
G01*
X114500001Y-106233975D02*
G75*
G03*
X115209975Y-105523975I-1J709975D01*
G01*
X92375001Y-38058975D02*
G75*
G02*
X93050001Y-37384001I674999J-25D01*
G01*
X176570001Y-140793975D02*
G75*
G02*
X175880001Y-141484001I-690001J-25D01*
G01*
X161390001Y-108323975D02*
G75*
G03*
X160700001Y-107633999I-690001J-25D01*
G01*
X136510001Y-68343975D02*
G75*
G02*
X137220001Y-67634001I709999J-25D01*
G01*
X134900001Y-66233975D02*
G75*
G03*
X135574975Y-65558975I-1J674975D01*
G01*
X137930001Y-88493975D02*
G75*
G02*
X138640001Y-87784001I709999J-25D01*
G01*
X93200001Y-87783975D02*
G75*
G02*
X93910025Y-88493975I-1J-710025D01*
G01*
X91010001Y-140393975D02*
G75*
G02*
X90320001Y-141084001I-690001J-25D01*
G01*
X163490001Y-88493975D02*
G75*
G02*
X164200001Y-87784001I709999J-25D01*
G01*
X133100001Y-107633975D02*
G75*
G03*
X132409975Y-108323975I-1J-690025D01*
G01*
X181950001Y-105523975D02*
G75*
G03*
X182660001Y-106233999I709999J-25D01*
G01*
X197675001Y-38058975D02*
G75*
G02*
X198350001Y-37384001I674999J-25D01*
G01*
X212525001Y-65558975D02*
G75*
G03*
X213200001Y-66233999I674999J-25D01*
G01*
X121600001Y-83783975D02*
G75*
G03*
X122309975Y-83073975I-1J709975D01*
G01*
X128825001Y-65558975D02*
G75*
G03*
X129500001Y-66233999I674999J-25D01*
G01*
X211175001Y-38058975D02*
G75*
G02*
X211850001Y-37384001I674999J-25D01*
G01*
X90320001Y-141083975D02*
G75*
G02*
X89630025Y-140393975I-1J689975D01*
G01*
X175560001Y-86083975D02*
G75*
G03*
X176269975Y-85373975I-1J709975D01*
G01*
X152840001Y-90283975D02*
G75*
G02*
X153550025Y-90993975I-1J-710025D01*
G01*
X155150001Y-37383975D02*
G75*
G02*
X155825025Y-38058975I-1J-675025D01*
G01*
X196580001Y-107633975D02*
G75*
G03*
X195889975Y-108323975I-1J-690025D01*
G01*
X198990001Y-68343975D02*
G75*
G02*
X199700001Y-67634001I709999J-25D01*
G01*
X207125001Y-65558975D02*
G75*
G03*
X207800001Y-66233999I674999J-25D01*
G01*
X154475001Y-38058975D02*
G75*
G02*
X155150001Y-37384001I674999J-25D01*
G01*
X185525001Y-65558975D02*
G75*
G03*
X186200001Y-66233999I674999J-25D01*
G01*
X139625001Y-65558975D02*
G75*
G03*
X140300001Y-66233999I674999J-25D01*
G01*
X171300001Y-106233975D02*
G75*
G03*
X172009975Y-105523975I-1J709975D01*
G01*
X181950001Y-68343975D02*
G75*
G02*
X182660001Y-67634001I709999J-25D01*
G01*
X177690001Y-88493975D02*
G75*
G02*
X178400001Y-87784001I709999J-25D01*
G01*
X175560001Y-87783975D02*
G75*
G02*
X176270025Y-88493975I-1J-710025D01*
G01*
X93080001Y-141483975D02*
G75*
G02*
X92390025Y-140793975I-1J689975D01*
G01*
X168980001Y-107633975D02*
G75*
G03*
X168289975Y-108323975I-1J-690025D01*
G01*
X126570001Y-85373975D02*
G75*
G03*
X127280001Y-86083999I709999J-25D01*
G01*
X144320001Y-86083975D02*
G75*
G03*
X145029975Y-85373975I-1J709975D01*
G01*
X156390001Y-68343975D02*
G75*
G02*
X157100001Y-67634001I709999J-25D01*
G01*
X168650001Y-37383975D02*
G75*
G02*
X169325025Y-38058975I-1J-675025D01*
G01*
X187610001Y-140793975D02*
G75*
G02*
X186920001Y-141484001I-690001J-25D01*
G01*
X170590001Y-68343975D02*
G75*
G02*
X171300001Y-67634001I709999J-25D01*
G01*
X135090001Y-88493975D02*
G75*
G02*
X135800001Y-87784001I709999J-25D01*
G01*
X128150001Y-37383975D02*
G75*
G02*
X128825025Y-38058975I-1J-675025D01*
G01*
X140060001Y-67633975D02*
G75*
G02*
X140770025Y-68343975I-1J-710025D01*
G01*
X207510001Y-105523975D02*
G75*
G03*
X208220001Y-106233999I709999J-25D01*
G01*
X119990001Y-108323975D02*
G75*
G03*
X119300001Y-107633999I-690001J-25D01*
G01*
X191750001Y-108323975D02*
G75*
G03*
X191060001Y-107633999I-690001J-25D01*
G01*
X181475001Y-38058975D02*
G75*
G02*
X182150001Y-37384001I674999J-25D01*
G01*
X157250001Y-140793975D02*
G75*
G02*
X156560001Y-141484001I-690001J-25D01*
G01*
X111950001Y-37383975D02*
G75*
G02*
X112625025Y-38058975I-1J-675025D01*
G01*
X147725001Y-65558975D02*
G75*
G03*
X148400001Y-66233999I674999J-25D01*
G01*
X209690001Y-140793975D02*
G75*
G02*
X209000001Y-141484001I-690001J-25D01*
G01*
X164200001Y-87783975D02*
G75*
G02*
X164910025Y-88493975I-1J-710025D01*
G01*
X158525001Y-65558975D02*
G75*
G03*
X159200001Y-66233999I674999J-25D01*
G01*
X157175001Y-38058975D02*
G75*
G02*
X157850001Y-37384001I674999J-25D01*
G01*
X95075001Y-38058975D02*
G75*
G02*
X95750001Y-37384001I674999J-25D01*
G01*
X192440001Y-141483975D02*
G75*
G02*
X191750025Y-140793975I-1J689975D01*
G01*
X206930001Y-140793975D02*
G75*
G02*
X206240001Y-141484001I-690001J-25D01*
G01*
X182090001Y-140793975D02*
G75*
G02*
X181400001Y-141484001I-690001J-25D01*
G01*
X104560001Y-87783975D02*
G75*
G02*
X105270025Y-88493975I-1J-710025D01*
G01*
X109530001Y-85373975D02*
G75*
G03*
X110240001Y-86083999I709999J-25D01*
G01*
X206450001Y-37383975D02*
G75*
G02*
X207125025Y-38058975I-1J-675025D01*
G01*
X203075001Y-38058975D02*
G75*
G02*
X203750001Y-37384001I674999J-25D01*
G01*
X181240001Y-87783975D02*
G75*
G02*
X181950025Y-88493975I-1J-710025D01*
G01*
X164910001Y-105523975D02*
G75*
G03*
X165620001Y-106233999I709999J-25D01*
G01*
X91700001Y-66233975D02*
G75*
G03*
X92374975Y-65558975I-1J674975D01*
G01*
X193625001Y-65558975D02*
G75*
G03*
X194300001Y-66233999I674999J-25D01*
G01*
X188225001Y-65558975D02*
G75*
G03*
X188900001Y-66233999I674999J-25D01*
G01*
X113300001Y-66233975D02*
G75*
G03*
X113974975Y-65558975I-1J674975D01*
G01*
X198650001Y-140793975D02*
G75*
G02*
X197960001Y-141484001I-690001J-25D01*
G01*
X139350001Y-105523975D02*
G75*
G03*
X140060001Y-106233999I709999J-25D01*
G01*
X86300001Y-66233975D02*
G75*
G03*
X86974975Y-65558975I-1J674975D01*
G01*
X162575001Y-38058975D02*
G75*
G02*
X163250001Y-37384001I674999J-25D01*
G01*
X208930001Y-85373975D02*
G75*
G03*
X209640001Y-86083999I709999J-25D01*
G01*
X159320001Y-141483975D02*
G75*
G02*
X158630025Y-140793975I-1J689975D01*
G01*
X113080001Y-86083975D02*
G75*
G03*
X113789975Y-85373975I-1J709975D01*
G01*
X101150001Y-37383975D02*
G75*
G02*
X101825025Y-38058975I-1J-675025D01*
G01*
X205550001Y-108323975D02*
G75*
G03*
X204860001Y-107633999I-690001J-25D01*
G01*
X136510001Y-105523975D02*
G75*
G03*
X137220001Y-106233999I709999J-25D01*
G01*
X95330001Y-85373975D02*
G75*
G03*
X96040001Y-86083999I709999J-25D01*
G01*
X102500001Y-66233975D02*
G75*
G03*
X103174975Y-65558975I-1J674975D01*
G01*
X96750001Y-105523975D02*
G75*
G03*
X97460001Y-106233999I709999J-25D01*
G01*
X146375001Y-38058975D02*
G75*
G02*
X147050001Y-37384001I674999J-25D01*
G01*
X182660001Y-67633975D02*
G75*
G02*
X183370025Y-68343975I-1J-710025D01*
G01*
X199700001Y-106233975D02*
G75*
G03*
X200409975Y-105523975I-1J709975D01*
G01*
X179110001Y-105523975D02*
G75*
G03*
X179820001Y-106233999I709999J-25D01*
G01*
X172010001Y-88493975D02*
G75*
G02*
X172720001Y-87784001I709999J-25D01*
G01*
X127990001Y-105523975D02*
G75*
G03*
X128700001Y-106233999I709999J-25D01*
G01*
X195440001Y-87783975D02*
G75*
G02*
X196150025Y-88493975I-1J-710025D01*
G01*
X133790001Y-108323975D02*
G75*
G03*
X133100001Y-107633999I-690001J-25D01*
G01*
X193130001Y-140793975D02*
G75*
G02*
X192440001Y-141484001I-690001J-25D01*
G01*
X147050001Y-37383975D02*
G75*
G02*
X147725025Y-38058975I-1J-675025D01*
G01*
X118050001Y-90043975D02*
G75*
G02*
X118760001Y-89334001I709999J-25D01*
G01*
X200410001Y-85373975D02*
G75*
G03*
X201120001Y-86083999I709999J-25D01*
G01*
X151730001Y-140793975D02*
G75*
G02*
X151040001Y-141484001I-690001J-25D01*
G01*
X134480001Y-141483975D02*
G75*
G02*
X133790025Y-140793975I-1J689975D01*
G01*
X125150001Y-105523975D02*
G75*
G03*
X125860001Y-106233999I709999J-25D01*
G01*
X89650001Y-88493975D02*
G75*
G02*
X90360001Y-87784001I709999J-25D01*
G01*
X163460001Y-107633975D02*
G75*
G03*
X162769975Y-108323975I-1J-690025D01*
G01*
X109925001Y-65558975D02*
G75*
G03*
X110600001Y-66233999I674999J-25D01*
G01*
X200720001Y-141483975D02*
G75*
G02*
X200030025Y-140793975I-1J689975D01*
G01*
X145520001Y-141483975D02*
G75*
G02*
X144830025Y-140793975I-1J689975D01*
G01*
X202540001Y-106233975D02*
G75*
G03*
X203249975Y-105523975I-1J709975D01*
G01*
X212450001Y-140493975D02*
G75*
G02*
X211760001Y-141184001I-690001J-25D01*
G01*
X94400001Y-66233975D02*
G75*
G03*
X95074975Y-65558975I-1J674975D01*
G01*
X95330001Y-88493975D02*
G75*
G02*
X96040001Y-87784001I709999J-25D01*
G01*
X97460001Y-67633975D02*
G75*
G02*
X98170025Y-68343975I-1J-710025D01*
G01*
X127280001Y-87783975D02*
G75*
G02*
X127990025Y-88493975I-1J-710025D01*
G01*
X110330001Y-140793975D02*
G75*
G02*
X109640001Y-141484001I-690001J-25D01*
G01*
X190925001Y-65558975D02*
G75*
G03*
X191600001Y-66233999I674999J-25D01*
G01*
X98450001Y-37383975D02*
G75*
G02*
X99125025Y-38058975I-1J-675025D01*
G01*
X179450001Y-37383975D02*
G75*
G02*
X180125025Y-38058975I-1J-675025D01*
G01*
X167300001Y-66233975D02*
G75*
G03*
X167974975Y-65558975I-1J674975D01*
G01*
X138620001Y-107633975D02*
G75*
G03*
X137929975Y-108323975I-1J-690025D01*
G01*
X152840001Y-83583975D02*
G75*
G03*
X153549975Y-82873975I-1J709975D01*
G01*
X148580001Y-106233975D02*
G75*
G03*
X149289975Y-105523975I-1J709975D01*
G01*
X165620001Y-67633975D02*
G75*
G02*
X166330025Y-68343975I-1J-710025D01*
G01*
X107400001Y-86083975D02*
G75*
G03*
X108109975Y-85373975I-1J709975D01*
G01*
X103140001Y-106233975D02*
G75*
G03*
X103849975Y-105523975I-1J709975D01*
G01*
X181240001Y-86083975D02*
G75*
G03*
X181949975Y-85373975I-1J709975D01*
G01*
X123730001Y-88893975D02*
G75*
G02*
X124440001Y-88184001I709999J-25D01*
G01*
X169170001Y-88493975D02*
G75*
G02*
X169880001Y-87784001I709999J-25D01*
G01*
X102430001Y-68343975D02*
G75*
G02*
X103140001Y-67634001I709999J-25D01*
G01*
X126125001Y-65558975D02*
G75*
G03*
X126800001Y-66233999I674999J-25D01*
G01*
X125510001Y-108323975D02*
G75*
G03*
X124820001Y-107633999I-690001J-25D01*
G01*
X103430001Y-108323975D02*
G75*
G03*
X102740001Y-107633999I-690001J-25D01*
G01*
X190470001Y-68343975D02*
G75*
G02*
X191180001Y-67634001I709999J-25D01*
G01*
X203250001Y-88493975D02*
G75*
G02*
X203960001Y-87784001I709999J-25D01*
G01*
X126890001Y-140793975D02*
G75*
G02*
X126200001Y-141484001I-690001J-25D01*
G01*
X146900001Y-107633975D02*
G75*
G03*
X146209975Y-108323975I-1J-690025D01*
G01*
X115210001Y-88493975D02*
G75*
G02*
X115920001Y-87784001I709999J-25D01*
G01*
M02*
